<svg width="146" height="27" viewBox="0 0 146 27" fill="none" xmlns="http://www.w3.org/2000/svg">
<path d="M16.8961 21H14.9273L9.84141 13.5117L8.22422 15.3164V21H6.61875V5.70703H8.22422V13.1484L14.775 5.70703H16.8961L10.8961 12.3867L16.8961 21ZM38.0063 21H36.2836L34.8422 16.6289H28.7953L27.3773 21H25.6547L30.7406 5.70703H32.9203L38.0063 21ZM34.3852 15.2109L31.8188 7.32422L29.2523 15.2109H34.3852ZM57.5695 10.875H56.1984V7.07812H52.9172V19.6289H55.3781V21H48.8273V19.6289H51.3V7.07812H48.0188V10.875H46.6477V5.70703H57.5695V10.875ZM77.8008 21H75.832L70.7461 13.5117L69.1289 15.3164V21H67.5234V5.70703H69.1289V13.1484L75.6797 5.70703H77.8008L71.8008 12.3867L77.8008 21ZM96.3445 21L95.243 17.3555H90.1805L89.1023 21H86.5594L91.3289 5.70703H94.118L98.8875 21H96.3445ZM90.825 15.2109H94.5984L92.7234 8.90625L90.825 15.2109ZM118.685 21H115.615L111.654 14.8125H110.552V21H108.127V5.70703H113.166C114.845 5.70703 116.15 6.09375 117.08 6.86719C118.009 7.63281 118.474 8.76953 118.474 10.2773C118.474 10.9492 118.369 11.543 118.158 12.0586C117.955 12.5664 117.662 13.0039 117.279 13.3711C116.904 13.7383 116.463 14.0312 115.955 14.25C115.455 14.4609 114.912 14.6055 114.326 14.6836L118.685 21ZM116.048 10.2422C116.048 9.46094 115.791 8.875 115.275 8.48438C114.767 8.09375 114.064 7.89844 113.166 7.89844H110.552V12.6211H113.166C114.064 12.6211 114.767 12.4258 115.275 12.0352C115.791 11.6445 116.048 11.0469 116.048 10.2422ZM138.752 11.2852H136.584V7.89844H134.522V18.8203H136.948V21H129.682V18.8203H132.096V7.89844H130.01V11.2852H127.854V5.70703H138.752V11.2852Z" fill="#616161"/>
</svg>
