<svg width="1410" height="12" viewBox="0 0 1410 12" fill="none" xmlns="http://www.w3.org/2000/svg">
<rect width="1410" height="12" fill="#F9F9F9"/>
<path d="M6.07849 9.64648H5.09412L2.55115 5.90234L1.74255 6.80469V9.64648H0.939819V2H1.74255V5.7207L5.01794 2H6.07849L3.07849 5.33984L6.07849 9.64648Z" fill="#E0E0E0"/>
<path d="M14.2336 9.64648H13.3722L12.6515 7.46094H9.6281L8.91912 9.64648H8.05779L10.6008 2H11.6906L14.2336 9.64648ZM12.423 6.75195L11.1398 2.80859L9.85662 6.75195H12.423Z" fill="#E0E0E0"/>
<path d="M21.6152 4.58398H20.9297V2.68555H19.289V8.96094H20.5195V9.64648H17.2441V8.96094H18.4804V2.68555H16.8398V4.58398H16.1543V2H21.6152V4.58398Z" fill="#E0E0E0"/>
<path d="M29.3308 9.64648H28.3465L25.8035 5.90234L24.9949 6.80469V9.64648H24.1922V2H24.9949V5.7207L28.2703 2H29.3308L26.3308 5.33984L29.3308 9.64648Z" fill="#E0E0E0"/>
<path d="M37.4859 9.64648H36.6246L35.9039 7.46094H32.8804L32.1715 9.64648H31.3101L33.8531 2H34.9429L37.4859 9.64648ZM35.6754 6.75195L34.3922 2.80859L33.109 6.75195H35.6754Z" fill="#E0E0E0"/>
<path d="M44.9379 9.64648H43.9183L41.6859 6.37109H40.4965V9.64648H39.6937V2H42.2133C43.0531 2 43.7035 2.18359 44.1644 2.55078C44.6254 2.91406 44.8558 3.45898 44.8558 4.18555C44.8558 4.50586 44.7992 4.79492 44.6859 5.05273C44.5726 5.30664 44.4183 5.52344 44.223 5.70312C44.0277 5.88281 43.7933 6.02734 43.5199 6.13672C43.2504 6.24609 42.9554 6.3125 42.6351 6.33594L44.9379 9.64648ZM44.0238 4.18555C44.0238 3.66602 43.8617 3.28711 43.5375 3.04883C43.2172 2.80664 42.7758 2.68555 42.2133 2.68555H40.4965V5.68555H42.2133C42.7758 5.68555 43.2172 5.56836 43.5375 5.33398C43.8617 5.0957 44.0238 4.71289 44.0238 4.18555Z" fill="#E0E0E0"/>
<path d="M52.6183 4.58398H51.9328V2.68555H50.2922V8.96094H51.5226V9.64648H48.2472V8.96094H49.4836V2.68555H47.8429V4.58398H47.1574V2H52.6183V4.58398Z" fill="#E0E0E0"/>
<path d="M60.334 9.64648H59.3496L56.8066 5.90234L55.998 6.80469V9.64648H55.1953V2H55.998V5.7207L59.2734 2H60.334L57.334 5.33984L60.334 9.64648Z" fill="#E0E0E0"/>
<path d="M68.489 9.64648H67.6277L66.907 7.46094H63.8836L63.1746 9.64648H62.3133L64.8562 2H65.9461L68.489 9.64648ZM66.6785 6.75195L65.3953 2.80859L64.1121 6.75195H66.6785Z" fill="#E0E0E0"/>
<path d="M75.8707 4.58398H75.1851V2.68555H73.5445V8.96094H74.775V9.64648H71.4996V8.96094H72.7359V2.68555H71.0953V4.58398H70.4097V2H75.8707V4.58398Z" fill="#E0E0E0"/>
<path d="M83.5863 9.64648H82.6019L80.059 5.90234L79.2504 6.80469V9.64648H78.4476V2H79.2504V5.7207L82.5258 2H83.5863L80.5863 5.33984L83.5863 9.64648Z" fill="#E0E0E0"/>
<path d="M91.7414 9.64648H90.8801L90.1593 7.46094H87.1359L86.4269 9.64648H85.5656L88.1086 2H89.1984L91.7414 9.64648ZM89.9308 6.75195L88.6476 2.80859L87.3644 6.75195H89.9308Z" fill="#E0E0E0"/>
<path d="M99.1933 9.64648H98.1738L95.9414 6.37109H94.7519V9.64648H93.9492V2H96.4687C97.3086 2 97.959 2.18359 98.4199 2.55078C98.8808 2.91406 99.1113 3.45898 99.1113 4.18555C99.1113 4.50586 99.0547 4.79492 98.9414 5.05273C98.8281 5.30664 98.6738 5.52344 98.4785 5.70312C98.2832 5.88281 98.0488 6.02734 97.7754 6.13672C97.5058 6.24609 97.2109 6.3125 96.8906 6.33594L99.1933 9.64648ZM98.2793 4.18555C98.2793 3.66602 98.1172 3.28711 97.7929 3.04883C97.4726 2.80664 97.0312 2.68555 96.4687 2.68555H94.7519V5.68555H96.4687C97.0312 5.68555 97.4726 5.56836 97.7929 5.33398C98.1172 5.0957 98.2793 4.71289 98.2793 4.18555Z" fill="#E0E0E0"/>
<path d="M106.874 4.58398H106.188V2.68555H104.548V8.96094H105.778V9.64648H102.503V8.96094H103.739V2.68555H102.098V4.58398H101.413V2H106.874V4.58398Z" fill="#E0E0E0"/>
<path d="M114.589 9.64648H113.605L111.062 5.90234L110.253 6.80469V9.64648H109.451V2H110.253V5.7207L113.529 2H114.589L111.589 5.33984L114.589 9.64648Z" fill="#E0E0E0"/>
<path d="M122.745 9.64648H121.883L121.162 7.46094H118.139L117.43 9.64648H116.569L119.112 2H120.202L122.745 9.64648ZM120.934 6.75195L119.651 2.80859L118.368 6.75195H120.934Z" fill="#E0E0E0"/>
<path d="M130.126 4.58398H129.441V2.68555H127.8V8.96094H129.03V9.64648H125.755V8.96094H126.991V2.68555H125.351V4.58398H124.665V2H130.126V4.58398Z" fill="#E0E0E0"/>
<path d="M137.842 9.64648H136.857L134.314 5.90234L133.506 6.80469V9.64648H132.703V2H133.506V5.7207L136.781 2H137.842L134.842 5.33984L137.842 9.64648Z" fill="#E0E0E0"/>
<path d="M145.997 9.64648H145.136L144.415 7.46094H141.391L140.682 9.64648H139.821L142.364 2H143.454L145.997 9.64648ZM144.186 6.75195L142.903 2.80859L141.62 6.75195H144.186Z" fill="#E0E0E0"/>
<path d="M153.449 9.64648H152.429L150.197 6.37109H149.007V9.64648H148.205V2H150.724C151.564 2 152.214 2.18359 152.675 2.55078C153.136 2.91406 153.367 3.45898 153.367 4.18555C153.367 4.50586 153.31 4.79492 153.197 5.05273C153.084 5.30664 152.929 5.52344 152.734 5.70312C152.539 5.88281 152.304 6.02734 152.031 6.13672C151.761 6.24609 151.466 6.3125 151.146 6.33594L153.449 9.64648ZM152.535 4.18555C152.535 3.66602 152.373 3.28711 152.048 3.04883C151.728 2.80664 151.287 2.68555 150.724 2.68555H149.007V5.68555H150.724C151.287 5.68555 151.728 5.56836 152.048 5.33398C152.373 5.0957 152.535 4.71289 152.535 4.18555Z" fill="#E0E0E0"/>
<path d="M161.129 4.58398H160.444V2.68555H158.803V8.96094H160.034V9.64648H156.758V8.96094H157.995V2.68555H156.354V4.58398H155.668V2H161.129V4.58398Z" fill="#E0E0E0"/>
<path d="M168.845 9.64648H167.861L165.318 5.90234L164.509 6.80469V9.64648H163.706V2H164.509V5.7207L167.784 2H168.845L165.845 5.33984L168.845 9.64648Z" fill="#E0E0E0"/>
<path d="M177 9.64648H176.139L175.418 7.46094H172.395L171.686 9.64648H170.824L173.367 2H174.457L177 9.64648ZM175.189 6.75195L173.906 2.80859L172.623 6.75195H175.189Z" fill="#E0E0E0"/>
<path d="M184.382 4.58398H183.696V2.68555H182.055V8.96094H183.286V9.64648H180.011V8.96094H181.247V2.68555H179.606V4.58398H178.921V2H184.382V4.58398Z" fill="#E0E0E0"/>
<path d="M192.097 9.64648H191.113L188.57 5.90234L187.761 6.80469V9.64648H186.959V2H187.761V5.7207L191.037 2H192.097L189.097 5.33984L192.097 9.64648Z" fill="#E0E0E0"/>
<path d="M200.252 9.64648H199.391L198.67 7.46094H195.647L194.938 9.64648H194.077L196.62 2H197.709L200.252 9.64648ZM198.442 6.75195L197.159 2.80859L195.875 6.75195H198.442Z" fill="#E0E0E0"/>
<path d="M207.704 9.64648H206.685L204.452 6.37109H203.263V9.64648H202.46V2H204.98C205.82 2 206.47 2.18359 206.931 2.55078C207.392 2.91406 207.622 3.45898 207.622 4.18555C207.622 4.50586 207.566 4.79492 207.452 5.05273C207.339 5.30664 207.185 5.52344 206.989 5.70312C206.794 5.88281 206.56 6.02734 206.286 6.13672C206.017 6.24609 205.722 6.3125 205.402 6.33594L207.704 9.64648ZM206.79 4.18555C206.79 3.66602 206.628 3.28711 206.304 3.04883C205.984 2.80664 205.542 2.68555 204.98 2.68555H203.263V5.68555H204.98C205.542 5.68555 205.984 5.56836 206.304 5.33398C206.628 5.0957 206.79 4.71289 206.79 4.18555Z" fill="#E0E0E0"/>
<path d="M215.385 4.58398H214.699V2.68555H213.059V8.96094H214.289V9.64648H211.014V8.96094H212.25V2.68555H210.609V4.58398H209.924V2H215.385V4.58398Z" fill="#E0E0E0"/>
<path d="M223.1 9.64648H222.116L219.573 5.90234L218.764 6.80469V9.64648H217.962V2H218.764V5.7207L222.04 2H223.1L220.1 5.33984L223.1 9.64648Z" fill="#E0E0E0"/>
<path d="M231.255 9.64648H230.394L229.673 7.46094H226.65L225.941 9.64648H225.08L227.623 2H228.712L231.255 9.64648ZM229.445 6.75195L228.162 2.80859L226.878 6.75195H229.445Z" fill="#E0E0E0"/>
<path d="M238.637 4.58398H237.952V2.68555H236.311V8.96094H237.541V9.64648H234.266V8.96094H235.502V2.68555H233.862V4.58398H233.176V2H238.637V4.58398Z" fill="#E0E0E0"/>
<path d="M246.353 9.64648H245.368L242.825 5.90234L242.017 6.80469V9.64648H241.214V2H242.017V5.7207L245.292 2H246.353L243.353 5.33984L246.353 9.64648Z" fill="#E0E0E0"/>
<path d="M254.508 9.64648H253.646L252.926 7.46094H249.902L249.193 9.64648H248.332L250.875 2H251.965L254.508 9.64648ZM252.697 6.75195L251.414 2.80859L250.131 6.75195H252.697Z" fill="#E0E0E0"/>
<path d="M261.96 9.64648H260.94L258.708 6.37109H257.518V9.64648H256.716V2H259.235C260.075 2 260.725 2.18359 261.186 2.55078C261.647 2.91406 261.878 3.45898 261.878 4.18555C261.878 4.50586 261.821 4.79492 261.708 5.05273C261.595 5.30664 261.44 5.52344 261.245 5.70312C261.05 5.88281 260.815 6.02734 260.542 6.13672C260.272 6.24609 259.977 6.3125 259.657 6.33594L261.96 9.64648ZM261.046 4.18555C261.046 3.66602 260.884 3.28711 260.559 3.04883C260.239 2.80664 259.798 2.68555 259.235 2.68555H257.518V5.68555H259.235C259.798 5.68555 260.239 5.56836 260.559 5.33398C260.884 5.0957 261.046 4.71289 261.046 4.18555Z" fill="#E0E0E0"/>
<path d="M269.64 4.58398H268.955V2.68555H267.314V8.96094H268.544V9.64648H265.269V8.96094H266.505V2.68555H264.865V4.58398H264.179V2H269.64V4.58398Z" fill="#E0E0E0"/>
<path d="M277.356 9.64648H276.371L273.828 5.90234L273.02 6.80469V9.64648H272.217V2H273.02V5.7207L276.295 2H277.356L274.356 5.33984L277.356 9.64648Z" fill="#E0E0E0"/>
<path d="M285.511 9.64648H284.65L283.929 7.46094H280.905L280.196 9.64648H279.335L281.878 2H282.968L285.511 9.64648ZM283.7 6.75195L282.417 2.80859L281.134 6.75195H283.7Z" fill="#E0E0E0"/>
<path d="M292.893 4.58398H292.207V2.68555H290.566V8.96094H291.797V9.64648H288.521V8.96094H289.758V2.68555H288.117V4.58398H287.432V2H292.893V4.58398Z" fill="#E0E0E0"/>
<path d="M300.608 9.64648H299.624L297.081 5.90234L296.272 6.80469V9.64648H295.47V2H296.272V5.7207L299.548 2H300.608L297.608 5.33984L300.608 9.64648Z" fill="#E0E0E0"/>
<path d="M308.763 9.64648H307.902L307.181 7.46094H304.158L303.449 9.64648H302.587L305.13 2H306.22L308.763 9.64648ZM306.953 6.75195L305.669 2.80859L304.386 6.75195H306.953Z" fill="#E0E0E0"/>
<path d="M316.215 9.64648H315.196L312.963 6.37109H311.774V9.64648H310.971V2H313.491C314.33 2 314.981 2.18359 315.442 2.55078C315.903 2.91406 316.133 3.45898 316.133 4.18555C316.133 4.50586 316.077 4.79492 315.963 5.05273C315.85 5.30664 315.696 5.52344 315.5 5.70312C315.305 5.88281 315.071 6.02734 314.797 6.13672C314.528 6.24609 314.233 6.3125 313.912 6.33594L316.215 9.64648ZM315.301 4.18555C315.301 3.66602 315.139 3.28711 314.815 3.04883C314.495 2.80664 314.053 2.68555 313.491 2.68555H311.774V5.68555H313.491C314.053 5.68555 314.495 5.56836 314.815 5.33398C315.139 5.0957 315.301 4.71289 315.301 4.18555Z" fill="#E0E0E0"/>
<path d="M323.896 4.58398H323.21V2.68555H321.57V8.96094H322.8V9.64648H319.525V8.96094H320.761V2.68555H319.12V4.58398H318.435V2H323.896V4.58398Z" fill="#E0E0E0"/>
<path d="M331.611 9.64648H330.627L328.084 5.90234L327.275 6.80469V9.64648H326.473V2H327.275V5.7207L330.551 2H331.611L328.611 5.33984L331.611 9.64648Z" fill="#E0E0E0"/>
<path d="M339.766 9.64648H338.905L338.184 7.46094H335.161L334.452 9.64648H333.591L336.134 2H337.223L339.766 9.64648ZM337.956 6.75195L336.673 2.80859L335.389 6.75195H337.956Z" fill="#E0E0E0"/>
<path d="M347.148 4.58398H346.462V2.68555H344.822V8.96094H346.052V9.64648H342.777V8.96094H344.013V2.68555H342.373V4.58398H341.687V2H347.148V4.58398Z" fill="#E0E0E0"/>
<path d="M354.864 9.64648H353.879L351.336 5.90234L350.528 6.80469V9.64648H349.725V2H350.528V5.7207L353.803 2H354.864L351.864 5.33984L354.864 9.64648Z" fill="#E0E0E0"/>
<path d="M363.019 9.64648H362.157L361.437 7.46094H358.413L357.704 9.64648H356.843L359.386 2H360.476L363.019 9.64648ZM361.208 6.75195L359.925 2.80859L358.642 6.75195H361.208Z" fill="#E0E0E0"/>
<path d="M370.471 9.64648H369.451L367.219 6.37109H366.029V9.64648H365.227V2H367.746C368.586 2 369.236 2.18359 369.697 2.55078C370.158 2.91406 370.389 3.45898 370.389 4.18555C370.389 4.50586 370.332 4.79492 370.219 5.05273C370.105 5.30664 369.951 5.52344 369.756 5.70312C369.561 5.88281 369.326 6.02734 369.053 6.13672C368.783 6.24609 368.488 6.3125 368.168 6.33594L370.471 9.64648ZM369.557 4.18555C369.557 3.66602 369.395 3.28711 369.07 3.04883C368.75 2.80664 368.309 2.68555 367.746 2.68555H366.029V5.68555H367.746C368.309 5.68555 368.75 5.56836 369.07 5.33398C369.395 5.0957 369.557 4.71289 369.557 4.18555Z" fill="#E0E0E0"/>
<path d="M378.151 4.58398H377.466V2.68555H375.825V8.96094H377.055V9.64648H373.78V8.96094H375.016V2.68555H373.376V4.58398H372.69V2H378.151V4.58398Z" fill="#E0E0E0"/>
<path d="M385.867 9.64648H384.882L382.339 5.90234L381.531 6.80469V9.64648H380.728V2H381.531V5.7207L384.806 2H385.867L382.867 5.33984L385.867 9.64648Z" fill="#E0E0E0"/>
<path d="M394.022 9.64648H393.161L392.44 7.46094H389.416L388.707 9.64648H387.846L390.389 2H391.479L394.022 9.64648ZM392.211 6.75195L390.928 2.80859L389.645 6.75195H392.211Z" fill="#E0E0E0"/>
<path d="M401.404 4.58398H400.718V2.68555H399.077V8.96094H400.308V9.64648H397.032V8.96094H398.269V2.68555H396.628V4.58398H395.943V2H401.404V4.58398Z" fill="#E0E0E0"/>
<path d="M409.119 9.64648H408.135L405.592 5.90234L404.783 6.80469V9.64648H403.98V2H404.783V5.7207L408.059 2H409.119L406.119 5.33984L409.119 9.64648Z" fill="#E0E0E0"/>
<path d="M417.274 9.64648H416.413L415.692 7.46094H412.669L411.96 9.64648H411.098L413.641 2H414.731L417.274 9.64648ZM415.464 6.75195L414.18 2.80859L412.897 6.75195H415.464Z" fill="#E0E0E0"/>
<path d="M424.726 9.64648H423.707L421.474 6.37109H420.285V9.64648H419.482V2H422.002C422.841 2 423.492 2.18359 423.953 2.55078C424.414 2.91406 424.644 3.45898 424.644 4.18555C424.644 4.50586 424.587 4.79492 424.474 5.05273C424.361 5.30664 424.207 5.52344 424.011 5.70312C423.816 5.88281 423.582 6.02734 423.308 6.13672C423.039 6.24609 422.744 6.3125 422.423 6.33594L424.726 9.64648ZM423.812 4.18555C423.812 3.66602 423.65 3.28711 423.326 3.04883C423.005 2.80664 422.564 2.68555 422.002 2.68555H420.285V5.68555H422.002C422.564 5.68555 423.005 5.56836 423.326 5.33398C423.65 5.0957 423.812 4.71289 423.812 4.18555Z" fill="#E0E0E0"/>
<path d="M432.407 4.58398H431.721V2.68555H430.08V8.96094H431.311V9.64648H428.036V8.96094H429.272V2.68555H427.631V4.58398H426.946V2H432.407V4.58398Z" fill="#E0E0E0"/>
<path d="M440.122 9.64648H439.138L436.595 5.90234L435.786 6.80469V9.64648H434.984V2H435.786V5.7207L439.062 2H440.122L437.122 5.33984L440.122 9.64648Z" fill="#E0E0E0"/>
<path d="M448.277 9.64648H447.416L446.695 7.46094H443.672L442.963 9.64648H442.102L444.645 2H445.734L448.277 9.64648ZM446.467 6.75195L445.184 2.80859L443.9 6.75195H446.467Z" fill="#E0E0E0"/>
<path d="M455.659 4.58398H454.973V2.68555H453.333V8.96094H454.563V9.64648H451.288V8.96094H452.524V2.68555H450.884V4.58398H450.198V2H455.659V4.58398Z" fill="#E0E0E0"/>
<path d="M463.375 9.64648H462.39L459.847 5.90234L459.039 6.80469V9.64648H458.236V2H459.039V5.7207L462.314 2H463.375L460.375 5.33984L463.375 9.64648Z" fill="#E0E0E0"/>
<path d="M471.53 9.64648H470.668L469.948 7.46094H466.924L466.215 9.64648H465.354L467.897 2H468.987L471.53 9.64648ZM469.719 6.75195L468.436 2.80859L467.153 6.75195H469.719Z" fill="#E0E0E0"/>
<path d="M478.982 9.64648H477.962L475.73 6.37109H474.54V9.64648H473.737V2H476.257C477.097 2 477.747 2.18359 478.208 2.55078C478.669 2.91406 478.9 3.45898 478.9 4.18555C478.9 4.50586 478.843 4.79492 478.73 5.05273C478.616 5.30664 478.462 5.52344 478.267 5.70312C478.071 5.88281 477.837 6.02734 477.564 6.13672C477.294 6.24609 476.999 6.3125 476.679 6.33594L478.982 9.64648ZM478.068 4.18555C478.068 3.66602 477.905 3.28711 477.581 3.04883C477.261 2.80664 476.82 2.68555 476.257 2.68555H474.54V5.68555H476.257C476.82 5.68555 477.261 5.56836 477.581 5.33398C477.905 5.0957 478.068 4.71289 478.068 4.18555Z" fill="#E0E0E0"/>
<path d="M486.662 4.58398H485.977V2.68555H484.336V8.96094H485.566V9.64648H482.291V8.96094H483.527V2.68555H481.887V4.58398H481.201V2H486.662V4.58398Z" fill="#E0E0E0"/>
<path d="M494.378 9.64648H493.393L490.85 5.90234L490.042 6.80469V9.64648H489.239V2H490.042V5.7207L493.317 2H494.378L491.378 5.33984L494.378 9.64648Z" fill="#E0E0E0"/>
<path d="M502.533 9.64648H501.671L500.951 7.46094H497.927L497.218 9.64648H496.357L498.9 2H499.99L502.533 9.64648ZM500.722 6.75195L499.439 2.80859L498.156 6.75195H500.722Z" fill="#E0E0E0"/>
<path d="M509.914 4.58398H509.229V2.68555H507.588V8.96094H508.819V9.64648H505.543V8.96094H506.78V2.68555H505.139V4.58398H504.453V2H509.914V4.58398Z" fill="#E0E0E0"/>
<path d="M517.63 9.64648H516.646L514.103 5.90234L513.294 6.80469V9.64648H512.491V2H513.294V5.7207L516.57 2H517.63L514.63 5.33984L517.63 9.64648Z" fill="#E0E0E0"/>
<path d="M525.785 9.64648H524.924L524.203 7.46094H521.18L520.471 9.64648H519.609L522.152 2H523.242L525.785 9.64648ZM523.975 6.75195L522.691 2.80859L521.408 6.75195H523.975Z" fill="#E0E0E0"/>
<path d="M533.237 9.64648H532.218L529.985 6.37109H528.796V9.64648H527.993V2H530.512C531.352 2 532.003 2.18359 532.464 2.55078C532.925 2.91406 533.155 3.45898 533.155 4.18555C533.155 4.50586 533.098 4.79492 532.985 5.05273C532.872 5.30664 532.718 5.52344 532.522 5.70312C532.327 5.88281 532.093 6.02734 531.819 6.13672C531.55 6.24609 531.255 6.3125 530.934 6.33594L533.237 9.64648ZM532.323 4.18555C532.323 3.66602 532.161 3.28711 531.837 3.04883C531.516 2.80664 531.075 2.68555 530.512 2.68555H528.796V5.68555H530.512C531.075 5.68555 531.516 5.56836 531.837 5.33398C532.161 5.0957 532.323 4.71289 532.323 4.18555Z" fill="#E0E0E0"/>
<path d="M540.918 4.58398H540.232V2.68555H538.591V8.96094H539.822V9.64648H536.546V8.96094H537.783V2.68555H536.142V4.58398H535.457V2H540.918V4.58398Z" fill="#E0E0E0"/>
<path d="M548.633 9.64648H547.649L545.106 5.90234L544.297 6.80469V9.64648H543.495V2H544.297V5.7207L547.573 2H548.633L545.633 5.33984L548.633 9.64648Z" fill="#E0E0E0"/>
<path d="M556.788 9.64648H555.927L555.206 7.46094H552.183L551.474 9.64648H550.612L553.155 2H554.245L556.788 9.64648ZM554.978 6.75195L553.695 2.80859L552.411 6.75195H554.978Z" fill="#E0E0E0"/>
<path d="M564.17 4.58398H563.484V2.68555H561.844V8.96094H563.074V9.64648H559.799V8.96094H561.035V2.68555H559.395V4.58398H558.709V2H564.17V4.58398Z" fill="#E0E0E0"/>
<path d="M571.885 9.64648H570.901L568.358 5.90234L567.55 6.80469V9.64648H566.747V2H567.55V5.7207L570.825 2H571.885L568.885 5.33984L571.885 9.64648Z" fill="#E0E0E0"/>
<path d="M580.041 9.64648H579.179L578.459 7.46094H575.435L574.726 9.64648H573.865L576.408 2H577.498L580.041 9.64648ZM578.23 6.75195L576.947 2.80859L575.664 6.75195H578.23Z" fill="#E0E0E0"/>
<path d="M587.493 9.64648H586.473L584.241 6.37109H583.051V9.64648H582.248V2H584.768C585.608 2 586.258 2.18359 586.719 2.55078C587.18 2.91406 587.411 3.45898 587.411 4.18555C587.411 4.50586 587.354 4.79492 587.241 5.05273C587.127 5.30664 586.973 5.52344 586.778 5.70312C586.582 5.88281 586.348 6.02734 586.075 6.13672C585.805 6.24609 585.51 6.3125 585.19 6.33594L587.493 9.64648ZM586.578 4.18555C586.578 3.66602 586.416 3.28711 586.092 3.04883C585.772 2.80664 585.33 2.68555 584.768 2.68555H583.051V5.68555H584.768C585.33 5.68555 585.772 5.56836 586.092 5.33398C586.416 5.0957 586.578 4.71289 586.578 4.18555Z" fill="#E0E0E0"/>
<path d="M595.173 4.58398H594.487V2.68555H592.847V8.96094H594.077V9.64648H590.802V8.96094H592.038V2.68555H590.398V4.58398H589.712V2H595.173V4.58398Z" fill="#E0E0E0"/>
<path d="M602.889 9.64648H601.904L599.361 5.90234L598.553 6.80469V9.64648H597.75V2H598.553V5.7207L601.828 2H602.889L599.889 5.33984L602.889 9.64648Z" fill="#E0E0E0"/>
<path d="M611.044 9.64648H610.182L609.462 7.46094H606.438L605.729 9.64648H604.868L607.411 2H608.501L611.044 9.64648ZM609.233 6.75195L607.95 2.80859L606.667 6.75195H609.233Z" fill="#E0E0E0"/>
<path d="M618.425 4.58398H617.74V2.68555H616.099V8.96094H617.33V9.64648H614.054V8.96094H615.291V2.68555H613.65V4.58398H612.964V2H618.425V4.58398Z" fill="#E0E0E0"/>
<path d="M626.141 9.64648H625.157L622.614 5.90234L621.805 6.80469V9.64648H621.002V2H621.805V5.7207L625.08 2H626.141L623.141 5.33984L626.141 9.64648Z" fill="#E0E0E0"/>
<path d="M634.296 9.64648H633.435L632.714 7.46094H629.691L628.982 9.64648H628.12L630.663 2H631.753L634.296 9.64648ZM632.486 6.75195L631.202 2.80859L629.919 6.75195H632.486Z" fill="#E0E0E0"/>
<path d="M641.748 9.64648H640.729L638.496 6.37109H637.307V9.64648H636.504V2H639.023C639.863 2 640.514 2.18359 640.975 2.55078C641.436 2.91406 641.666 3.45898 641.666 4.18555C641.666 4.50586 641.609 4.79492 641.496 5.05273C641.383 5.30664 641.229 5.52344 641.033 5.70312C640.838 5.88281 640.604 6.02734 640.33 6.13672C640.061 6.24609 639.766 6.3125 639.445 6.33594L641.748 9.64648ZM640.834 4.18555C640.834 3.66602 640.672 3.28711 640.348 3.04883C640.027 2.80664 639.586 2.68555 639.023 2.68555H637.307V5.68555H639.023C639.586 5.68555 640.027 5.56836 640.348 5.33398C640.672 5.0957 640.834 4.71289 640.834 4.18555Z" fill="#E0E0E0"/>
<path d="M649.428 4.58398H648.743V2.68555H647.102V8.96094H648.333V9.64648H645.057V8.96094H646.294V2.68555H644.653V4.58398H643.968V2H649.428V4.58398Z" fill="#E0E0E0"/>
<path d="M657.144 9.64648H656.16L653.617 5.90234L652.808 6.80469V9.64648H652.005V2H652.808V5.7207L656.084 2H657.144L654.144 5.33984L657.144 9.64648Z" fill="#E0E0E0"/>
<path d="M665.299 9.64648H664.438L663.717 7.46094H660.694L659.985 9.64648H659.123L661.666 2H662.756L665.299 9.64648ZM663.489 6.75195L662.205 2.80859L660.922 6.75195H663.489Z" fill="#E0E0E0"/>
<path d="M672.681 4.58398H671.995V2.68555H670.355V8.96094H671.585V9.64648H668.31V8.96094H669.546V2.68555H667.905V4.58398H667.22V2H672.681V4.58398Z" fill="#E0E0E0"/>
<path d="M680.396 9.64648H679.412L676.869 5.90234L676.061 6.80469V9.64648H675.258V2H676.061V5.7207L679.336 2H680.396L677.396 5.33984L680.396 9.64648Z" fill="#E0E0E0"/>
<path d="M688.552 9.64648H687.69L686.969 7.46094H683.946L683.237 9.64648H682.376L684.919 2H686.009L688.552 9.64648ZM686.741 6.75195L685.458 2.80859L684.175 6.75195H686.741Z" fill="#E0E0E0"/>
<path d="M696.003 9.64648H694.984L692.752 6.37109H691.562V9.64648H690.759V2H693.279C694.119 2 694.769 2.18359 695.23 2.55078C695.691 2.91406 695.921 3.45898 695.921 4.18555C695.921 4.50586 695.865 4.79492 695.752 5.05273C695.638 5.30664 695.484 5.52344 695.289 5.70312C695.093 5.88281 694.859 6.02734 694.586 6.13672C694.316 6.24609 694.021 6.3125 693.701 6.33594L696.003 9.64648ZM695.089 4.18555C695.089 3.66602 694.927 3.28711 694.603 3.04883C694.283 2.80664 693.841 2.68555 693.279 2.68555H691.562V5.68555H693.279C693.841 5.68555 694.283 5.56836 694.603 5.33398C694.927 5.0957 695.089 4.71289 695.089 4.18555Z" fill="#E0E0E0"/>
<path d="M703.684 4.58398H702.998V2.68555H701.358V8.96094H702.588V9.64648H699.313V8.96094H700.549V2.68555H698.909V4.58398H698.223V2H703.684V4.58398Z" fill="#E0E0E0"/>
<path d="M711.4 9.64648H710.415L707.872 5.90234L707.064 6.80469V9.64648H706.261V2H707.064V5.7207L710.339 2H711.4L708.4 5.33984L711.4 9.64648Z" fill="#E0E0E0"/>
<path d="M719.555 9.64648H718.693L717.973 7.46094H714.949L714.24 9.64648H713.379L715.922 2H717.012L719.555 9.64648ZM717.744 6.75195L716.461 2.80859L715.178 6.75195H717.744Z" fill="#E0E0E0"/>
<path d="M726.936 4.58398H726.251V2.68555H724.61V8.96094H725.841V9.64648H722.565V8.96094H723.802V2.68555H722.161V4.58398H721.475V2H726.936V4.58398Z" fill="#E0E0E0"/>
<path d="M734.652 9.64648H733.668L731.125 5.90234L730.316 6.80469V9.64648H729.513V2H730.316V5.7207L733.591 2H734.652L731.652 5.33984L734.652 9.64648Z" fill="#E0E0E0"/>
<path d="M742.807 9.64648H741.946L741.225 7.46094H738.202L737.493 9.64648H736.631L739.174 2H740.264L742.807 9.64648ZM740.996 6.75195L739.713 2.80859L738.43 6.75195H740.996Z" fill="#E0E0E0"/>
<path d="M750.259 9.64648H749.239L747.007 6.37109H745.818V9.64648H745.015V2H747.534C748.374 2 749.025 2.18359 749.486 2.55078C749.946 2.91406 750.177 3.45898 750.177 4.18555C750.177 4.50586 750.12 4.79492 750.007 5.05273C749.894 5.30664 749.739 5.52344 749.544 5.70312C749.349 5.88281 749.114 6.02734 748.841 6.13672C748.571 6.24609 748.277 6.3125 747.956 6.33594L750.259 9.64648ZM749.345 4.18555C749.345 3.66602 749.183 3.28711 748.859 3.04883C748.538 2.80664 748.097 2.68555 747.534 2.68555H745.818V5.68555H747.534C748.097 5.68555 748.538 5.56836 748.859 5.33398C749.183 5.0957 749.345 4.71289 749.345 4.18555Z" fill="#E0E0E0"/>
<path d="M757.939 4.58398H757.254V2.68555H755.613V8.96094H756.844V9.64648H753.568V8.96094H754.805V2.68555H753.164V4.58398H752.479V2H757.939V4.58398Z" fill="#E0E0E0"/>
<path d="M765.655 9.64648H764.671L762.128 5.90234L761.319 6.80469V9.64648H760.516V2H761.319V5.7207L764.594 2H765.655L762.655 5.33984L765.655 9.64648Z" fill="#E0E0E0"/>
<path d="M773.81 9.64648H772.949L772.228 7.46094H769.205L768.496 9.64648H767.634L770.177 2H771.267L773.81 9.64648ZM772 6.75195L770.716 2.80859L769.433 6.75195H772Z" fill="#E0E0E0"/>
<path d="M781.192 4.58398H780.506V2.68555H778.866V8.96094H780.096V9.64648H776.821V8.96094H778.057V2.68555H776.416V4.58398H775.731V2H781.192V4.58398Z" fill="#E0E0E0"/>
<path d="M788.907 9.64648H787.923L785.38 5.90234L784.571 6.80469V9.64648H783.769V2H784.571V5.7207L787.847 2H788.907L785.907 5.33984L788.907 9.64648Z" fill="#E0E0E0"/>
<path d="M797.062 9.64648H796.201L795.48 7.46094H792.457L791.748 9.64648H790.887L793.43 2H794.52L797.062 9.64648ZM795.252 6.75195L793.969 2.80859L792.686 6.75195H795.252Z" fill="#E0E0E0"/>
<path d="M804.514 9.64648H803.495L801.262 6.37109H800.073V9.64648H799.27V2H801.79C802.63 2 803.28 2.18359 803.741 2.55078C804.202 2.91406 804.432 3.45898 804.432 4.18555C804.432 4.50586 804.376 4.79492 804.262 5.05273C804.149 5.30664 803.995 5.52344 803.8 5.70312C803.604 5.88281 803.37 6.02734 803.096 6.13672C802.827 6.24609 802.532 6.3125 802.212 6.33594L804.514 9.64648ZM803.6 4.18555C803.6 3.66602 803.438 3.28711 803.114 3.04883C802.794 2.80664 802.352 2.68555 801.79 2.68555H800.073V5.68555H801.79C802.352 5.68555 802.794 5.56836 803.114 5.33398C803.438 5.0957 803.6 4.71289 803.6 4.18555Z" fill="#E0E0E0"/>
<path d="M812.195 4.58398H811.509V2.68555H809.869V8.96094H811.099V9.64648H807.824V8.96094H809.06V2.68555H807.419V4.58398H806.734V2H812.195V4.58398Z" fill="#E0E0E0"/>
<path d="M819.911 9.64648H818.926L816.383 5.90234L815.575 6.80469V9.64648H814.772V2H815.575V5.7207L818.85 2H819.911L816.911 5.33984L819.911 9.64648Z" fill="#E0E0E0"/>
<path d="M828.066 9.64648H827.204L826.484 7.46094H823.46L822.751 9.64648H821.89L824.433 2H825.523L828.066 9.64648ZM826.255 6.75195L824.972 2.80859L823.689 6.75195H826.255Z" fill="#E0E0E0"/>
<path d="M835.447 4.58398H834.762V2.68555H833.121V8.96094H834.352V9.64648H831.076V8.96094H832.312V2.68555H830.672V4.58398H829.986V2H835.447V4.58398Z" fill="#E0E0E0"/>
<path d="M843.163 9.64648H842.178L839.635 5.90234L838.827 6.80469V9.64648H838.024V2H838.827V5.7207L842.102 2H843.163L840.163 5.33984L843.163 9.64648Z" fill="#E0E0E0"/>
<path d="M851.318 9.64648H850.457L849.736 7.46094H846.712L846.003 9.64648H845.142L847.685 2H848.775L851.318 9.64648ZM849.507 6.75195L848.224 2.80859L846.941 6.75195H849.507Z" fill="#E0E0E0"/>
<path d="M858.77 9.64648H857.75L855.518 6.37109H854.328V9.64648H853.526V2H856.045C856.885 2 857.536 2.18359 857.996 2.55078C858.457 2.91406 858.688 3.45898 858.688 4.18555C858.688 4.50586 858.631 4.79492 858.518 5.05273C858.405 5.30664 858.25 5.52344 858.055 5.70312C857.86 5.88281 857.625 6.02734 857.352 6.13672C857.082 6.24609 856.787 6.3125 856.467 6.33594L858.77 9.64648ZM857.856 4.18555C857.856 3.66602 857.694 3.28711 857.37 3.04883C857.049 2.80664 856.608 2.68555 856.045 2.68555H854.328V5.68555H856.045C856.608 5.68555 857.049 5.56836 857.37 5.33398C857.694 5.0957 857.856 4.71289 857.856 4.18555Z" fill="#E0E0E0"/>
<path d="M866.45 4.58398H865.765V2.68555H864.124V8.96094H865.355V9.64648H862.079V8.96094H863.316V2.68555H861.675V4.58398H860.989V2H866.45V4.58398Z" fill="#E0E0E0"/>
<path d="M874.166 9.64648H873.182L870.639 5.90234L869.83 6.80469V9.64648H869.027V2H869.83V5.7207L873.105 2H874.166L871.166 5.33984L874.166 9.64648Z" fill="#E0E0E0"/>
<path d="M882.321 9.64648H881.46L880.739 7.46094H877.716L877.007 9.64648H876.145L878.688 2H879.778L882.321 9.64648ZM880.51 6.75195L879.227 2.80859L877.944 6.75195H880.51Z" fill="#E0E0E0"/>
<path d="M889.703 4.58398H889.017V2.68555H887.377V8.96094H888.607V9.64648H885.332V8.96094H886.568V2.68555H884.927V4.58398H884.242V2H889.703V4.58398Z" fill="#E0E0E0"/>
<path d="M897.418 9.64648H896.434L893.891 5.90234L893.082 6.80469V9.64648H892.28V2H893.082V5.7207L896.358 2H897.418L894.418 5.33984L897.418 9.64648Z" fill="#E0E0E0"/>
<path d="M905.573 9.64648H904.712L903.991 7.46094H900.968L900.259 9.64648H899.398L901.941 2H903.03L905.573 9.64648ZM903.763 6.75195L902.48 2.80859L901.196 6.75195H903.763Z" fill="#E0E0E0"/>
<path d="M913.025 9.64648H912.006L909.773 6.37109H908.584V9.64648H907.781V2H910.301C911.141 2 911.791 2.18359 912.252 2.55078C912.713 2.91406 912.943 3.45898 912.943 4.18555C912.943 4.50586 912.887 4.79492 912.773 5.05273C912.66 5.30664 912.506 5.52344 912.311 5.70312C912.115 5.88281 911.881 6.02734 911.607 6.13672C911.338 6.24609 911.043 6.3125 910.723 6.33594L913.025 9.64648ZM912.111 4.18555C912.111 3.66602 911.949 3.28711 911.625 3.04883C911.305 2.80664 910.863 2.68555 910.301 2.68555H908.584V5.68555H910.301C910.863 5.68555 911.305 5.56836 911.625 5.33398C911.949 5.0957 912.111 4.71289 912.111 4.18555Z" fill="#E0E0E0"/>
<path d="M920.706 4.58398H920.02V2.68555H918.38V8.96094H919.61V9.64648H916.335V8.96094H917.571V2.68555H915.93V4.58398H915.245V2H920.706V4.58398Z" fill="#E0E0E0"/>
<path d="M928.421 9.64648H927.437L924.894 5.90234L924.086 6.80469V9.64648H923.283V2H924.086V5.7207L927.361 2H928.421L925.421 5.33984L928.421 9.64648Z" fill="#E0E0E0"/>
<path d="M936.577 9.64648H935.715L934.995 7.46094H931.971L931.262 9.64648H930.401L932.944 2H934.034L936.577 9.64648ZM934.766 6.75195L933.483 2.80859L932.2 6.75195H934.766Z" fill="#E0E0E0"/>
<path d="M943.958 4.58398H943.273V2.68555H941.632V8.96094H942.862V9.64648H939.587V8.96094H940.823V2.68555H939.183V4.58398H938.497V2H943.958V4.58398Z" fill="#E0E0E0"/>
<path d="M951.674 9.64648H950.689L948.146 5.90234L947.338 6.80469V9.64648H946.535V2H947.338V5.7207L950.613 2H951.674L948.674 5.33984L951.674 9.64648Z" fill="#E0E0E0"/>
<path d="M959.829 9.64648H958.968L958.247 7.46094H955.223L954.514 9.64648H953.653L956.196 2H957.286L959.829 9.64648ZM958.018 6.75195L956.735 2.80859L955.452 6.75195H958.018Z" fill="#E0E0E0"/>
<path d="M967.281 9.64648H966.261L964.029 6.37109H962.839V9.64648H962.037V2H964.556C965.396 2 966.046 2.18359 966.507 2.55078C966.968 2.91406 967.199 3.45898 967.199 4.18555C967.199 4.50586 967.142 4.79492 967.029 5.05273C966.916 5.30664 966.761 5.52344 966.566 5.70312C966.371 5.88281 966.136 6.02734 965.863 6.13672C965.593 6.24609 965.298 6.3125 964.978 6.33594L967.281 9.64648ZM966.367 4.18555C966.367 3.66602 966.205 3.28711 965.88 3.04883C965.56 2.80664 965.119 2.68555 964.556 2.68555H962.839V5.68555H964.556C965.119 5.68555 965.56 5.56836 965.88 5.33398C966.205 5.0957 966.367 4.71289 966.367 4.18555Z" fill="#E0E0E0"/>
<path d="M974.961 4.58398H974.276V2.68555H972.635V8.96094H973.866V9.64648H970.59V8.96094H971.827V2.68555H970.186V4.58398H969.5V2H974.961V4.58398Z" fill="#E0E0E0"/>
<path d="M982.677 9.64648H981.693L979.15 5.90234L978.341 6.80469V9.64648H977.538V2H978.341V5.7207L981.616 2H982.677L979.677 5.33984L982.677 9.64648Z" fill="#E0E0E0"/>
<path d="M990.832 9.64648H989.971L989.25 7.46094H986.227L985.518 9.64648H984.656L987.199 2H988.289L990.832 9.64648ZM989.021 6.75195L987.738 2.80859L986.455 6.75195H989.021Z" fill="#E0E0E0"/>
<path d="M998.214 4.58398H997.528V2.68555H995.887V8.96094H997.118V9.64648H993.843V8.96094H995.079V2.68555H993.438V4.58398H992.753V2H998.214V4.58398Z" fill="#E0E0E0"/>
<path d="M1005.93 9.64648H1004.94L1002.4 5.90234L1001.59 6.80469V9.64648H1000.79V2H1001.59V5.7207L1004.87 2H1005.93L1002.93 5.33984L1005.93 9.64648Z" fill="#E0E0E0"/>
<path d="M1014.08 9.64648H1013.22L1012.5 7.46094H1009.48L1008.77 9.64648H1007.91L1010.45 2H1011.54L1014.08 9.64648ZM1012.27 6.75195L1010.99 2.80859L1009.71 6.75195H1012.27Z" fill="#E0E0E0"/>
<path d="M1021.54 9.64648H1020.52L1018.28 6.37109H1017.09V9.64648H1016.29V2H1018.81C1019.65 2 1020.3 2.18359 1020.76 2.55078C1021.22 2.91406 1021.45 3.45898 1021.45 4.18555C1021.45 4.50586 1021.4 4.79492 1021.28 5.05273C1021.17 5.30664 1021.02 5.52344 1020.82 5.70312C1020.63 5.88281 1020.39 6.02734 1020.12 6.13672C1019.85 6.24609 1019.55 6.3125 1019.23 6.33594L1021.54 9.64648ZM1020.62 4.18555C1020.62 3.66602 1020.46 3.28711 1020.14 3.04883C1019.82 2.80664 1019.37 2.68555 1018.81 2.68555H1017.09V5.68555H1018.81C1019.37 5.68555 1019.82 5.56836 1020.14 5.33398C1020.46 5.0957 1020.62 4.71289 1020.62 4.18555Z" fill="#E0E0E0"/>
<path d="M1029.22 4.58398H1028.53V2.68555H1026.89V8.96094H1028.12V9.64648H1024.85V8.96094H1026.08V2.68555H1024.44V4.58398H1023.76V2H1029.22V4.58398Z" fill="#E0E0E0"/>
<path d="M1036.93 9.64648H1035.95L1033.41 5.90234L1032.6 6.80469V9.64648H1031.79V2H1032.6V5.7207L1035.87 2H1036.93L1033.93 5.33984L1036.93 9.64648Z" fill="#E0E0E0"/>
<path d="M1045.09 9.64648H1044.23L1043.51 7.46094H1040.48L1039.77 9.64648H1038.91L1041.45 2H1042.54L1045.09 9.64648ZM1043.28 6.75195L1041.99 2.80859L1040.71 6.75195H1043.28Z" fill="#E0E0E0"/>
<path d="M1052.47 4.58398H1051.78V2.68555H1050.14V8.96094H1051.37V9.64648H1048.1V8.96094H1049.33V2.68555H1047.69V4.58398H1047.01V2H1052.47V4.58398Z" fill="#E0E0E0"/>
<path d="M1060.18 9.64648H1059.2L1056.66 5.90234L1055.85 6.80469V9.64648H1055.05V2H1055.85V5.7207L1059.12 2H1060.18L1057.18 5.33984L1060.18 9.64648Z" fill="#E0E0E0"/>
<path d="M1068.34 9.64648H1067.48L1066.76 7.46094H1063.73L1063.03 9.64648H1062.16L1064.71 2H1065.8L1068.34 9.64648ZM1066.53 6.75195L1065.25 2.80859L1063.96 6.75195H1066.53Z" fill="#E0E0E0"/>
<path d="M1075.79 9.64648H1074.77L1072.54 6.37109H1071.35V9.64648H1070.55V2H1073.07C1073.91 2 1074.56 2.18359 1075.02 2.55078C1075.48 2.91406 1075.71 3.45898 1075.71 4.18555C1075.71 4.50586 1075.65 4.79492 1075.54 5.05273C1075.43 5.30664 1075.27 5.52344 1075.08 5.70312C1074.88 5.88281 1074.65 6.02734 1074.37 6.13672C1074.1 6.24609 1073.81 6.3125 1073.49 6.33594L1075.79 9.64648ZM1074.88 4.18555C1074.88 3.66602 1074.72 3.28711 1074.39 3.04883C1074.07 2.80664 1073.63 2.68555 1073.07 2.68555H1071.35V5.68555H1073.07C1073.63 5.68555 1074.07 5.56836 1074.39 5.33398C1074.72 5.0957 1074.88 4.71289 1074.88 4.18555Z" fill="#E0E0E0"/>
<path d="M1083.47 4.58398H1082.79V2.68555H1081.15V8.96094H1082.38V9.64648H1079.1V8.96094H1080.34V2.68555H1078.7V4.58398H1078.01V2H1083.47V4.58398Z" fill="#E0E0E0"/>
<path d="M1091.19 9.64648H1090.2L1087.66 5.90234L1086.85 6.80469V9.64648H1086.05V2H1086.85V5.7207L1090.13 2H1091.19L1088.19 5.33984L1091.19 9.64648Z" fill="#E0E0E0"/>
<path d="M1099.34 9.64648H1098.48L1097.76 7.46094H1094.74L1094.03 9.64648H1093.17L1095.71 2H1096.8L1099.34 9.64648ZM1097.53 6.75195L1096.25 2.80859L1094.97 6.75195H1097.53Z" fill="#E0E0E0"/>
<path d="M1106.72 4.58398H1106.04V2.68555H1104.4V8.96094H1105.63V9.64648H1102.35V8.96094H1103.59V2.68555H1101.95V4.58398H1101.26V2H1106.72V4.58398Z" fill="#E0E0E0"/>
<path d="M1114.44 9.64648H1113.46L1110.91 5.90234L1110.1 6.80469V9.64648H1109.3V2H1110.1V5.7207L1113.38 2H1114.44L1111.44 5.33984L1114.44 9.64648Z" fill="#E0E0E0"/>
<path d="M1122.6 9.64648H1121.73L1121.01 7.46094H1117.99L1117.28 9.64648H1116.42L1118.96 2H1120.05L1122.6 9.64648ZM1120.78 6.75195L1119.5 2.80859L1118.22 6.75195H1120.78Z" fill="#E0E0E0"/>
<path d="M1130.05 9.64648H1129.03L1126.8 6.37109H1125.61V9.64648H1124.8V2H1127.32C1128.16 2 1128.81 2.18359 1129.27 2.55078C1129.73 2.91406 1129.97 3.45898 1129.97 4.18555C1129.97 4.50586 1129.91 4.79492 1129.8 5.05273C1129.68 5.30664 1129.53 5.52344 1129.33 5.70312C1129.14 5.88281 1128.9 6.02734 1128.63 6.13672C1128.36 6.24609 1128.06 6.3125 1127.74 6.33594L1130.05 9.64648ZM1129.13 4.18555C1129.13 3.66602 1128.97 3.28711 1128.65 3.04883C1128.33 2.80664 1127.89 2.68555 1127.32 2.68555H1125.61V5.68555H1127.32C1127.89 5.68555 1128.33 5.56836 1128.65 5.33398C1128.97 5.0957 1129.13 4.71289 1129.13 4.18555Z" fill="#E0E0E0"/>
<path d="M1137.73 4.58398H1137.04V2.68555H1135.4V8.96094H1136.63V9.64648H1133.36V8.96094H1134.59V2.68555H1132.95V4.58398H1132.27V2H1137.73V4.58398Z" fill="#E0E0E0"/>
<path d="M1145.44 9.64648H1144.46L1141.92 5.90234L1141.11 6.80469V9.64648H1140.3V2H1141.11V5.7207L1144.38 2H1145.44L1142.44 5.33984L1145.44 9.64648Z" fill="#E0E0E0"/>
<path d="M1153.6 9.64648H1152.74L1152.02 7.46094H1148.99L1148.28 9.64648H1147.42L1149.97 2H1151.06L1153.6 9.64648ZM1151.79 6.75195L1150.5 2.80859L1149.22 6.75195H1151.79Z" fill="#E0E0E0"/>
<path d="M1160.98 4.58398H1160.29V2.68555H1158.65V8.96094H1159.88V9.64648H1156.61V8.96094H1157.85V2.68555H1156.2V4.58398H1155.52V2H1160.98V4.58398Z" fill="#E0E0E0"/>
<path d="M1168.7 9.64648H1167.71L1165.17 5.90234L1164.36 6.80469V9.64648H1163.56V2H1164.36V5.7207L1167.64 2H1168.7L1165.7 5.33984L1168.7 9.64648Z" fill="#E0E0E0"/>
<path d="M1176.85 9.64648H1175.99L1175.27 7.46094H1172.25L1171.54 9.64648H1170.67L1173.22 2H1174.31L1176.85 9.64648ZM1175.04 6.75195L1173.76 2.80859L1172.47 6.75195H1175.04Z" fill="#E0E0E0"/>
<path d="M1184.3 9.64648H1183.28L1181.05 6.37109H1179.86V9.64648H1179.06V2H1181.58C1182.42 2 1183.07 2.18359 1183.53 2.55078C1183.99 2.91406 1184.22 3.45898 1184.22 4.18555C1184.22 4.50586 1184.16 4.79492 1184.05 5.05273C1183.94 5.30664 1183.78 5.52344 1183.59 5.70312C1183.39 5.88281 1183.16 6.02734 1182.88 6.13672C1182.62 6.24609 1182.32 6.3125 1182 6.33594L1184.3 9.64648ZM1183.39 4.18555C1183.39 3.66602 1183.23 3.28711 1182.9 3.04883C1182.58 2.80664 1182.14 2.68555 1181.58 2.68555H1179.86V5.68555H1181.58C1182.14 5.68555 1182.58 5.56836 1182.9 5.33398C1183.23 5.0957 1183.39 4.71289 1183.39 4.18555Z" fill="#E0E0E0"/>
<path d="M1191.98 4.58398H1191.3V2.68555H1189.66V8.96094H1190.89V9.64648H1187.61V8.96094H1188.85V2.68555H1187.21V4.58398H1186.52V2H1191.98V4.58398Z" fill="#E0E0E0"/>
<path d="M1199.7 9.64648H1198.71L1196.17 5.90234L1195.36 6.80469V9.64648H1194.56V2H1195.36V5.7207L1198.64 2H1199.7L1196.7 5.33984L1199.7 9.64648Z" fill="#E0E0E0"/>
<path d="M1207.85 9.64648H1206.99L1206.27 7.46094H1203.25L1202.54 9.64648H1201.68L1204.22 2H1205.31L1207.85 9.64648ZM1206.04 6.75195L1204.76 2.80859L1203.48 6.75195H1206.04Z" fill="#E0E0E0"/>
<path d="M1215.24 4.58398H1214.55V2.68555H1212.91V8.96094H1214.14V9.64648H1210.86V8.96094H1212.1V2.68555H1210.46V4.58398H1209.77V2H1215.24V4.58398Z" fill="#E0E0E0"/>
<path d="M1222.95 9.64648H1221.97L1219.42 5.90234L1218.62 6.80469V9.64648H1217.81V2H1218.62V5.7207L1221.89 2H1222.95L1219.95 5.33984L1222.95 9.64648Z" fill="#E0E0E0"/>
<path d="M1231.11 9.64648H1230.24L1229.52 7.46094H1226.5L1225.79 9.64648H1224.93L1227.47 2H1228.56L1231.11 9.64648ZM1229.3 6.75195L1228.01 2.80859L1226.73 6.75195H1229.3Z" fill="#E0E0E0"/>
<path d="M1238.56 9.64648H1237.54L1235.31 6.37109H1234.12V9.64648H1233.31V2H1235.83C1236.67 2 1237.32 2.18359 1237.78 2.55078C1238.25 2.91406 1238.48 3.45898 1238.48 4.18555C1238.48 4.50586 1238.42 4.79492 1238.31 5.05273C1238.19 5.30664 1238.04 5.52344 1237.84 5.70312C1237.65 5.88281 1237.41 6.02734 1237.14 6.13672C1236.87 6.24609 1236.58 6.3125 1236.26 6.33594L1238.56 9.64648ZM1237.64 4.18555C1237.64 3.66602 1237.48 3.28711 1237.16 3.04883C1236.84 2.80664 1236.4 2.68555 1235.83 2.68555H1234.12V5.68555H1235.83C1236.4 5.68555 1236.84 5.56836 1237.16 5.33398C1237.48 5.0957 1237.64 4.71289 1237.64 4.18555Z" fill="#E0E0E0"/>
<path d="M1246.24 4.58398H1245.55V2.68555H1243.91V8.96094H1245.14V9.64648H1241.87V8.96094H1243.1V2.68555H1241.46V4.58398H1240.78V2H1246.24V4.58398Z" fill="#E0E0E0"/>
<path d="M1253.95 9.64648H1252.97L1250.43 5.90234L1249.62 6.80469V9.64648H1248.82V2H1249.62V5.7207L1252.89 2H1253.95L1250.95 5.33984L1253.95 9.64648Z" fill="#E0E0E0"/>
<path d="M1262.11 9.64648H1261.25L1260.53 7.46094H1257.5L1256.79 9.64648H1255.93L1258.48 2H1259.57L1262.11 9.64648ZM1260.3 6.75195L1259.02 2.80859L1257.73 6.75195H1260.3Z" fill="#E0E0E0"/>
<path d="M1269.49 4.58398H1268.81V2.68555H1267.16V8.96094H1268.4V9.64648H1265.12V8.96094H1266.36V2.68555H1264.72V4.58398H1264.03V2H1269.49V4.58398Z" fill="#E0E0E0"/>
<path d="M1277.21 9.64648H1276.22L1273.68 5.90234L1272.87 6.80469V9.64648H1272.07V2H1272.87V5.7207L1276.15 2H1277.21L1274.21 5.33984L1277.21 9.64648Z" fill="#E0E0E0"/>
<path d="M1285.36 9.64648H1284.5L1283.78 7.46094H1280.76L1280.05 9.64648H1279.19L1281.73 2H1282.82L1285.36 9.64648ZM1283.55 6.75195L1282.27 2.80859L1280.98 6.75195H1283.55Z" fill="#E0E0E0"/>
<path d="M1292.81 9.64648H1291.79L1289.56 6.37109H1288.37V9.64648H1287.57V2H1290.09C1290.93 2 1291.58 2.18359 1292.04 2.55078C1292.5 2.91406 1292.73 3.45898 1292.73 4.18555C1292.73 4.50586 1292.67 4.79492 1292.56 5.05273C1292.45 5.30664 1292.29 5.52344 1292.1 5.70312C1291.9 5.88281 1291.67 6.02734 1291.4 6.13672C1291.13 6.24609 1290.83 6.3125 1290.51 6.33594L1292.81 9.64648ZM1291.9 4.18555C1291.9 3.66602 1291.74 3.28711 1291.41 3.04883C1291.09 2.80664 1290.65 2.68555 1290.09 2.68555H1288.37V5.68555H1290.09C1290.65 5.68555 1291.09 5.56836 1291.41 5.33398C1291.74 5.0957 1291.9 4.71289 1291.9 4.18555Z" fill="#E0E0E0"/>
<path d="M1300.49 4.58398H1299.81V2.68555H1298.17V8.96094H1299.4V9.64648H1296.12V8.96094H1297.36V2.68555H1295.72V4.58398H1295.03V2H1300.49V4.58398Z" fill="#E0E0E0"/>
<path d="M1308.21 9.64648H1307.23L1304.68 5.90234L1303.87 6.80469V9.64648H1303.07V2H1303.87V5.7207L1307.15 2H1308.21L1305.21 5.33984L1308.21 9.64648Z" fill="#E0E0E0"/>
<path d="M1316.36 9.64648H1315.5L1314.78 7.46094H1311.76L1311.05 9.64648H1310.19L1312.73 2H1313.82L1316.36 9.64648ZM1314.55 6.75195L1313.27 2.80859L1311.99 6.75195H1314.55Z" fill="#E0E0E0"/>
<path d="M1323.75 4.58398H1323.06V2.68555H1321.42V8.96094H1322.65V9.64648H1319.38V8.96094H1320.61V2.68555H1318.97V4.58398H1318.29V2H1323.75V4.58398Z" fill="#E0E0E0"/>
<path d="M1331.46 9.64648H1330.48L1327.93 5.90234L1327.13 6.80469V9.64648H1326.32V2H1327.13V5.7207L1330.4 2H1331.46L1328.46 5.33984L1331.46 9.64648Z" fill="#E0E0E0"/>
<path d="M1339.62 9.64648H1338.76L1338.04 7.46094H1335.01L1334.3 9.64648H1333.44L1335.98 2H1337.07L1339.62 9.64648ZM1337.81 6.75195L1336.52 2.80859L1335.24 6.75195H1337.81Z" fill="#E0E0E0"/>
<path d="M1347.07 9.64648H1346.05L1343.82 6.37109H1342.63V9.64648H1341.82V2H1344.34C1345.18 2 1345.83 2.18359 1346.3 2.55078C1346.76 2.91406 1346.99 3.45898 1346.99 4.18555C1346.99 4.50586 1346.93 4.79492 1346.82 5.05273C1346.7 5.30664 1346.55 5.52344 1346.35 5.70312C1346.16 5.88281 1345.92 6.02734 1345.65 6.13672C1345.38 6.24609 1345.09 6.3125 1344.77 6.33594L1347.07 9.64648ZM1346.16 4.18555C1346.16 3.66602 1345.99 3.28711 1345.67 3.04883C1345.35 2.80664 1344.91 2.68555 1344.34 2.68555H1342.63V5.68555H1344.34C1344.91 5.68555 1345.35 5.56836 1345.67 5.33398C1345.99 5.0957 1346.16 4.71289 1346.16 4.18555Z" fill="#E0E0E0"/>
<path d="M1354.75 4.58398H1354.06V2.68555H1352.42V8.96094H1353.65V9.64648H1350.38V8.96094H1351.61V2.68555H1349.97V4.58398H1349.29V2H1354.75V4.58398Z" fill="#E0E0E0"/>
<path d="M1362.47 9.64648H1361.48L1358.94 5.90234L1358.13 6.80469V9.64648H1357.33V2H1358.13V5.7207L1361.4 2H1362.47L1359.47 5.33984L1362.47 9.64648Z" fill="#E0E0E0"/>
<path d="M1370.62 9.64648H1369.76L1369.04 7.46094H1366.01L1365.31 9.64648H1364.44L1366.99 2H1368.08L1370.62 9.64648ZM1368.81 6.75195L1367.53 2.80859L1366.24 6.75195H1368.81Z" fill="#E0E0E0"/>
<path d="M1378 4.58398H1377.32V2.68555H1375.68V8.96094H1376.91V9.64648H1373.63V8.96094H1374.87V2.68555H1373.23V4.58398H1372.54V2H1378V4.58398Z" fill="#E0E0E0"/>
<path d="M1385.72 9.64648H1384.73L1382.19 5.90234L1381.38 6.80469V9.64648H1380.58V2H1381.38V5.7207L1384.66 2H1385.72L1382.72 5.33984L1385.72 9.64648Z" fill="#E0E0E0"/>
<path d="M1393.87 9.64648H1393.01L1392.29 7.46094H1389.27L1388.56 9.64648H1387.7L1390.24 2H1391.33L1393.87 9.64648ZM1392.06 6.75195L1390.78 2.80859L1389.5 6.75195H1392.06Z" fill="#E0E0E0"/>
<path d="M1401.32 9.64648H1400.31L1398.07 6.37109H1396.88V9.64648H1396.08V2H1398.6C1399.44 2 1400.09 2.18359 1400.55 2.55078C1401.01 2.91406 1401.24 3.45898 1401.24 4.18555C1401.24 4.50586 1401.19 4.79492 1401.07 5.05273C1400.96 5.30664 1400.81 5.52344 1400.61 5.70312C1400.41 5.88281 1400.18 6.02734 1399.91 6.13672C1399.64 6.24609 1399.34 6.3125 1399.02 6.33594L1401.32 9.64648ZM1400.41 4.18555C1400.41 3.66602 1400.25 3.28711 1399.92 3.04883C1399.6 2.80664 1399.16 2.68555 1398.6 2.68555H1396.88V5.68555H1398.6C1399.16 5.68555 1399.6 5.56836 1399.92 5.33398C1400.25 5.0957 1400.41 4.71289 1400.41 4.18555Z" fill="#E0E0E0"/>
<path d="M1409.01 4.58398H1408.32V2.68555H1406.68V8.96094H1407.91V9.64648H1404.63V8.96094H1405.87V2.68555H1404.23V4.58398H1403.54V2H1409.01V4.58398Z" fill="#E0E0E0"/>
</svg>
