<svg width="1432.000000" height="7.000000" viewBox="0 0 1432 7" fill="none" xmlns="http://www.w3.org/2000/svg" xmlns:xlink="http://www.w3.org/1999/xlink">
	<desc>
			Created with Pixso.
	</desc>
	<defs/>
	<path id="ДЛИННАЯ СТРОКА" d="M4.09 7L5.07 7L2.07 2.69L5.07 -0.65L4.01 -0.65L0.74 3.07L0.74 -0.65L-0.06 -0.65L-0.06 7L0.74 7L0.74 4.15L1.55 3.25L4.09 7ZM12.37 7L13.23 7L10.69 -0.65L9.6 -0.65L7.05 7L7.91 7L8.62 4.81L11.65 4.81L12.37 7ZM19.93 1.93L20.61 1.93L20.61 -0.65L15.15 -0.65L15.15 1.93L15.84 1.93L15.84 0.03L17.48 0.03L17.48 6.31L16.24 6.31L16.24 7L19.52 7L19.52 6.31L18.28 6.31L18.28 0.03L19.93 0.03L19.93 1.93ZM27.34 7L28.33 7L25.33 2.69L28.33 -0.65L27.27 -0.65L23.99 3.07L23.99 -0.65L23.19 -0.65L23.19 7L23.99 7L23.99 4.15L24.8 3.25L27.34 7ZM35.62 7L36.48 7L33.94 -0.65L32.85 -0.65L30.31 7L31.17 7L31.88 4.81L34.9 4.81L35.62 7ZM42.91 7L43.93 7L41.63 3.68Q42.11 3.65 42.52 3.49Q42.93 3.32 43.22 3.05Q43.27 3 43.32 2.95Q43.54 2.71 43.68 2.4Q43.85 2.01 43.85 1.53Q43.85 0.7 43.45 0.18Q43.32 0.02 43.16 -0.1Q42.47 -0.65 41.21 -0.65L38.69 -0.65L38.69 7L39.49 7L39.49 3.72L40.68 3.72L42.91 7ZM50.93 1.93L51.61 1.93L51.61 -0.65L46.15 -0.65L46.15 1.93L46.84 1.93L46.84 0.03L48.48 0.03L48.48 6.31L47.24 6.31L47.24 7L50.52 7L50.52 6.31L49.29 6.31L49.29 0.03L50.93 0.03L50.93 1.93ZM58.35 7L59.33 7L56.33 2.69L59.33 -0.65L58.27 -0.65L54.99 3.07L54.99 -0.65L54.19 -0.65L54.19 7L54.99 7L54.99 4.15L55.8 3.25L58.35 7ZM66.62 7L67.48 7L64.94 -0.65L63.85 -0.65L61.31 7L62.17 7L62.88 4.81L65.9 4.81L66.62 7ZM74.18 1.93L74.87 1.93L74.87 -0.65L69.41 -0.65L69.41 1.93L70.09 1.93L70.09 0.03L71.73 0.03L71.73 6.31L70.5 6.31L70.5 7L73.77 7L73.77 6.31L72.54 6.31L72.54 0.03L74.18 0.03L74.18 1.93ZM81.6 7L82.58 7L79.58 2.69L82.58 -0.65L81.52 -0.65L78.25 3.07L78.25 -0.65L77.44 -0.65L77.44 7L78.25 7L78.25 4.15L79.05 3.25L81.6 7ZM89.88 7L90.74 7L88.19 -0.65L87.1 -0.65L84.56 7L85.42 7L86.13 4.81L89.16 4.81L89.88 7ZM97.17 7L98.19 7L95.89 3.68Q96.37 3.65 96.77 3.49Q97.18 3.32 97.47 3.05Q97.53 3 97.58 2.95Q97.8 2.71 97.94 2.4Q98.11 2.01 98.11 1.53Q98.11 0.7 97.7 0.18Q97.58 0.02 97.42 -0.1Q96.72 -0.65 95.46 -0.65L92.94 -0.65L92.94 7L93.75 7L93.75 3.72L94.94 3.72L97.17 7ZM105.18 1.93L105.87 1.93L105.87 -0.65L100.41 -0.65L100.41 1.93L101.09 1.93L101.09 0.03L102.74 0.03L102.74 6.31L101.5 6.31L101.5 7L104.77 7L104.77 6.31L103.54 6.31L103.54 0.03L105.18 0.03L105.18 1.93ZM112.6 7L113.59 7L110.59 2.69L113.59 -0.65L112.53 -0.65L109.25 3.07L109.25 -0.65L108.45 -0.65L108.45 7L109.25 7L109.25 4.15L110.06 3.25L112.6 7ZM120.88 7L121.74 7L119.2 -0.65L118.11 -0.65L115.56 7L116.43 7L117.14 4.81L120.16 4.81L120.88 7ZM128.44 1.93L129.12 1.93L129.12 -0.65L123.66 -0.65L123.66 1.93L124.35 1.93L124.35 0.03L125.99 0.03L125.99 6.31L124.75 6.31L124.75 7L128.03 7L128.03 6.31L126.8 6.31L126.8 0.03L128.44 0.03L128.44 1.93ZM135.85 7L136.84 7L133.84 2.69L136.84 -0.65L135.78 -0.65L132.5 3.07L132.5 -0.65L131.7 -0.65L131.7 7L132.5 7L132.5 4.15L133.31 3.25L135.85 7ZM144.13 7L144.99 7L142.45 -0.65L141.36 -0.65L138.82 7L139.68 7L140.39 4.81L143.41 4.81L144.13 7ZM151.42 7L152.45 7L150.14 3.68Q150.62 3.65 151.03 3.49Q151.44 3.32 151.73 3.05Q151.78 3 151.84 2.95Q152.05 2.71 152.19 2.4Q152.36 2.01 152.36 1.53Q152.36 0.7 151.96 0.18Q151.83 0.02 151.67 -0.1Q150.98 -0.65 149.72 -0.65L147.2 -0.65L147.2 7L148 7L148 3.72L149.19 3.72L151.42 7ZM159.44 1.93L160.13 1.93L160.13 -0.65L154.66 -0.65L154.66 1.93L155.35 1.93L155.35 0.03L156.99 0.03L156.99 6.31L155.75 6.31L155.75 7L159.03 7L159.03 6.31L157.8 6.31L157.8 0.03L159.44 0.03L159.44 1.93ZM166.86 7L167.84 7L164.84 2.69L167.84 -0.65L166.78 -0.65L163.5 3.07L163.5 -0.65L162.7 -0.65L162.7 7L163.5 7L163.5 4.15L164.31 3.25L166.86 7ZM175.13 7L176 7L173.45 -0.65L172.36 -0.65L169.82 7L170.68 7L171.39 4.81L174.41 4.81L175.13 7ZM182.69 1.93L183.38 1.93L183.38 -0.65L177.92 -0.65L177.92 1.93L178.6 1.93L178.6 0.03L180.24 0.03L180.24 6.31L179.01 6.31L179.01 7L182.28 7L182.28 6.31L181.05 6.31L181.05 0.03L182.69 0.03L182.69 1.93ZM190.11 7L191.09 7L188.09 2.69L191.09 -0.65L190.03 -0.65L186.76 3.07L186.76 -0.65L185.95 -0.65L185.95 7L186.76 7L186.76 4.15L187.57 3.25L190.11 7ZM198.39 7L199.25 7L196.71 -0.65L195.62 -0.65L193.07 7L193.93 7L194.64 4.81L197.67 4.81L198.39 7ZM205.68 7L206.7 7L204.4 3.68Q204.88 3.65 205.29 3.49Q205.69 3.32 205.99 3.05Q206.04 3 206.09 2.95Q206.31 2.71 206.45 2.4Q206.62 2.01 206.62 1.53Q206.62 0.7 206.21 0.18Q206.09 0.02 205.93 -0.1Q205.24 -0.65 203.98 -0.65L201.46 -0.65L201.46 7L202.26 7L202.26 3.72L203.45 3.72L205.68 7ZM213.7 1.93L214.38 1.93L214.38 -0.65L208.92 -0.65L208.92 1.93L209.61 1.93L209.61 0.03L211.25 0.03L211.25 6.31L210.01 6.31L210.01 7L213.29 7L213.29 6.31L212.05 6.31L212.05 0.03L213.7 0.03L213.7 1.93ZM221.11 7L222.1 7L219.1 2.69L222.1 -0.65L221.04 -0.65L217.76 3.07L217.76 -0.65L216.96 -0.65L216.96 7L217.76 7L217.76 4.15L218.57 3.25L221.11 7ZM229.39 7L230.25 7L227.71 -0.65L226.62 -0.65L224.08 7L224.94 7L225.65 4.81L228.67 4.81L229.39 7ZM236.95 1.93L237.63 1.93L237.63 -0.65L232.17 -0.65L232.17 1.93L232.86 1.93L232.86 0.03L234.5 0.03L234.5 6.31L233.26 6.31L233.26 7L236.54 7L236.54 6.31L235.31 6.31L235.31 0.03L236.95 0.03L236.95 1.93ZM244.36 7L245.35 7L242.35 2.69L245.35 -0.65L244.29 -0.65L241.01 3.07L241.01 -0.65L240.21 -0.65L240.21 7L241.01 7L241.01 4.15L241.82 3.25L244.36 7ZM252.64 7L253.5 7L250.96 -0.65L249.87 -0.65L247.33 7L248.19 7L248.9 4.81L251.92 4.81L252.64 7ZM259.94 7L260.96 7L258.65 3.68Q259.13 3.65 259.54 3.49Q259.95 3.32 260.24 3.05Q260.29 3 260.35 2.95Q260.57 2.71 260.7 2.4Q260.87 2.01 260.87 1.53Q260.87 0.7 260.47 0.18Q260.34 0.02 260.18 -0.1Q259.49 -0.65 258.23 -0.65L255.71 -0.65L255.71 7L256.51 7L256.51 3.72L257.7 3.72L259.94 7ZM267.95 1.93L268.64 1.93L268.64 -0.65L263.18 -0.65L263.18 1.93L263.86 1.93L263.86 0.03L265.5 0.03L265.5 6.31L264.26 6.31L264.26 7L267.54 7L267.54 6.31L266.31 6.31L266.31 0.03L267.95 0.03L267.95 1.93ZM275.37 7L276.35 7L273.35 2.69L276.35 -0.65L275.29 -0.65L272.02 3.07L272.02 -0.65L271.21 -0.65L271.21 7L272.02 7L272.02 4.15L272.82 3.25L275.37 7ZM283.65 7L284.51 7L281.96 -0.65L280.87 -0.65L278.33 7L279.19 7L279.9 4.81L282.93 4.81L283.65 7ZM291.2 1.93L291.89 1.93L291.89 -0.65L286.43 -0.65L286.43 1.93L287.11 1.93L287.11 0.03L288.75 0.03L288.75 6.31L287.52 6.31L287.52 7L290.79 7L290.79 6.31L289.56 6.31L289.56 0.03L291.2 0.03L291.2 1.93ZM298.62 7L299.6 7L296.6 2.69L299.6 -0.65L298.54 -0.65L295.27 3.07L295.27 -0.65L294.47 -0.65L294.47 7L295.27 7L295.27 4.15L296.08 3.25L298.62 7ZM306.9 7L307.76 7L305.22 -0.65L304.13 -0.65L301.58 7L302.45 7L303.15 4.81L306.18 4.81L306.9 7ZM314.19 7L315.21 7L312.91 3.68Q313.39 3.65 313.8 3.49Q314.2 3.32 314.5 3.05Q314.55 3 314.6 2.95Q314.82 2.71 314.96 2.4Q315.13 2.01 315.13 1.53Q315.13 0.7 314.72 0.18Q314.6 0.02 314.44 -0.1Q313.75 -0.65 312.49 -0.65L309.97 -0.65L309.97 7L310.77 7L310.77 3.72L311.96 3.72L314.19 7ZM322.21 1.93L322.89 1.93L322.89 -0.65L317.43 -0.65L317.43 1.93L318.12 1.93L318.12 0.03L319.76 0.03L319.76 6.31L318.52 6.31L318.52 7L321.8 7L321.8 6.31L320.57 6.31L320.57 0.03L322.21 0.03L322.21 1.93ZM329.62 7L330.61 7L327.61 2.69L330.61 -0.65L329.55 -0.65L326.27 3.07L326.27 -0.65L325.47 -0.65L325.47 7L326.27 7L326.27 4.15L327.08 3.25L329.62 7ZM337.9 7L338.76 7L336.22 -0.65L335.13 -0.65L332.59 7L333.45 7L334.16 4.81L337.18 4.81L337.9 7ZM345.46 1.93L346.14 1.93L346.14 -0.65L340.68 -0.65L340.68 1.93L341.37 1.93L341.37 0.03L343.01 0.03L343.01 6.31L341.77 6.31L341.77 7L345.05 7L345.05 6.31L343.82 6.31L343.82 0.03L345.46 0.03L345.46 1.93ZM352.88 7L353.86 7L350.86 2.69L353.86 -0.65L352.8 -0.65L349.52 3.07L349.52 -0.65L348.72 -0.65L348.72 7L349.52 7L349.52 4.15L350.33 3.25L352.88 7ZM361.15 7L362.02 7L359.47 -0.65L358.38 -0.65L355.84 7L356.7 7L357.41 4.81L360.43 4.81L361.15 7ZM368.45 7L369.47 7L367.16 3.68Q367.64 3.65 368.05 3.49Q368.46 3.32 368.75 3.05Q368.81 3 368.86 2.95Q369.08 2.71 369.22 2.4Q369.38 2.01 369.38 1.53Q369.38 0.7 368.98 0.18Q368.86 0.02 368.69 -0.1Q368 -0.65 366.74 -0.65L364.22 -0.65L364.22 7L365.03 7L365.03 3.72L366.22 3.72L368.45 7ZM376.46 1.93L377.15 1.93L377.15 -0.65L371.69 -0.65L371.69 1.93L372.37 1.93L372.37 0.03L374.01 0.03L374.01 6.31L372.78 6.31L372.78 7L376.05 7L376.05 6.31L374.82 6.31L374.82 0.03L376.46 0.03L376.46 1.93ZM383.88 7L384.86 7L381.86 2.69L384.86 -0.65L383.8 -0.65L380.53 3.07L380.53 -0.65L379.72 -0.65L379.72 7L380.53 7L380.53 4.15L381.34 3.25L383.88 7ZM392.16 7L393.02 7L390.48 -0.65L389.39 -0.65L386.84 7L387.7 7L388.41 4.81L391.44 4.81L392.16 7ZM399.71 1.93L400.4 1.93L400.4 -0.65L394.94 -0.65L394.94 1.93L395.62 1.93L395.62 0.03L397.27 0.03L397.27 6.31L396.03 6.31L396.03 7L399.3 7L399.3 6.31L398.07 6.31L398.07 0.03L399.71 0.03L399.71 1.93ZM407.13 7L408.12 7L405.12 2.69L408.12 -0.65L407.05 -0.65L403.78 3.07L403.78 -0.65L402.98 -0.65L402.98 7L403.78 7L403.78 4.15L404.59 3.25L407.13 7ZM415.41 7L416.27 7L413.73 -0.65L412.64 -0.65L410.09 7L410.96 7L411.67 4.81L414.69 4.81L415.41 7ZM422.7 7L423.72 7L421.42 3.68Q421.9 3.65 422.31 3.49Q422.71 3.32 423.01 3.05Q423.06 3 423.11 2.95Q423.33 2.71 423.47 2.4Q423.64 2.01 423.64 1.53Q423.64 0.7 423.24 0.18Q423.11 0.02 422.95 -0.1Q422.26 -0.65 421 -0.65L418.48 -0.65L418.48 7L419.28 7L419.28 3.72L420.47 3.72L422.7 7ZM430.72 1.93L431.4 1.93L431.4 -0.65L425.94 -0.65L425.94 1.93L426.63 1.93L426.63 0.03L428.27 0.03L428.27 6.31L427.03 6.31L427.03 7L430.31 7L430.31 6.31L429.08 6.31L429.08 0.03L430.72 0.03L430.72 1.93ZM438.13 7L439.12 7L436.12 2.69L439.12 -0.65L438.06 -0.65L434.78 3.07L434.78 -0.65L433.98 -0.65L433.98 7L434.78 7L434.78 4.15L435.59 3.25L438.13 7ZM446.41 7L447.27 7L444.73 -0.65L443.64 -0.65L441.1 7L441.96 7L442.67 4.81L445.69 4.81L446.41 7ZM453.97 1.93L454.66 1.93L454.66 -0.65L449.19 -0.65L449.19 1.93L449.88 1.93L449.88 0.03L451.52 0.03L451.52 6.31L450.28 6.31L450.28 7L453.56 7L453.56 6.31L452.33 6.31L452.33 0.03L453.97 0.03L453.97 1.93ZM461.39 7L462.37 7L459.37 2.69L462.37 -0.65L461.31 -0.65L458.04 3.07L458.04 -0.65L457.23 -0.65L457.23 7L458.04 7L458.04 4.15L458.84 3.25L461.39 7ZM469.66 7L470.53 7L467.98 -0.65L466.89 -0.65L464.35 7L465.21 7L465.92 4.81L468.94 4.81L469.66 7ZM476.96 7L477.98 7L475.68 3.68Q476.16 3.65 476.56 3.49Q476.97 3.32 477.26 3.05Q477.32 3 477.37 2.95Q477.59 2.71 477.73 2.4Q477.9 2.01 477.9 1.53Q477.9 0.7 477.49 0.18Q477.37 0.02 477.2 -0.1Q476.51 -0.65 475.25 -0.65L472.73 -0.65L472.73 7L473.54 7L473.54 3.72L474.73 3.72L476.96 7ZM484.97 1.93L485.66 1.93L485.66 -0.65L480.2 -0.65L480.2 1.93L480.88 1.93L480.88 0.03L482.52 0.03L482.52 6.31L481.29 6.31L481.29 7L484.56 7L484.56 6.31L483.33 6.31L483.33 0.03L484.97 0.03L484.97 1.93ZM492.39 7L493.37 7L490.37 2.69L493.37 -0.65L492.31 -0.65L489.04 3.07L489.04 -0.65L488.24 -0.65L488.24 7L489.04 7L489.04 4.15L489.85 3.25L492.39 7ZM500.67 7L501.53 7L498.99 -0.65L497.9 -0.65L495.35 7L496.21 7L496.92 4.81L499.95 4.81L500.67 7ZM508.23 1.93L508.91 1.93L508.91 -0.65L503.45 -0.65L503.45 1.93L504.14 1.93L504.14 0.03L505.78 0.03L505.78 6.31L504.54 6.31L504.54 7L507.82 7L507.82 6.31L506.58 6.31L506.58 0.03L508.23 0.03L508.23 1.93ZM515.64 7L516.63 7L513.63 2.69L516.63 -0.65L515.57 -0.65L512.29 3.07L512.29 -0.65L511.49 -0.65L511.49 7L512.29 7L512.29 4.15L513.1 3.25L515.64 7ZM523.92 7L524.78 7L522.24 -0.65L521.15 -0.65L518.61 7L519.47 7L520.18 4.81L523.2 4.81L523.92 7ZM531.21 7L532.23 7L529.93 3.68Q530.41 3.65 530.82 3.49Q531.23 3.32 531.52 3.05Q531.57 3 531.62 2.95Q531.84 2.71 531.98 2.4Q532.15 2.01 532.15 1.53Q532.15 0.7 531.75 0.18Q531.62 0.02 531.46 -0.1Q530.77 -0.65 529.51 -0.65L526.99 -0.65L526.99 7L527.79 7L527.79 3.72L528.98 3.72L531.21 7ZM539.23 1.93L539.91 1.93L539.91 -0.65L534.45 -0.65L534.45 1.93L535.14 1.93L535.14 0.03L536.78 0.03L536.78 6.31L535.54 6.31L535.54 7L538.82 7L538.82 6.31L537.59 6.31L537.59 0.03L539.23 0.03L539.23 1.93ZM546.65 7L547.63 7L544.63 2.69L547.63 -0.65L546.57 -0.65L543.29 3.07L543.29 -0.65L542.49 -0.65L542.49 7L543.29 7L543.29 4.15L544.1 3.25L546.65 7ZM554.92 7L555.78 7L553.24 -0.65L552.15 -0.65L549.61 7L550.47 7L551.18 4.81L554.2 4.81L554.92 7ZM562.48 1.93L563.17 1.93L563.17 -0.65L557.71 -0.65L557.71 1.93L558.39 1.93L558.39 0.03L560.03 0.03L560.03 6.31L558.8 6.31L558.8 7L562.07 7L562.07 6.31L560.84 6.31L560.84 0.03L562.48 0.03L562.48 1.93ZM569.9 7L570.88 7L567.88 2.69L570.88 -0.65L569.82 -0.65L566.55 3.07L566.55 -0.65L565.74 -0.65L565.74 7L566.55 7L566.55 4.15L567.35 3.25L569.9 7ZM578.18 7L579.04 7L576.49 -0.65L575.4 -0.65L572.86 7L573.72 7L574.43 4.81L577.46 4.81L578.18 7ZM585.47 7L586.49 7L584.19 3.68Q584.67 3.65 585.07 3.49Q585.48 3.32 585.77 3.05Q585.83 3 585.88 2.95Q586.1 2.71 586.24 2.4Q586.41 2.01 586.41 1.53Q586.41 0.7 586 0.18Q585.88 0.02 585.71 -0.1Q585.02 -0.65 583.76 -0.65L581.25 -0.65L581.25 7L582.05 7L582.05 3.72L583.24 3.72L585.47 7ZM593.48 1.93L594.17 1.93L594.17 -0.65L588.71 -0.65L588.71 1.93L589.39 1.93L589.39 0.03L591.03 0.03L591.03 6.31L589.8 6.31L589.8 7L593.07 7L593.07 6.31L591.84 6.31L591.84 0.03L593.48 0.03L593.48 1.93ZM600.9 7L601.89 7L598.89 2.69L601.89 -0.65L600.82 -0.65L597.55 3.07L597.55 -0.65L596.75 -0.65L596.75 7L597.55 7L597.55 4.15L598.36 3.25L600.9 7ZM609.18 7L610.04 7L607.5 -0.65L606.41 -0.65L603.86 7L604.73 7L605.43 4.81L608.46 4.81L609.18 7ZM616.74 1.93L617.42 1.93L617.42 -0.65L611.96 -0.65L611.96 1.93L612.65 1.93L612.65 0.03L614.29 0.03L614.29 6.31L613.05 6.31L613.05 7L616.33 7L616.33 6.31L615.09 6.31L615.09 0.03L616.74 0.03L616.74 1.93ZM624.15 7L625.14 7L622.14 2.69L625.14 -0.65L624.08 -0.65L620.8 3.07L620.8 -0.65L620 -0.65L620 7L620.8 7L620.8 4.15L621.61 3.25L624.15 7ZM632.43 7L633.29 7L630.75 -0.65L629.66 -0.65L627.12 7L627.98 7L628.69 4.81L631.71 4.81L632.43 7ZM639.73 7L640.74 7L638.44 3.68Q638.92 3.65 639.33 3.49Q639.74 3.32 640.03 3.05Q640.08 3 640.13 2.95Q640.35 2.71 640.49 2.4Q640.66 2.01 640.66 1.53Q640.66 0.7 640.26 0.18Q640.13 0.02 639.97 -0.1Q639.28 -0.65 638.02 -0.65L635.5 -0.65L635.5 7L636.3 7L636.3 3.72L637.49 3.72L639.73 7ZM647.74 1.93L648.43 1.93L648.43 -0.65L642.96 -0.65L642.96 1.93L643.65 1.93L643.65 0.03L645.29 0.03L645.29 6.31L644.05 6.31L644.05 7L647.33 7L647.33 6.31L646.1 6.31L646.1 0.03L647.74 0.03L647.74 1.93ZM655.16 7L656.14 7L653.14 2.69L656.14 -0.65L655.08 -0.65L651.8 3.07L651.8 -0.65L651 -0.65L651 7L651.8 7L651.8 4.15L652.61 3.25L655.16 7ZM663.43 7L664.3 7L661.75 -0.65L660.66 -0.65L658.12 7L658.98 7L659.69 4.81L662.71 4.81L663.43 7ZM670.99 1.93L671.68 1.93L671.68 -0.65L666.22 -0.65L666.22 1.93L666.9 1.93L666.9 0.03L668.54 0.03L668.54 6.31L667.31 6.31L667.31 7L670.58 7L670.58 6.31L669.35 6.31L669.35 0.03L670.99 0.03L670.99 1.93ZM678.41 7L679.39 7L676.39 2.69L679.39 -0.65L678.33 -0.65L675.06 3.07L675.06 -0.65L674.25 -0.65L674.25 7L675.06 7L675.06 4.15L675.87 3.25L678.41 7ZM686.69 7L687.55 7L685.01 -0.65L683.92 -0.65L681.37 7L682.23 7L682.94 4.81L685.97 4.81L686.69 7ZM693.98 7L695 7L692.7 3.68Q693.18 3.65 693.59 3.49Q693.99 3.32 694.29 3.05Q694.34 3 694.39 2.95Q694.61 2.71 694.75 2.4Q694.92 2.01 694.92 1.53Q694.92 0.7 694.51 0.18Q694.39 0.02 694.23 -0.1Q693.54 -0.65 692.28 -0.65L689.76 -0.65L689.76 7L690.56 7L690.56 3.72L691.75 3.72L693.98 7ZM702 1.93L702.68 1.93L702.68 -0.65L697.22 -0.65L697.22 1.93L697.91 1.93L697.91 0.03L699.55 0.03L699.55 6.31L698.31 6.31L698.31 7L701.59 7L701.59 6.31L700.35 6.31L700.35 0.03L702 0.03L702 1.93ZM709.41 7L710.4 7L707.4 2.69L710.4 -0.65L709.34 -0.65L706.06 3.07L706.06 -0.65L705.26 -0.65L705.26 7L706.06 7L706.06 4.15L706.87 3.25L709.41 7ZM717.69 7L718.55 7L716.01 -0.65L714.92 -0.65L712.38 7L713.24 7L713.95 4.81L716.97 4.81L717.69 7ZM725.25 1.93L725.93 1.93L725.93 -0.65L720.47 -0.65L720.47 1.93L721.16 1.93L721.16 0.03L722.8 0.03L722.8 6.31L721.56 6.31L721.56 7L724.84 7L724.84 6.31L723.61 6.31L723.61 0.03L725.25 0.03L725.25 1.93ZM732.66 7L733.65 7L730.65 2.69L733.65 -0.65L732.59 -0.65L729.31 3.07L729.31 -0.65L728.51 -0.65L728.51 7L729.31 7L729.31 4.15L730.12 3.25L732.66 7ZM740.94 7L741.8 7L739.26 -0.65L738.17 -0.65L735.63 7L736.49 7L737.2 4.81L740.22 4.81L740.94 7ZM748.24 7L749.26 7L746.95 3.68Q747.43 3.65 747.84 3.49Q748.25 3.32 748.54 3.05Q748.6 3 748.65 2.95Q748.87 2.71 749 2.4Q749.17 2.01 749.17 1.53Q749.17 0.7 748.77 0.18Q748.64 0.02 748.48 -0.1Q747.79 -0.65 746.53 -0.65L744.01 -0.65L744.01 7L744.81 7L744.81 3.72L746 3.72L748.24 7ZM756.25 1.93L756.94 1.93L756.94 -0.65L751.48 -0.65L751.48 1.93L752.16 1.93L752.16 0.03L753.8 0.03L753.8 6.31L752.57 6.31L752.57 7L755.84 7L755.84 6.31L754.61 6.31L754.61 0.03L756.25 0.03L756.25 1.93ZM763.67 7L764.65 7L761.65 2.69L764.65 -0.65L763.59 -0.65L760.32 3.07L760.32 -0.65L759.51 -0.65L759.51 7L760.32 7L760.32 4.15L761.12 3.25L763.67 7ZM771.95 7L772.81 7L770.26 -0.65L769.17 -0.65L766.63 7L767.49 7L768.2 4.81L771.23 4.81L771.95 7ZM779.5 1.93L780.19 1.93L780.19 -0.65L774.73 -0.65L774.73 1.93L775.41 1.93L775.41 0.03L777.05 0.03L777.05 6.31L775.82 6.31L775.82 7L779.09 7L779.09 6.31L777.86 6.31L777.86 0.03L779.5 0.03L779.5 1.93ZM786.92 7L787.9 7L784.9 2.69L787.9 -0.65L786.84 -0.65L783.57 3.07L783.57 -0.65L782.77 -0.65L782.77 7L783.57 7L783.57 4.15L784.38 3.25L786.92 7ZM795.2 7L796.06 7L793.52 -0.65L792.43 -0.65L789.88 7L790.75 7L791.45 4.81L794.48 4.81L795.2 7ZM802.49 7L803.51 7L801.21 3.68Q801.69 3.65 802.1 3.49Q802.5 3.32 802.8 3.05Q802.85 3 802.9 2.95Q803.12 2.71 803.26 2.4Q803.43 2.01 803.43 1.53Q803.43 0.7 803.02 0.18Q802.9 0.02 802.74 -0.1Q802.05 -0.65 800.79 -0.65L798.27 -0.65L798.27 7L799.07 7L799.07 3.72L800.26 3.72L802.49 7ZM810.51 1.93L811.19 1.93L811.19 -0.65L805.73 -0.65L805.73 1.93L806.42 1.93L806.42 0.03L808.06 0.03L808.06 6.31L806.82 6.31L806.82 7L810.1 7L810.1 6.31L808.87 6.31L808.87 0.03L810.51 0.03L810.51 1.93ZM817.92 7L818.91 7L815.91 2.69L818.91 -0.65L817.85 -0.65L814.57 3.07L814.57 -0.65L813.77 -0.65L813.77 7L814.57 7L814.57 4.15L815.38 3.25L817.92 7ZM826.2 7L827.06 7L824.52 -0.65L823.43 -0.65L820.89 7L821.75 7L822.46 4.81L825.48 4.81L826.2 7ZM833.76 1.93L834.44 1.93L834.44 -0.65L828.98 -0.65L828.98 1.93L829.67 1.93L829.67 0.03L831.31 0.03L831.31 6.31L830.07 6.31L830.07 7L833.35 7L833.35 6.31L832.12 6.31L832.12 0.03L833.76 0.03L833.76 1.93ZM841.18 7L842.16 7L839.16 2.69L842.16 -0.65L841.1 -0.65L837.82 3.07L837.82 -0.65L837.02 -0.65L837.02 7L837.82 7L837.82 4.15L838.63 3.25L841.18 7ZM849.45 7L850.32 7L847.77 -0.65L846.68 -0.65L844.14 7L845 7L845.71 4.81L848.73 4.81L849.45 7ZM856.75 7L857.77 7L855.46 3.68Q855.94 3.65 856.35 3.49Q856.76 3.32 857.05 3.05Q857.11 3 857.16 2.95Q857.38 2.71 857.52 2.4Q857.68 2.01 857.68 1.53Q857.68 0.7 857.28 0.18Q857.16 0.02 856.99 -0.1Q856.3 -0.65 855.04 -0.65L852.52 -0.65L852.52 7L853.33 7L853.33 3.72L854.52 3.72L856.75 7ZM864.76 1.93L865.45 1.93L865.45 -0.65L859.99 -0.65L859.99 1.93L860.67 1.93L860.67 0.03L862.31 0.03L862.31 6.31L861.08 6.31L861.08 7L864.35 7L864.35 6.31L863.12 6.31L863.12 0.03L864.76 0.03L864.76 1.93ZM872.18 7L873.16 7L870.16 2.69L873.16 -0.65L872.1 -0.65L868.83 3.07L868.83 -0.65L868.02 -0.65L868.02 7L868.83 7L868.83 4.15L869.64 3.25L872.18 7ZM880.46 7L881.32 7L878.78 -0.65L877.69 -0.65L875.14 7L876 7L876.71 4.81L879.74 4.81L880.46 7ZM888.01 1.93L888.7 1.93L888.7 -0.65L883.24 -0.65L883.24 1.93L883.92 1.93L883.92 0.03L885.57 0.03L885.57 6.31L884.33 6.31L884.33 7L887.6 7L887.6 6.31L886.37 6.31L886.37 0.03L888.01 0.03L888.01 1.93ZM895.43 7L896.42 7L893.42 2.69L896.42 -0.65L895.35 -0.65L892.08 3.07L892.08 -0.65L891.28 -0.65L891.28 7L892.08 7L892.08 4.15L892.89 3.25L895.43 7ZM903.71 7L904.57 7L902.03 -0.65L900.94 -0.65L898.39 7L899.26 7L899.97 4.81L902.99 4.81L903.71 7ZM911 7L912.02 7L909.72 3.68Q910.2 3.65 910.61 3.49Q911.01 3.32 911.31 3.05Q911.36 3 911.41 2.95Q911.63 2.71 911.77 2.4Q911.94 2.01 911.94 1.53Q911.94 0.7 911.54 0.18Q911.41 0.02 911.25 -0.1Q910.56 -0.65 909.3 -0.65L906.78 -0.65L906.78 7L907.58 7L907.58 3.72L908.77 3.72L911 7ZM919.02 1.93L919.7 1.93L919.7 -0.65L914.24 -0.65L914.24 1.93L914.93 1.93L914.93 0.03L916.57 0.03L916.57 6.31L915.33 6.31L915.33 7L918.61 7L918.61 6.31L917.38 6.31L917.38 0.03L919.02 0.03L919.02 1.93ZM926.43 7L927.42 7L924.42 2.69L927.42 -0.65L926.36 -0.65L923.08 3.07L923.08 -0.65L922.28 -0.65L922.28 7L923.08 7L923.08 4.15L923.89 3.25L926.43 7ZM934.71 7L935.57 7L933.03 -0.65L931.94 -0.65L929.4 7L930.26 7L930.97 4.81L933.99 4.81L934.71 7ZM942.27 1.93L942.96 1.93L942.96 -0.65L937.49 -0.65L937.49 1.93L938.18 1.93L938.18 0.03L939.82 0.03L939.82 6.31L938.58 6.31L938.58 7L941.86 7L941.86 6.31L940.63 6.31L940.63 0.03L942.27 0.03L942.27 1.93ZM949.69 7L950.67 7L947.67 2.69L950.67 -0.65L949.61 -0.65L946.34 3.07L946.34 -0.65L945.53 -0.65L945.53 7L946.34 7L946.34 4.15L947.14 3.25L949.69 7ZM957.96 7L958.83 7L956.28 -0.65L955.19 -0.65L952.65 7L953.51 7L954.22 4.81L957.24 4.81L957.96 7ZM965.26 7L966.28 7L963.98 3.68Q964.46 3.65 964.86 3.49Q965.27 3.32 965.56 3.05Q965.62 3 965.67 2.95Q965.89 2.71 966.03 2.4Q966.2 2.01 966.2 1.53Q966.2 0.7 965.79 0.18Q965.67 0.02 965.5 -0.1Q964.81 -0.65 963.55 -0.65L961.03 -0.65L961.03 7L961.84 7L961.84 3.72L963.03 3.72L965.26 7ZM973.27 1.93L973.96 1.93L973.96 -0.65L968.5 -0.65L968.5 1.93L969.18 1.93L969.18 0.03L970.82 0.03L970.82 6.31L969.59 6.31L969.59 7L972.86 7L972.86 6.31L971.63 6.31L971.63 0.03L973.27 0.03L973.27 1.93ZM980.69 7L981.67 7L978.67 2.69L981.67 -0.65L980.61 -0.65L977.34 3.07L977.34 -0.65L976.54 -0.65L976.54 7L977.34 7L977.34 4.15L978.15 3.25L980.69 7ZM988.97 7L989.83 7L987.29 -0.65L986.2 -0.65L983.65 7L984.51 7L985.22 4.81L988.25 4.81L988.97 7ZM996.53 1.93L997.21 1.93L997.21 -0.65L991.75 -0.65L991.75 1.93L992.44 1.93L992.44 0.03L994.08 0.03L994.08 6.31L992.84 6.31L992.84 7L996.12 7L996.12 6.31L994.88 6.31L994.88 0.03L996.53 0.03L996.53 1.93ZM1003.95 7L1004.93 7L1001.93 2.69L1004.93 -0.65L1003.87 -0.65L1000.6 3.07L1000.6 -0.65L999.79 -0.65L999.79 7L1000.6 7L1000.6 4.15L1001.4 3.25L1003.95 7ZM1012.22 7L1013.09 7L1010.54 -0.65L1009.45 -0.65L1006.91 7L1007.77 7L1008.48 4.81L1011.5 4.81L1012.22 7ZM1019.52 7L1020.54 7L1018.24 3.68Q1018.72 3.65 1019.12 3.49Q1019.53 3.32 1019.82 3.05C1020.02 2.87 1020.17 2.65 1020.29 2.4Q1020.46 2.01 1020.46 1.53C1020.46 0.81 1020.23 0.26 1019.76 -0.1Q1019.07 -0.65 1017.81 -0.65L1015.29 -0.65L1015.29 7L1016.1 7L1016.1 3.72L1017.29 3.72L1019.52 7ZM1027.53 1.93L1028.22 1.93L1028.22 -0.65L1022.76 -0.65L1022.76 1.93L1023.44 1.93L1023.44 0.03L1025.07 0.03L1025.07 6.31L1023.85 6.31L1023.85 7L1027.12 7L1027.12 6.31L1025.89 6.31L1025.89 0.03L1027.53 0.03L1027.53 1.93ZM1034.94 7L1035.93 7L1032.93 2.69L1035.93 -0.65L1034.87 -0.65L1031.6 3.07L1031.6 -0.65L1030.8 -0.65L1030.8 7L1031.6 7L1031.6 4.15L1032.41 3.25L1034.94 7ZM1043.23 7L1044.09 7L1041.55 -0.65L1040.46 -0.65L1037.91 7L1038.77 7L1039.48 4.81L1042.51 4.81L1043.23 7ZM1050.79 1.93L1051.47 1.93L1051.47 -0.65L1046.01 -0.65L1046.01 1.93L1046.69 1.93L1046.69 0.03L1048.34 0.03L1048.34 6.31L1047.1 6.31L1047.1 7L1050.38 7L1050.38 6.31L1049.14 6.31L1049.14 0.03L1050.79 0.03L1050.79 1.93ZM1058.19 7L1059.18 7L1056.18 2.69L1059.18 -0.65L1058.13 -0.65L1054.85 3.07L1054.85 -0.65L1054.05 -0.65L1054.05 7L1054.85 7L1054.85 4.15L1055.66 3.25L1058.19 7ZM1066.48 7L1067.34 7L1064.8 -0.65L1063.71 -0.65L1061.17 7L1062.03 7L1062.74 4.81L1065.76 4.81L1066.48 7ZM1073.77 7L1074.79 7L1072.49 3.68Q1072.97 3.65 1073.38 3.49Q1073.79 3.32 1074.07 3.05Q1074.13 3 1074.18 2.95Q1074.4 2.71 1074.54 2.4Q1074.71 2.01 1074.71 1.53Q1074.71 0.7 1074.31 0.18Q1074.18 0.02 1074.02 -0.1Q1073.32 -0.65 1072.06 -0.65L1069.55 -0.65L1069.55 7L1070.35 7L1070.35 3.72L1071.54 3.72L1073.77 7ZM1081.79 1.93L1082.47 1.93L1082.47 -0.65L1077.01 -0.65L1077.01 1.93L1077.69 1.93L1077.69 0.03L1079.34 0.03L1079.34 6.31L1078.1 6.31L1078.1 7L1081.38 7L1081.38 6.31L1080.15 6.31L1080.15 0.03L1081.79 0.03L1081.79 1.93ZM1089.19 7L1090.18 7L1087.18 2.69L1090.18 -0.65L1089.13 -0.65L1085.85 3.07L1085.85 -0.65L1085.05 -0.65L1085.05 7L1085.85 7L1085.85 4.15L1086.66 3.25L1089.19 7ZM1097.48 7L1098.34 7L1095.8 -0.65L1094.71 -0.65L1092.17 7L1093.03 7L1093.74 4.81L1096.76 4.81L1097.48 7ZM1105.04 1.93L1105.73 1.93L1105.73 -0.65L1100.27 -0.65L1100.27 1.93L1100.94 1.93L1100.94 0.03L1102.59 0.03L1102.59 6.31L1101.35 6.31L1101.35 7L1104.63 7L1104.63 6.31L1103.4 6.31L1103.4 0.03L1105.04 0.03L1105.04 1.93ZM1112.46 7L1113.43 7L1110.43 2.69L1113.43 -0.65L1112.38 -0.65L1109.11 3.07L1109.11 -0.65L1108.3 -0.65L1108.3 7L1109.11 7L1109.11 4.15L1109.91 3.25L1112.46 7ZM1120.74 7L1121.6 7L1119.05 -0.65L1117.96 -0.65L1115.42 7L1116.28 7L1116.99 4.81L1120.01 4.81L1120.74 7ZM1128.03 7L1129.05 7L1126.75 3.68Q1127.23 3.65 1127.63 3.49Q1128.04 3.32 1128.32 3.05Q1128.39 3 1128.43 2.95Q1128.66 2.71 1128.8 2.4Q1128.97 2.01 1128.97 1.53Q1128.97 0.7 1128.56 0.18Q1128.43 0.02 1128.28 -0.1Q1127.57 -0.65 1126.31 -0.65L1123.8 -0.65L1123.8 7L1124.61 7L1124.61 3.72L1125.8 3.72L1128.03 7ZM1136.04 1.93L1136.73 1.93L1136.73 -0.65L1131.27 -0.65L1131.27 1.93L1131.94 1.93L1131.94 0.03L1133.59 0.03L1133.59 6.31L1132.36 6.31L1132.36 7L1135.63 7L1135.63 6.31L1134.4 6.31L1134.4 0.03L1136.04 0.03L1136.04 1.93ZM1143.46 7L1144.43 7L1141.43 2.69L1144.43 -0.65L1143.38 -0.65L1140.11 3.07L1140.11 -0.65L1139.31 -0.65L1139.31 7L1140.11 7L1140.11 4.15L1140.92 3.25L1143.46 7ZM1151.74 7L1152.6 7L1150.06 -0.65L1148.97 -0.65L1146.42 7L1147.29 7L1147.99 4.81L1151.02 4.81L1151.74 7ZM1159.3 1.93L1159.98 1.93L1159.98 -0.65L1154.52 -0.65L1154.52 1.93L1155.21 1.93L1155.21 0.03L1156.85 0.03L1156.85 6.31L1155.61 6.31L1155.61 7L1158.89 7L1158.89 6.31L1157.65 6.31L1157.65 0.03L1159.3 0.03L1159.3 1.93ZM1166.71 7L1167.69 7L1164.69 2.69L1167.69 -0.65L1166.64 -0.65L1163.36 3.07L1163.36 -0.65L1162.56 -0.65L1162.56 7L1163.36 7L1163.36 4.15L1164.17 3.25L1166.71 7ZM1174.99 7L1175.85 7L1173.31 -0.65L1172.22 -0.65L1169.68 7L1170.54 7L1171.25 4.81L1174.27 4.81L1174.99 7ZM1182.28 7L1183.3 7L1181 3.68Q1181.48 3.65 1181.89 3.49Q1182.3 3.32 1182.59 3.05Q1182.64 3 1182.68 2.95Q1182.91 2.71 1183.05 2.4Q1183.22 2.01 1183.22 1.53Q1183.22 0.7 1182.81 0.18Q1182.68 0.02 1182.53 -0.1Q1181.84 -0.65 1180.57 -0.65L1178.06 -0.65L1178.06 7L1178.86 7L1178.86 3.72L1180.05 3.72L1182.28 7ZM1190.3 1.93L1190.98 1.93L1190.98 -0.65L1185.52 -0.65L1185.52 1.93L1186.21 1.93L1186.21 0.03L1187.85 0.03L1187.85 6.31L1186.61 6.31L1186.61 7L1189.89 7L1189.89 6.31L1188.66 6.31L1188.66 0.03L1190.3 0.03L1190.3 1.93ZM1197.72 7L1198.69 7L1195.69 2.69L1198.69 -0.65L1197.64 -0.65L1194.36 3.07L1194.36 -0.65L1193.56 -0.65L1193.56 7L1194.36 7L1194.36 4.15L1195.17 3.25L1197.72 7ZM1205.99 7L1206.85 7L1204.31 -0.65L1203.22 -0.65L1200.68 7L1201.54 7L1202.25 4.81L1205.27 4.81L1205.99 7ZM1213.55 1.93L1214.24 1.93L1214.24 -0.65L1208.78 -0.65L1208.78 1.93L1209.46 1.93L1209.46 0.03L1211.1 0.03L1211.1 6.31L1209.87 6.31L1209.87 7L1213.14 7L1213.14 6.31L1211.91 6.31L1211.91 0.03L1213.55 0.03L1213.55 1.93ZM1220.97 7L1221.94 7L1218.94 2.69L1221.94 -0.65L1220.89 -0.65L1217.62 3.07L1217.62 -0.65L1216.81 -0.65L1216.81 7L1217.62 7L1217.62 4.15L1218.42 3.25L1220.97 7ZM1229.25 7L1230.11 7L1227.56 -0.65L1226.47 -0.65L1223.93 7L1224.79 7L1225.5 4.81L1228.52 4.81L1229.25 7ZM1236.54 7L1237.56 7L1235.26 3.68Q1235.74 3.65 1236.14 3.49Q1236.55 3.32 1236.84 3.05Q1236.9 3 1236.94 2.95Q1237.17 2.71 1237.31 2.4Q1237.48 2.01 1237.48 1.53Q1237.48 0.7 1237.06 0.18Q1236.94 0.02 1236.79 -0.1Q1236.09 -0.65 1234.82 -0.65L1232.31 -0.65L1232.31 7L1233.12 7L1233.12 3.72L1234.31 3.72L1236.54 7ZM1244.55 1.93L1245.24 1.93L1245.24 -0.65L1239.78 -0.65L1239.78 1.93L1240.46 1.93L1240.46 0.03L1242.1 0.03L1242.1 6.31L1240.87 6.31L1240.87 7L1244.14 7L1244.14 6.31L1242.91 6.31L1242.91 0.03L1244.55 0.03L1244.55 1.93ZM1251.97 7L1252.94 7L1249.94 2.69L1252.94 -0.65L1251.89 -0.65L1248.62 3.07L1248.62 -0.65L1247.81 -0.65L1247.81 7L1248.62 7L1248.62 4.15L1249.43 3.25L1251.97 7ZM1260.25 7L1261.11 7L1258.56 -0.65L1257.48 -0.65L1254.93 7L1255.8 7L1256.5 4.81L1259.53 4.81L1260.25 7ZM1267.81 1.93L1268.49 1.93L1268.49 -0.65L1263.03 -0.65L1263.03 1.93L1263.72 1.93L1263.72 0.03L1265.36 0.03L1265.36 6.31L1264.12 6.31L1264.12 7L1267.4 7L1267.4 6.31L1266.17 6.31L1266.17 0.03L1267.81 0.03L1267.81 1.93ZM1275.22 7L1276.21 7L1273.21 2.69L1276.21 -0.65L1275.15 -0.65L1271.87 3.07L1271.87 -0.65L1271.06 -0.65L1271.06 7L1271.87 7L1271.87 4.15L1272.68 3.25L1275.22 7ZM1283.5 7L1284.36 7L1281.81 -0.65L1280.73 -0.65L1278.18 7L1279.05 7L1279.76 4.81L1282.78 4.81L1283.5 7ZM1290.79 7L1291.81 7L1289.51 3.68Q1289.99 3.65 1290.4 3.49Q1290.81 3.32 1291.1 3.05Q1291.15 3 1291.19 2.95Q1291.42 2.71 1291.56 2.4Q1291.73 2.01 1291.73 1.53Q1291.73 0.7 1291.32 0.18Q1291.19 0.02 1291.04 -0.1Q1290.35 -0.65 1289.09 -0.65L1286.56 -0.65L1286.56 7L1287.37 7L1287.37 3.72L1288.56 3.72L1290.79 7ZM1298.81 1.93L1299.49 1.93L1299.49 -0.65L1294.03 -0.65L1294.03 1.93L1294.72 1.93L1294.72 0.03L1296.36 0.03L1296.36 6.31L1295.12 6.31L1295.12 7L1298.4 7L1298.4 6.31L1297.17 6.31L1297.17 0.03L1298.81 0.03L1298.81 1.93ZM1306.23 7L1307.21 7L1304.21 2.69L1307.21 -0.65L1306.15 -0.65L1302.87 3.07L1302.87 -0.65L1302.06 -0.65L1302.06 7L1302.87 7L1302.87 4.15L1303.68 3.25L1306.23 7ZM1314.5 7L1315.36 7L1312.82 -0.65L1311.73 -0.65L1309.18 7L1310.05 7L1310.76 4.81L1313.78 4.81L1314.5 7ZM1322.06 1.93L1322.75 1.93L1322.75 -0.65L1317.29 -0.65L1317.29 1.93L1317.97 1.93L1317.97 0.03L1319.61 0.03L1319.61 6.31L1318.38 6.31L1318.38 7L1321.65 7L1321.65 6.31L1320.42 6.31L1320.42 0.03L1322.06 0.03L1322.06 1.93ZM1329.48 7L1330.46 7L1327.46 2.69L1330.46 -0.65L1329.4 -0.65L1326.13 3.07L1326.13 -0.65L1325.32 -0.65L1325.32 7L1326.13 7L1326.13 4.15L1326.93 3.25L1329.48 7ZM1337.76 7L1338.62 7L1336.07 -0.65L1334.98 -0.65L1332.44 7L1333.3 7L1334.01 4.81L1337.04 4.81L1337.76 7ZM1345.05 7L1346.07 7L1343.77 3.68Q1344.25 3.65 1344.65 3.49Q1345.06 3.32 1345.35 3.05Q1345.41 3 1345.46 2.95Q1345.68 2.71 1345.82 2.4Q1345.99 2.01 1345.99 1.53Q1345.99 0.7 1345.58 0.18Q1345.46 0.02 1345.3 -0.1Q1344.6 -0.65 1343.34 -0.65L1340.82 -0.65L1340.82 7L1341.63 7L1341.63 3.72L1342.82 3.72L1345.05 7ZM1353.06 1.93L1353.75 1.93L1353.75 -0.65L1348.29 -0.65L1348.29 1.93L1348.97 1.93L1348.97 0.03L1350.61 0.03L1350.61 6.31L1349.38 6.31L1349.38 7L1352.65 7L1352.65 6.31L1351.42 6.31L1351.42 0.03L1353.06 0.03L1353.06 1.93ZM1360.48 7L1361.46 7L1358.46 2.69L1361.46 -0.65L1360.4 -0.65L1357.13 3.07L1357.13 -0.65L1356.33 -0.65L1356.33 7L1357.13 7L1357.13 4.15L1357.94 3.25L1360.48 7ZM1368.76 7L1369.62 7L1367.08 -0.65L1365.99 -0.65L1363.44 7L1364.31 7L1365.01 4.81L1368.04 4.81L1368.76 7ZM1376.32 1.93L1377 1.93L1377 -0.65L1371.54 -0.65L1371.54 1.93L1372.23 1.93L1372.23 0.03L1373.87 0.03L1373.87 6.31L1372.63 6.31L1372.63 7L1375.91 7L1375.91 6.31L1374.68 6.31L1374.68 0.03L1376.32 0.03L1376.32 1.93ZM1383.73 7L1384.72 7L1381.72 2.69L1384.72 -0.65L1383.66 -0.65L1380.38 3.07L1380.38 -0.65L1379.58 -0.65L1379.58 7L1380.38 7L1380.38 4.15L1381.19 3.25L1383.73 7ZM1392.01 7L1392.87 7L1390.33 -0.65L1389.24 -0.65L1386.7 7L1387.56 7L1388.27 4.81L1391.29 4.81L1392.01 7ZM1399.3 7L1400.32 7L1398.02 3.68Q1398.5 3.65 1398.91 3.49Q1399.32 3.32 1399.61 3.05Q1399.66 3 1399.71 2.95Q1399.93 2.71 1400.07 2.4Q1400.24 2.01 1400.24 1.53Q1400.24 0.7 1399.84 0.18Q1399.71 0.02 1399.55 -0.1Q1398.86 -0.65 1397.6 -0.65L1395.08 -0.65L1395.08 7L1395.88 7L1395.88 3.72L1397.07 3.72L1399.3 7ZM1407.32 1.93L1408 1.93L1408 -0.65L1402.54 -0.65L1402.54 1.93L1403.23 1.93L1403.23 0.03L1404.87 0.03L1404.87 6.31L1403.63 6.31L1403.63 7L1406.91 7L1406.91 6.31L1405.68 6.31L1405.68 0.03L1407.32 0.03L1407.32 1.93ZM1414.74 7L1415.72 7L1412.72 2.69L1415.72 -0.65L1414.66 -0.65L1411.38 3.07L1411.38 -0.65L1410.58 -0.65L1410.58 7L1411.38 7L1411.38 4.15L1412.19 3.25L1414.74 7ZM1423.01 7L1423.88 7L1421.33 -0.65L1420.24 -0.65L1417.7 7L1418.56 7L1419.27 4.81L1422.29 4.81L1423.01 7ZM1430.57 1.93L1431.26 1.93L1431.26 -0.65L1425.8 -0.65L1425.8 1.93L1426.48 1.93L1426.48 0.03L1428.12 0.03L1428.12 6.31L1426.89 6.31L1426.89 7L1430.16 7L1430.16 6.31L1428.93 6.31L1428.93 0.03L1430.57 0.03L1430.57 1.93ZM42.71 0.56Q43.02 0.91 43.02 1.53Q43.02 2.18 42.7 2.53Q42.63 2.61 42.54 2.68Q42.05 3.03 41.21 3.03L39.49 3.03L39.49 0.03L41.21 0.03Q42.05 0.03 42.54 0.39Q42.63 0.47 42.71 0.56ZM96.97 0.56Q97.28 0.91 97.28 1.53Q97.28 2.18 96.95 2.53Q96.88 2.61 96.79 2.68Q96.31 3.03 95.46 3.03L93.75 3.03L93.75 0.03L95.46 0.03Q96.31 0.03 96.79 0.39Q96.89 0.47 96.97 0.56ZM151.22 0.56Q151.53 0.91 151.53 1.53Q151.53 2.18 151.21 2.53Q151.14 2.61 151.05 2.68Q150.56 3.03 149.72 3.03L148 3.03L148 0.03L149.72 0.03Q150.56 0.03 151.05 0.39Q151.14 0.47 151.22 0.56ZM205.48 0.56Q205.79 0.91 205.79 1.53Q205.79 2.18 205.47 2.53Q205.39 2.61 205.3 2.68Q204.82 3.03 203.98 3.03L202.26 3.03L202.26 0.03L203.98 0.03Q204.82 0.03 205.3 0.39Q205.4 0.47 205.48 0.56ZM259.73 0.56Q260.04 0.91 260.04 1.53Q260.04 2.18 259.72 2.53Q259.65 2.61 259.56 2.68Q259.07 3.03 258.23 3.03L256.51 3.03L256.51 0.03L258.23 0.03Q259.07 0.03 259.56 0.39Q259.66 0.47 259.73 0.56ZM313.99 0.56Q314.3 0.91 314.3 1.53Q314.3 2.18 313.98 2.53Q313.9 2.61 313.81 2.68Q313.33 3.03 312.49 3.03L310.77 3.03L310.77 0.03L312.49 0.03Q313.33 0.03 313.81 0.39Q313.91 0.47 313.99 0.56ZM368.25 0.56Q368.55 0.91 368.55 1.53Q368.55 2.18 368.23 2.53Q368.16 2.61 368.07 2.68Q367.59 3.03 366.74 3.03L365.03 3.03L365.03 0.03L366.74 0.03Q367.59 0.03 368.07 0.39Q368.17 0.47 368.25 0.56ZM422.5 0.56Q422.81 0.91 422.81 1.53Q422.81 2.18 422.49 2.53Q422.42 2.61 422.33 2.68Q421.84 3.03 421 3.03L419.28 3.03L419.28 0.03L421 0.03Q421.84 0.03 422.33 0.39Q422.42 0.47 422.5 0.56ZM476.76 0.56Q477.06 0.91 477.06 1.53Q477.06 2.18 476.74 2.53Q476.67 2.61 476.58 2.68Q476.1 3.03 475.25 3.03L473.54 3.03L473.54 0.03L475.25 0.03Q476.1 0.03 476.58 0.39Q476.68 0.47 476.76 0.56ZM531.01 0.56Q531.32 0.91 531.32 1.53Q531.32 2.18 531 2.53Q530.93 2.61 530.84 2.68Q530.35 3.03 529.51 3.03L527.79 3.03L527.79 0.03L529.51 0.03Q530.35 0.03 530.84 0.39Q530.93 0.47 531.01 0.56ZM585.27 0.56Q585.58 0.91 585.58 1.53Q585.58 2.18 585.25 2.53Q585.18 2.61 585.09 2.68Q584.61 3.03 583.76 3.03L582.05 3.03L582.05 0.03L583.76 0.03Q584.61 0.03 585.09 0.39Q585.19 0.47 585.27 0.56ZM639.52 0.56Q639.83 0.91 639.83 1.53Q639.83 2.18 639.51 2.53Q639.44 2.61 639.35 2.68Q638.86 3.03 638.02 3.03L636.3 3.03L636.3 0.03L638.02 0.03Q638.86 0.03 639.35 0.39Q639.45 0.47 639.52 0.56ZM693.78 0.56Q694.09 0.91 694.09 1.53Q694.09 2.18 693.77 2.53Q693.69 2.61 693.6 2.68Q693.12 3.03 692.28 3.03L690.56 3.03L690.56 0.03L692.28 0.03Q693.12 0.03 693.6 0.39Q693.7 0.47 693.78 0.56ZM748.03 0.56Q748.34 0.91 748.34 1.53Q748.34 2.18 748.02 2.53Q747.95 2.61 747.86 2.68Q747.38 3.03 746.53 3.03L744.81 3.03L744.81 0.03L746.53 0.03Q747.38 0.03 747.86 0.39Q747.96 0.47 748.03 0.56ZM802.29 0.56Q802.6 0.91 802.6 1.53Q802.6 2.18 802.28 2.53Q802.2 2.61 802.11 2.68Q801.63 3.03 800.79 3.03L799.07 3.03L799.07 0.03L800.79 0.03Q801.63 0.03 802.11 0.39Q802.21 0.47 802.29 0.56ZM856.55 0.56Q856.85 0.91 856.85 1.53Q856.85 2.18 856.53 2.53Q856.46 2.61 856.37 2.68Q855.89 3.03 855.04 3.03L853.33 3.03L853.33 0.03L855.04 0.03Q855.89 0.03 856.37 0.39Q856.47 0.47 856.55 0.56ZM910.8 0.56Q911.11 0.91 911.11 1.53Q911.11 2.18 910.79 2.53Q910.72 2.61 910.63 2.68Q910.14 3.03 909.3 3.03L907.58 3.03L907.58 0.03L909.3 0.03Q910.14 0.03 910.63 0.39Q910.72 0.47 910.8 0.56ZM965.06 0.56Q965.36 0.91 965.36 1.53Q965.36 2.18 965.04 2.53Q964.97 2.61 964.88 2.68Q964.4 3.03 963.55 3.03L961.84 3.03L961.84 0.03L963.55 0.03Q964.4 0.03 964.88 0.39Q964.98 0.47 965.06 0.56ZM1019.32 0.56Q1019.62 0.91 1019.62 1.53Q1019.62 2.18 1019.3 2.53Q1019.23 2.61 1019.14 2.68Q1018.66 3.03 1017.81 3.03L1016.1 3.03L1016.1 0.03L1017.81 0.03Q1018.66 0.03 1019.14 0.39Q1019.24 0.47 1019.32 0.56ZM1073.56 0.56Q1073.88 0.91 1073.88 1.53Q1073.88 2.18 1073.56 2.53Q1073.49 2.61 1073.4 2.68Q1072.91 3.03 1072.06 3.03L1070.35 3.03L1070.35 0.03L1072.06 0.03Q1072.91 0.03 1073.4 0.39Q1073.49 0.47 1073.56 0.56ZM1127.82 0.56Q1128.13 0.91 1128.13 1.53Q1128.13 2.18 1127.81 2.53Q1127.74 2.61 1127.65 2.68Q1127.17 3.03 1126.31 3.03L1124.61 3.03L1124.61 0.03L1126.31 0.03Q1127.17 0.03 1127.65 0.39Q1127.75 0.47 1127.82 0.56ZM1182.07 0.56Q1182.39 0.91 1182.39 1.53Q1182.39 2.18 1182.06 2.53Q1182 2.61 1181.91 2.68Q1181.42 3.03 1180.57 3.03L1178.86 3.03L1178.86 0.03L1180.57 0.03Q1181.42 0.03 1181.91 0.39Q1182 0.47 1182.07 0.56ZM1236.34 0.56Q1236.64 0.91 1236.64 1.53Q1236.64 2.18 1236.31 2.53Q1236.25 2.61 1236.16 2.68Q1235.68 3.03 1234.82 3.03L1233.12 3.03L1233.12 0.03L1234.82 0.03Q1235.68 0.03 1236.16 0.39Q1236.26 0.47 1236.34 0.56ZM1290.59 0.56Q1290.9 0.91 1290.9 1.53Q1290.9 2.18 1290.57 2.53Q1290.51 2.61 1290.42 2.68Q1289.93 3.03 1289.09 3.03L1287.37 3.03L1287.37 0.03L1289.09 0.03Q1289.93 0.03 1290.42 0.39Q1290.51 0.47 1290.59 0.56ZM1344.85 0.56Q1345.15 0.91 1345.15 1.53Q1345.15 2.18 1344.83 2.53Q1344.76 2.61 1344.67 2.68Q1344.19 3.03 1343.34 3.03L1341.63 3.03L1341.63 0.03L1343.34 0.03Q1344.19 0.03 1344.67 0.39Q1344.77 0.47 1344.85 0.56ZM1399.1 0.56Q1399.41 0.91 1399.41 1.53Q1399.41 2.18 1399.09 2.53Q1399.02 2.61 1398.93 2.68Q1398.44 3.03 1397.6 3.03L1395.88 3.03L1395.88 0.03L1397.6 0.03Q1398.44 0.03 1398.93 0.39Q1399.02 0.47 1399.1 0.56ZM10.14 0.16L11.42 4.1L8.85 4.1L10.14 0.16ZM33.39 0.16L34.67 4.1L32.1 4.1L33.39 0.16ZM64.39 0.16L65.67 4.1L63.11 4.1L64.39 0.16ZM87.64 0.16L88.93 4.1L86.36 4.1L87.64 0.16ZM118.65 0.16L119.93 4.1L117.36 4.1L118.65 0.16ZM141.9 0.16L143.18 4.1L140.62 4.1L141.9 0.16ZM172.9 0.16L174.19 4.1L171.62 4.1L172.9 0.16ZM196.15 0.16L197.44 4.1L194.87 4.1L196.15 0.16ZM227.16 0.16L228.44 4.1L225.87 4.1L227.16 0.16ZM250.41 0.16L251.69 4.1L249.13 4.1L250.41 0.16ZM281.41 0.16L282.7 4.1L280.13 4.1L281.41 0.16ZM304.67 0.16L305.95 4.1L303.38 4.1L304.67 0.16ZM335.67 0.16L336.95 4.1L334.39 4.1L335.67 0.16ZM358.92 0.16L360.2 4.1L357.64 4.1L358.92 0.16ZM389.92 0.16L391.21 4.1L388.64 4.1L389.92 0.16ZM413.18 0.16L414.46 4.1L411.89 4.1L413.18 0.16ZM444.18 0.16L445.46 4.1L442.9 4.1L444.18 0.16ZM467.43 0.16L468.72 4.1L466.15 4.1L467.43 0.16ZM498.44 0.16L499.72 4.1L497.15 4.1L498.44 0.16ZM521.69 0.16L522.97 4.1L520.4 4.1L521.69 0.16ZM552.69 0.16L553.97 4.1L551.41 4.1L552.69 0.16ZM575.94 0.16L577.23 4.1L574.66 4.1L575.94 0.16ZM606.95 0.16L608.23 4.1L605.66 4.1L606.95 0.16ZM630.2 0.16L631.48 4.1L628.92 4.1L630.2 0.16ZM661.2 0.16L662.49 4.1L659.92 4.1L661.2 0.16ZM684.45 0.16L685.74 4.1L683.17 4.1L684.45 0.16ZM715.46 0.16L716.74 4.1L714.17 4.1L715.46 0.16ZM738.71 0.16L739.99 4.1L737.43 4.1L738.71 0.16ZM769.71 0.16L771 4.1L768.43 4.1L769.71 0.16ZM792.97 0.16L794.25 4.1L791.68 4.1L792.97 0.16ZM823.97 0.16L825.25 4.1L822.69 4.1L823.97 0.16ZM847.22 0.16L848.5 4.1L845.94 4.1L847.22 0.16ZM878.22 0.16L879.51 4.1L876.94 4.1L878.22 0.16ZM901.48 0.16L902.76 4.1L900.19 4.1L901.48 0.16ZM932.48 0.16L933.76 4.1L931.2 4.1L932.48 0.16ZM955.73 0.16L957.02 4.1L954.45 4.1L955.73 0.16ZM986.74 0.16L988.02 4.1L985.45 4.1L986.74 0.16ZM1009.99 0.16L1011.28 4.1L1008.71 4.1L1009.99 0.16ZM1041 0.16L1042.28 4.1L1039.71 4.1L1041 0.16ZM1064.25 0.16L1065.53 4.1L1062.96 4.1L1064.25 0.16ZM1095.25 0.16L1096.53 4.1L1093.97 4.1L1095.25 0.16ZM1118.5 0.16L1119.79 4.1L1117.22 4.1L1118.5 0.16ZM1149.51 0.16L1150.79 4.1L1148.22 4.1L1149.51 0.16ZM1172.76 0.16L1174.04 4.1L1171.47 4.1L1172.76 0.16ZM1203.76 0.16L1205.04 4.1L1202.48 4.1L1203.76 0.16ZM1227.01 0.16L1228.3 4.1L1225.73 4.1L1227.01 0.16ZM1258.02 0.16L1259.3 4.1L1256.73 4.1L1258.02 0.16ZM1281.27 0.16L1282.55 4.1L1279.98 4.1L1281.27 0.16ZM1312.27 0.16L1313.55 4.1L1310.99 4.1L1312.27 0.16ZM1335.52 0.16L1336.81 4.1L1334.24 4.1L1335.52 0.16ZM1366.53 0.16L1367.81 4.1L1365.24 4.1L1366.53 0.16ZM1389.78 0.16L1391.06 4.1L1388.5 4.1L1389.78 0.16ZM1420.78 0.16L1422.06 4.1L1419.5 4.1L1420.78 0.16Z" fill="#E0E0E0" fill-opacity="1.000000" fill-rule="evenodd"/>
</svg>
