<svg width="1440" height="12" viewBox="0 0 1440 12" fill="none" xmlns="http://www.w3.org/2000/svg">
<rect width="1440" height="12" fill="#F9F9F9"/>
<path d="M9.07849 9.64648H8.09412L5.55115 5.90234L4.74255 6.80469V9.64648H3.93982V2H4.74255V5.7207L8.01794 2H9.07849L6.07849 5.33984L9.07849 9.64648Z" fill="#E0E0E0"/>
<path d="M17.2336 9.64648H16.3722L15.6515 7.46094H12.6281L11.9191 9.64648H11.0578L13.6008 2H14.6906L17.2336 9.64648ZM15.423 6.75195L14.1398 2.80859L12.8566 6.75195H15.423Z" fill="#E0E0E0"/>
<path d="M24.6152 4.58398H23.9297V2.68555H22.289V8.96094H23.5195V9.64648H20.2441V8.96094H21.4804V2.68555H19.8398V4.58398H19.1543V2H24.6152V4.58398Z" fill="#E0E0E0"/>
<path d="M32.3308 9.64648H31.3465L28.8035 5.90234L27.9949 6.80469V9.64648H27.1922V2H27.9949V5.7207L31.2703 2H32.3308L29.3308 5.33984L32.3308 9.64648Z" fill="#E0E0E0"/>
<path d="M40.4859 9.64648H39.6246L38.9039 7.46094H35.8804L35.1715 9.64648H34.3101L36.8531 2H37.9429L40.4859 9.64648ZM38.6754 6.75195L37.3922 2.80859L36.109 6.75195H38.6754Z" fill="#E0E0E0"/>
<path d="M47.9379 9.64648H46.9183L44.6859 6.37109H43.4965V9.64648H42.6937V2H45.2133C46.0531 2 46.7035 2.18359 47.1644 2.55078C47.6254 2.91406 47.8558 3.45898 47.8558 4.18555C47.8558 4.50586 47.7992 4.79492 47.6859 5.05273C47.5726 5.30664 47.4183 5.52344 47.223 5.70312C47.0277 5.88281 46.7933 6.02734 46.5199 6.13672C46.2504 6.24609 45.9554 6.3125 45.6351 6.33594L47.9379 9.64648ZM47.0238 4.18555C47.0238 3.66602 46.8617 3.28711 46.5375 3.04883C46.2172 2.80664 45.7758 2.68555 45.2133 2.68555H43.4965V5.68555H45.2133C45.7758 5.68555 46.2172 5.56836 46.5375 5.33398C46.8617 5.0957 47.0238 4.71289 47.0238 4.18555Z" fill="#E0E0E0"/>
<path d="M55.6183 4.58398H54.9328V2.68555H53.2922V8.96094H54.5226V9.64648H51.2472V8.96094H52.4836V2.68555H50.8429V4.58398H50.1574V2H55.6183V4.58398Z" fill="#E0E0E0"/>
<path d="M63.334 9.64648H62.3496L59.8066 5.90234L58.998 6.80469V9.64648H58.1953V2H58.998V5.7207L62.2734 2H63.334L60.334 5.33984L63.334 9.64648Z" fill="#E0E0E0"/>
<path d="M71.489 9.64648H70.6277L69.907 7.46094H66.8836L66.1746 9.64648H65.3133L67.8562 2H68.9461L71.489 9.64648ZM69.6785 6.75195L68.3953 2.80859L67.1121 6.75195H69.6785Z" fill="#E0E0E0"/>
<path d="M78.8707 4.58398H78.1851V2.68555H76.5445V8.96094H77.775V9.64648H74.4996V8.96094H75.7359V2.68555H74.0953V4.58398H73.4097V2H78.8707V4.58398Z" fill="#E0E0E0"/>
<path d="M86.5863 9.64648H85.6019L83.059 5.90234L82.2504 6.80469V9.64648H81.4476V2H82.2504V5.7207L85.5258 2H86.5863L83.5863 5.33984L86.5863 9.64648Z" fill="#E0E0E0"/>
<path d="M94.7414 9.64648H93.8801L93.1593 7.46094H90.1359L89.4269 9.64648H88.5656L91.1086 2H92.1984L94.7414 9.64648ZM92.9308 6.75195L91.6476 2.80859L90.3644 6.75195H92.9308Z" fill="#E0E0E0"/>
<path d="M102.193 9.64648H101.174L98.9414 6.37109H97.7519V9.64648H96.9492V2H99.4687C100.309 2 100.959 2.18359 101.42 2.55078C101.881 2.91406 102.111 3.45898 102.111 4.18555C102.111 4.50586 102.055 4.79492 101.941 5.05273C101.828 5.30664 101.674 5.52344 101.478 5.70312C101.283 5.88281 101.049 6.02734 100.775 6.13672C100.506 6.24609 100.211 6.3125 99.8906 6.33594L102.193 9.64648ZM101.279 4.18555C101.279 3.66602 101.117 3.28711 100.793 3.04883C100.473 2.80664 100.031 2.68555 99.4687 2.68555H97.7519V5.68555H99.4687C100.031 5.68555 100.473 5.56836 100.793 5.33398C101.117 5.0957 101.279 4.71289 101.279 4.18555Z" fill="#E0E0E0"/>
<path d="M109.874 4.58398H109.188V2.68555H107.548V8.96094H108.778V9.64648H105.503V8.96094H106.739V2.68555H105.098V4.58398H104.413V2H109.874V4.58398Z" fill="#E0E0E0"/>
<path d="M117.589 9.64648H116.605L114.062 5.90234L113.253 6.80469V9.64648H112.451V2H113.253V5.7207L116.529 2H117.589L114.589 5.33984L117.589 9.64648Z" fill="#E0E0E0"/>
<path d="M125.745 9.64648H124.883L124.162 7.46094H121.139L120.43 9.64648H119.569L122.112 2H123.202L125.745 9.64648ZM123.934 6.75195L122.651 2.80859L121.368 6.75195H123.934Z" fill="#E0E0E0"/>
<path d="M133.126 4.58398H132.441V2.68555H130.8V8.96094H132.03V9.64648H128.755V8.96094H129.991V2.68555H128.351V4.58398H127.665V2H133.126V4.58398Z" fill="#E0E0E0"/>
<path d="M140.842 9.64648H139.857L137.314 5.90234L136.506 6.80469V9.64648H135.703V2H136.506V5.7207L139.781 2H140.842L137.842 5.33984L140.842 9.64648Z" fill="#E0E0E0"/>
<path d="M148.997 9.64648H148.136L147.415 7.46094H144.391L143.682 9.64648H142.821L145.364 2H146.454L148.997 9.64648ZM147.186 6.75195L145.903 2.80859L144.62 6.75195H147.186Z" fill="#E0E0E0"/>
<path d="M156.449 9.64648H155.429L153.197 6.37109H152.007V9.64648H151.205V2H153.724C154.564 2 155.214 2.18359 155.675 2.55078C156.136 2.91406 156.367 3.45898 156.367 4.18555C156.367 4.50586 156.31 4.79492 156.197 5.05273C156.084 5.30664 155.929 5.52344 155.734 5.70312C155.539 5.88281 155.304 6.02734 155.031 6.13672C154.761 6.24609 154.466 6.3125 154.146 6.33594L156.449 9.64648ZM155.535 4.18555C155.535 3.66602 155.373 3.28711 155.048 3.04883C154.728 2.80664 154.287 2.68555 153.724 2.68555H152.007V5.68555H153.724C154.287 5.68555 154.728 5.56836 155.048 5.33398C155.373 5.0957 155.535 4.71289 155.535 4.18555Z" fill="#E0E0E0"/>
<path d="M164.129 4.58398H163.444V2.68555H161.803V8.96094H163.034V9.64648H159.758V8.96094H160.995V2.68555H159.354V4.58398H158.668V2H164.129V4.58398Z" fill="#E0E0E0"/>
<path d="M171.845 9.64648H170.861L168.318 5.90234L167.509 6.80469V9.64648H166.706V2H167.509V5.7207L170.784 2H171.845L168.845 5.33984L171.845 9.64648Z" fill="#E0E0E0"/>
<path d="M180 9.64648H179.139L178.418 7.46094H175.395L174.686 9.64648H173.824L176.367 2H177.457L180 9.64648ZM178.189 6.75195L176.906 2.80859L175.623 6.75195H178.189Z" fill="#E0E0E0"/>
<path d="M187.382 4.58398H186.696V2.68555H185.055V8.96094H186.286V9.64648H183.011V8.96094H184.247V2.68555H182.606V4.58398H181.921V2H187.382V4.58398Z" fill="#E0E0E0"/>
<path d="M195.097 9.64648H194.113L191.57 5.90234L190.761 6.80469V9.64648H189.959V2H190.761V5.7207L194.037 2H195.097L192.097 5.33984L195.097 9.64648Z" fill="#E0E0E0"/>
<path d="M203.252 9.64648H202.391L201.67 7.46094H198.647L197.938 9.64648H197.077L199.62 2H200.709L203.252 9.64648ZM201.442 6.75195L200.159 2.80859L198.875 6.75195H201.442Z" fill="#E0E0E0"/>
<path d="M210.704 9.64648H209.685L207.452 6.37109H206.263V9.64648H205.46V2H207.98C208.82 2 209.47 2.18359 209.931 2.55078C210.392 2.91406 210.622 3.45898 210.622 4.18555C210.622 4.50586 210.566 4.79492 210.452 5.05273C210.339 5.30664 210.185 5.52344 209.989 5.70312C209.794 5.88281 209.56 6.02734 209.286 6.13672C209.017 6.24609 208.722 6.3125 208.402 6.33594L210.704 9.64648ZM209.79 4.18555C209.79 3.66602 209.628 3.28711 209.304 3.04883C208.984 2.80664 208.542 2.68555 207.98 2.68555H206.263V5.68555H207.98C208.542 5.68555 208.984 5.56836 209.304 5.33398C209.628 5.0957 209.79 4.71289 209.79 4.18555Z" fill="#E0E0E0"/>
<path d="M218.385 4.58398H217.699V2.68555H216.059V8.96094H217.289V9.64648H214.014V8.96094H215.25V2.68555H213.609V4.58398H212.924V2H218.385V4.58398Z" fill="#E0E0E0"/>
<path d="M226.1 9.64648H225.116L222.573 5.90234L221.764 6.80469V9.64648H220.962V2H221.764V5.7207L225.04 2H226.1L223.1 5.33984L226.1 9.64648Z" fill="#E0E0E0"/>
<path d="M234.255 9.64648H233.394L232.673 7.46094H229.65L228.941 9.64648H228.08L230.623 2H231.712L234.255 9.64648ZM232.445 6.75195L231.162 2.80859L229.878 6.75195H232.445Z" fill="#E0E0E0"/>
<path d="M241.637 4.58398H240.952V2.68555H239.311V8.96094H240.541V9.64648H237.266V8.96094H238.502V2.68555H236.862V4.58398H236.176V2H241.637V4.58398Z" fill="#E0E0E0"/>
<path d="M249.353 9.64648H248.368L245.825 5.90234L245.017 6.80469V9.64648H244.214V2H245.017V5.7207L248.292 2H249.353L246.353 5.33984L249.353 9.64648Z" fill="#E0E0E0"/>
<path d="M257.508 9.64648H256.646L255.926 7.46094H252.902L252.193 9.64648H251.332L253.875 2H254.965L257.508 9.64648ZM255.697 6.75195L254.414 2.80859L253.131 6.75195H255.697Z" fill="#E0E0E0"/>
<path d="M264.96 9.64648H263.94L261.708 6.37109H260.518V9.64648H259.716V2H262.235C263.075 2 263.725 2.18359 264.186 2.55078C264.647 2.91406 264.878 3.45898 264.878 4.18555C264.878 4.50586 264.821 4.79492 264.708 5.05273C264.595 5.30664 264.44 5.52344 264.245 5.70312C264.05 5.88281 263.815 6.02734 263.542 6.13672C263.272 6.24609 262.977 6.3125 262.657 6.33594L264.96 9.64648ZM264.046 4.18555C264.046 3.66602 263.884 3.28711 263.559 3.04883C263.239 2.80664 262.798 2.68555 262.235 2.68555H260.518V5.68555H262.235C262.798 5.68555 263.239 5.56836 263.559 5.33398C263.884 5.0957 264.046 4.71289 264.046 4.18555Z" fill="#E0E0E0"/>
<path d="M272.64 4.58398H271.955V2.68555H270.314V8.96094H271.544V9.64648H268.269V8.96094H269.505V2.68555H267.865V4.58398H267.179V2H272.64V4.58398Z" fill="#E0E0E0"/>
<path d="M280.356 9.64648H279.371L276.828 5.90234L276.02 6.80469V9.64648H275.217V2H276.02V5.7207L279.295 2H280.356L277.356 5.33984L280.356 9.64648Z" fill="#E0E0E0"/>
<path d="M288.511 9.64648H287.65L286.929 7.46094H283.905L283.196 9.64648H282.335L284.878 2H285.968L288.511 9.64648ZM286.7 6.75195L285.417 2.80859L284.134 6.75195H286.7Z" fill="#E0E0E0"/>
<path d="M295.893 4.58398H295.207V2.68555H293.566V8.96094H294.797V9.64648H291.521V8.96094H292.758V2.68555H291.117V4.58398H290.432V2H295.893V4.58398Z" fill="#E0E0E0"/>
<path d="M303.608 9.64648H302.624L300.081 5.90234L299.272 6.80469V9.64648H298.47V2H299.272V5.7207L302.548 2H303.608L300.608 5.33984L303.608 9.64648Z" fill="#E0E0E0"/>
<path d="M311.763 9.64648H310.902L310.181 7.46094H307.158L306.449 9.64648H305.587L308.13 2H309.22L311.763 9.64648ZM309.953 6.75195L308.669 2.80859L307.386 6.75195H309.953Z" fill="#E0E0E0"/>
<path d="M319.215 9.64648H318.196L315.963 6.37109H314.774V9.64648H313.971V2H316.491C317.33 2 317.981 2.18359 318.442 2.55078C318.903 2.91406 319.133 3.45898 319.133 4.18555C319.133 4.50586 319.077 4.79492 318.963 5.05273C318.85 5.30664 318.696 5.52344 318.5 5.70312C318.305 5.88281 318.071 6.02734 317.797 6.13672C317.528 6.24609 317.233 6.3125 316.912 6.33594L319.215 9.64648ZM318.301 4.18555C318.301 3.66602 318.139 3.28711 317.815 3.04883C317.495 2.80664 317.053 2.68555 316.491 2.68555H314.774V5.68555H316.491C317.053 5.68555 317.495 5.56836 317.815 5.33398C318.139 5.0957 318.301 4.71289 318.301 4.18555Z" fill="#E0E0E0"/>
<path d="M326.896 4.58398H326.21V2.68555H324.57V8.96094H325.8V9.64648H322.525V8.96094H323.761V2.68555H322.12V4.58398H321.435V2H326.896V4.58398Z" fill="#E0E0E0"/>
<path d="M334.611 9.64648H333.627L331.084 5.90234L330.275 6.80469V9.64648H329.473V2H330.275V5.7207L333.551 2H334.611L331.611 5.33984L334.611 9.64648Z" fill="#E0E0E0"/>
<path d="M342.766 9.64648H341.905L341.184 7.46094H338.161L337.452 9.64648H336.591L339.134 2H340.223L342.766 9.64648ZM340.956 6.75195L339.673 2.80859L338.389 6.75195H340.956Z" fill="#E0E0E0"/>
<path d="M350.148 4.58398H349.462V2.68555H347.822V8.96094H349.052V9.64648H345.777V8.96094H347.013V2.68555H345.373V4.58398H344.687V2H350.148V4.58398Z" fill="#E0E0E0"/>
<path d="M357.864 9.64648H356.879L354.336 5.90234L353.528 6.80469V9.64648H352.725V2H353.528V5.7207L356.803 2H357.864L354.864 5.33984L357.864 9.64648Z" fill="#E0E0E0"/>
<path d="M366.019 9.64648H365.157L364.437 7.46094H361.413L360.704 9.64648H359.843L362.386 2H363.476L366.019 9.64648ZM364.208 6.75195L362.925 2.80859L361.642 6.75195H364.208Z" fill="#E0E0E0"/>
<path d="M373.471 9.64648H372.451L370.219 6.37109H369.029V9.64648H368.227V2H370.746C371.586 2 372.236 2.18359 372.697 2.55078C373.158 2.91406 373.389 3.45898 373.389 4.18555C373.389 4.50586 373.332 4.79492 373.219 5.05273C373.105 5.30664 372.951 5.52344 372.756 5.70312C372.561 5.88281 372.326 6.02734 372.053 6.13672C371.783 6.24609 371.488 6.3125 371.168 6.33594L373.471 9.64648ZM372.557 4.18555C372.557 3.66602 372.395 3.28711 372.07 3.04883C371.75 2.80664 371.309 2.68555 370.746 2.68555H369.029V5.68555H370.746C371.309 5.68555 371.75 5.56836 372.07 5.33398C372.395 5.0957 372.557 4.71289 372.557 4.18555Z" fill="#E0E0E0"/>
<path d="M381.151 4.58398H380.466V2.68555H378.825V8.96094H380.055V9.64648H376.78V8.96094H378.016V2.68555H376.376V4.58398H375.69V2H381.151V4.58398Z" fill="#E0E0E0"/>
<path d="M388.867 9.64648H387.882L385.339 5.90234L384.531 6.80469V9.64648H383.728V2H384.531V5.7207L387.806 2H388.867L385.867 5.33984L388.867 9.64648Z" fill="#E0E0E0"/>
<path d="M397.022 9.64648H396.161L395.44 7.46094H392.416L391.707 9.64648H390.846L393.389 2H394.479L397.022 9.64648ZM395.211 6.75195L393.928 2.80859L392.645 6.75195H395.211Z" fill="#E0E0E0"/>
<path d="M404.404 4.58398H403.718V2.68555H402.077V8.96094H403.308V9.64648H400.032V8.96094H401.269V2.68555H399.628V4.58398H398.943V2H404.404V4.58398Z" fill="#E0E0E0"/>
<path d="M412.119 9.64648H411.135L408.592 5.90234L407.783 6.80469V9.64648H406.98V2H407.783V5.7207L411.059 2H412.119L409.119 5.33984L412.119 9.64648Z" fill="#E0E0E0"/>
<path d="M420.274 9.64648H419.413L418.692 7.46094H415.669L414.96 9.64648H414.098L416.641 2H417.731L420.274 9.64648ZM418.464 6.75195L417.18 2.80859L415.897 6.75195H418.464Z" fill="#E0E0E0"/>
<path d="M427.726 9.64648H426.707L424.474 6.37109H423.285V9.64648H422.482V2H425.002C425.841 2 426.492 2.18359 426.953 2.55078C427.414 2.91406 427.644 3.45898 427.644 4.18555C427.644 4.50586 427.587 4.79492 427.474 5.05273C427.361 5.30664 427.207 5.52344 427.011 5.70312C426.816 5.88281 426.582 6.02734 426.308 6.13672C426.039 6.24609 425.744 6.3125 425.423 6.33594L427.726 9.64648ZM426.812 4.18555C426.812 3.66602 426.65 3.28711 426.326 3.04883C426.005 2.80664 425.564 2.68555 425.002 2.68555H423.285V5.68555H425.002C425.564 5.68555 426.005 5.56836 426.326 5.33398C426.65 5.0957 426.812 4.71289 426.812 4.18555Z" fill="#E0E0E0"/>
<path d="M435.407 4.58398H434.721V2.68555H433.08V8.96094H434.311V9.64648H431.036V8.96094H432.272V2.68555H430.631V4.58398H429.946V2H435.407V4.58398Z" fill="#E0E0E0"/>
<path d="M443.122 9.64648H442.138L439.595 5.90234L438.786 6.80469V9.64648H437.984V2H438.786V5.7207L442.062 2H443.122L440.122 5.33984L443.122 9.64648Z" fill="#E0E0E0"/>
<path d="M451.277 9.64648H450.416L449.695 7.46094H446.672L445.963 9.64648H445.102L447.645 2H448.734L451.277 9.64648ZM449.467 6.75195L448.184 2.80859L446.9 6.75195H449.467Z" fill="#E0E0E0"/>
<path d="M458.659 4.58398H457.973V2.68555H456.333V8.96094H457.563V9.64648H454.288V8.96094H455.524V2.68555H453.884V4.58398H453.198V2H458.659V4.58398Z" fill="#E0E0E0"/>
<path d="M466.375 9.64648H465.39L462.847 5.90234L462.039 6.80469V9.64648H461.236V2H462.039V5.7207L465.314 2H466.375L463.375 5.33984L466.375 9.64648Z" fill="#E0E0E0"/>
<path d="M474.53 9.64648H473.668L472.948 7.46094H469.924L469.215 9.64648H468.354L470.897 2H471.987L474.53 9.64648ZM472.719 6.75195L471.436 2.80859L470.153 6.75195H472.719Z" fill="#E0E0E0"/>
<path d="M481.982 9.64648H480.962L478.73 6.37109H477.54V9.64648H476.737V2H479.257C480.097 2 480.747 2.18359 481.208 2.55078C481.669 2.91406 481.9 3.45898 481.9 4.18555C481.9 4.50586 481.843 4.79492 481.73 5.05273C481.616 5.30664 481.462 5.52344 481.267 5.70312C481.071 5.88281 480.837 6.02734 480.564 6.13672C480.294 6.24609 479.999 6.3125 479.679 6.33594L481.982 9.64648ZM481.068 4.18555C481.068 3.66602 480.905 3.28711 480.581 3.04883C480.261 2.80664 479.82 2.68555 479.257 2.68555H477.54V5.68555H479.257C479.82 5.68555 480.261 5.56836 480.581 5.33398C480.905 5.0957 481.068 4.71289 481.068 4.18555Z" fill="#E0E0E0"/>
<path d="M489.662 4.58398H488.977V2.68555H487.336V8.96094H488.566V9.64648H485.291V8.96094H486.527V2.68555H484.887V4.58398H484.201V2H489.662V4.58398Z" fill="#E0E0E0"/>
<path d="M497.378 9.64648H496.393L493.85 5.90234L493.042 6.80469V9.64648H492.239V2H493.042V5.7207L496.317 2H497.378L494.378 5.33984L497.378 9.64648Z" fill="#E0E0E0"/>
<path d="M505.533 9.64648H504.671L503.951 7.46094H500.927L500.218 9.64648H499.357L501.9 2H502.99L505.533 9.64648ZM503.722 6.75195L502.439 2.80859L501.156 6.75195H503.722Z" fill="#E0E0E0"/>
<path d="M512.914 4.58398H512.229V2.68555H510.588V8.96094H511.819V9.64648H508.543V8.96094H509.78V2.68555H508.139V4.58398H507.453V2H512.914V4.58398Z" fill="#E0E0E0"/>
<path d="M520.63 9.64648H519.646L517.103 5.90234L516.294 6.80469V9.64648H515.491V2H516.294V5.7207L519.57 2H520.63L517.63 5.33984L520.63 9.64648Z" fill="#E0E0E0"/>
<path d="M528.785 9.64648H527.924L527.203 7.46094H524.18L523.471 9.64648H522.609L525.152 2H526.242L528.785 9.64648ZM526.975 6.75195L525.691 2.80859L524.408 6.75195H526.975Z" fill="#E0E0E0"/>
<path d="M536.237 9.64648H535.218L532.985 6.37109H531.796V9.64648H530.993V2H533.512C534.352 2 535.003 2.18359 535.464 2.55078C535.925 2.91406 536.155 3.45898 536.155 4.18555C536.155 4.50586 536.098 4.79492 535.985 5.05273C535.872 5.30664 535.718 5.52344 535.522 5.70312C535.327 5.88281 535.093 6.02734 534.819 6.13672C534.55 6.24609 534.255 6.3125 533.934 6.33594L536.237 9.64648ZM535.323 4.18555C535.323 3.66602 535.161 3.28711 534.837 3.04883C534.516 2.80664 534.075 2.68555 533.512 2.68555H531.796V5.68555H533.512C534.075 5.68555 534.516 5.56836 534.837 5.33398C535.161 5.0957 535.323 4.71289 535.323 4.18555Z" fill="#E0E0E0"/>
<path d="M543.918 4.58398H543.232V2.68555H541.591V8.96094H542.822V9.64648H539.546V8.96094H540.783V2.68555H539.142V4.58398H538.457V2H543.918V4.58398Z" fill="#E0E0E0"/>
<path d="M551.633 9.64648H550.649L548.106 5.90234L547.297 6.80469V9.64648H546.495V2H547.297V5.7207L550.573 2H551.633L548.633 5.33984L551.633 9.64648Z" fill="#E0E0E0"/>
<path d="M559.788 9.64648H558.927L558.206 7.46094H555.183L554.474 9.64648H553.612L556.155 2H557.245L559.788 9.64648ZM557.978 6.75195L556.695 2.80859L555.411 6.75195H557.978Z" fill="#E0E0E0"/>
<path d="M567.17 4.58398H566.484V2.68555H564.844V8.96094H566.074V9.64648H562.799V8.96094H564.035V2.68555H562.395V4.58398H561.709V2H567.17V4.58398Z" fill="#E0E0E0"/>
<path d="M574.885 9.64648H573.901L571.358 5.90234L570.55 6.80469V9.64648H569.747V2H570.55V5.7207L573.825 2H574.885L571.885 5.33984L574.885 9.64648Z" fill="#E0E0E0"/>
<path d="M583.041 9.64648H582.179L581.459 7.46094H578.435L577.726 9.64648H576.865L579.408 2H580.498L583.041 9.64648ZM581.23 6.75195L579.947 2.80859L578.664 6.75195H581.23Z" fill="#E0E0E0"/>
<path d="M590.493 9.64648H589.473L587.241 6.37109H586.051V9.64648H585.248V2H587.768C588.608 2 589.258 2.18359 589.719 2.55078C590.18 2.91406 590.411 3.45898 590.411 4.18555C590.411 4.50586 590.354 4.79492 590.241 5.05273C590.127 5.30664 589.973 5.52344 589.778 5.70312C589.582 5.88281 589.348 6.02734 589.075 6.13672C588.805 6.24609 588.51 6.3125 588.19 6.33594L590.493 9.64648ZM589.578 4.18555C589.578 3.66602 589.416 3.28711 589.092 3.04883C588.772 2.80664 588.33 2.68555 587.768 2.68555H586.051V5.68555H587.768C588.33 5.68555 588.772 5.56836 589.092 5.33398C589.416 5.0957 589.578 4.71289 589.578 4.18555Z" fill="#E0E0E0"/>
<path d="M598.173 4.58398H597.487V2.68555H595.847V8.96094H597.077V9.64648H593.802V8.96094H595.038V2.68555H593.398V4.58398H592.712V2H598.173V4.58398Z" fill="#E0E0E0"/>
<path d="M605.889 9.64648H604.904L602.361 5.90234L601.553 6.80469V9.64648H600.75V2H601.553V5.7207L604.828 2H605.889L602.889 5.33984L605.889 9.64648Z" fill="#E0E0E0"/>
<path d="M614.044 9.64648H613.182L612.462 7.46094H609.438L608.729 9.64648H607.868L610.411 2H611.501L614.044 9.64648ZM612.233 6.75195L610.95 2.80859L609.667 6.75195H612.233Z" fill="#E0E0E0"/>
<path d="M621.425 4.58398H620.74V2.68555H619.099V8.96094H620.33V9.64648H617.054V8.96094H618.291V2.68555H616.65V4.58398H615.964V2H621.425V4.58398Z" fill="#E0E0E0"/>
<path d="M629.141 9.64648H628.157L625.614 5.90234L624.805 6.80469V9.64648H624.002V2H624.805V5.7207L628.08 2H629.141L626.141 5.33984L629.141 9.64648Z" fill="#E0E0E0"/>
<path d="M637.296 9.64648H636.435L635.714 7.46094H632.691L631.982 9.64648H631.12L633.663 2H634.753L637.296 9.64648ZM635.486 6.75195L634.202 2.80859L632.919 6.75195H635.486Z" fill="#E0E0E0"/>
<path d="M644.748 9.64648H643.729L641.496 6.37109H640.307V9.64648H639.504V2H642.023C642.863 2 643.514 2.18359 643.975 2.55078C644.436 2.91406 644.666 3.45898 644.666 4.18555C644.666 4.50586 644.609 4.79492 644.496 5.05273C644.383 5.30664 644.229 5.52344 644.033 5.70312C643.838 5.88281 643.604 6.02734 643.33 6.13672C643.061 6.24609 642.766 6.3125 642.445 6.33594L644.748 9.64648ZM643.834 4.18555C643.834 3.66602 643.672 3.28711 643.348 3.04883C643.027 2.80664 642.586 2.68555 642.023 2.68555H640.307V5.68555H642.023C642.586 5.68555 643.027 5.56836 643.348 5.33398C643.672 5.0957 643.834 4.71289 643.834 4.18555Z" fill="#E0E0E0"/>
<path d="M652.428 4.58398H651.743V2.68555H650.102V8.96094H651.333V9.64648H648.057V8.96094H649.294V2.68555H647.653V4.58398H646.968V2H652.428V4.58398Z" fill="#E0E0E0"/>
<path d="M660.144 9.64648H659.16L656.617 5.90234L655.808 6.80469V9.64648H655.005V2H655.808V5.7207L659.084 2H660.144L657.144 5.33984L660.144 9.64648Z" fill="#E0E0E0"/>
<path d="M668.299 9.64648H667.438L666.717 7.46094H663.694L662.985 9.64648H662.123L664.666 2H665.756L668.299 9.64648ZM666.489 6.75195L665.205 2.80859L663.922 6.75195H666.489Z" fill="#E0E0E0"/>
<path d="M675.681 4.58398H674.995V2.68555H673.355V8.96094H674.585V9.64648H671.31V8.96094H672.546V2.68555H670.905V4.58398H670.22V2H675.681V4.58398Z" fill="#E0E0E0"/>
<path d="M683.396 9.64648H682.412L679.869 5.90234L679.061 6.80469V9.64648H678.258V2H679.061V5.7207L682.336 2H683.396L680.396 5.33984L683.396 9.64648Z" fill="#E0E0E0"/>
<path d="M691.552 9.64648H690.69L689.969 7.46094H686.946L686.237 9.64648H685.376L687.919 2H689.009L691.552 9.64648ZM689.741 6.75195L688.458 2.80859L687.175 6.75195H689.741Z" fill="#E0E0E0"/>
<path d="M699.003 9.64648H697.984L695.752 6.37109H694.562V9.64648H693.759V2H696.279C697.119 2 697.769 2.18359 698.23 2.55078C698.691 2.91406 698.921 3.45898 698.921 4.18555C698.921 4.50586 698.865 4.79492 698.752 5.05273C698.638 5.30664 698.484 5.52344 698.289 5.70312C698.093 5.88281 697.859 6.02734 697.586 6.13672C697.316 6.24609 697.021 6.3125 696.701 6.33594L699.003 9.64648ZM698.089 4.18555C698.089 3.66602 697.927 3.28711 697.603 3.04883C697.283 2.80664 696.841 2.68555 696.279 2.68555H694.562V5.68555H696.279C696.841 5.68555 697.283 5.56836 697.603 5.33398C697.927 5.0957 698.089 4.71289 698.089 4.18555Z" fill="#E0E0E0"/>
<path d="M706.684 4.58398H705.998V2.68555H704.358V8.96094H705.588V9.64648H702.313V8.96094H703.549V2.68555H701.909V4.58398H701.223V2H706.684V4.58398Z" fill="#E0E0E0"/>
<path d="M714.4 9.64648H713.415L710.872 5.90234L710.064 6.80469V9.64648H709.261V2H710.064V5.7207L713.339 2H714.4L711.4 5.33984L714.4 9.64648Z" fill="#E0E0E0"/>
<path d="M722.555 9.64648H721.693L720.973 7.46094H717.949L717.24 9.64648H716.379L718.922 2H720.012L722.555 9.64648ZM720.744 6.75195L719.461 2.80859L718.178 6.75195H720.744Z" fill="#E0E0E0"/>
<path d="M729.936 4.58398H729.251V2.68555H727.61V8.96094H728.841V9.64648H725.565V8.96094H726.802V2.68555H725.161V4.58398H724.475V2H729.936V4.58398Z" fill="#E0E0E0"/>
<path d="M737.652 9.64648H736.668L734.125 5.90234L733.316 6.80469V9.64648H732.513V2H733.316V5.7207L736.591 2H737.652L734.652 5.33984L737.652 9.64648Z" fill="#E0E0E0"/>
<path d="M745.807 9.64648H744.946L744.225 7.46094H741.202L740.493 9.64648H739.631L742.174 2H743.264L745.807 9.64648ZM743.996 6.75195L742.713 2.80859L741.43 6.75195H743.996Z" fill="#E0E0E0"/>
<path d="M753.259 9.64648H752.239L750.007 6.37109H748.818V9.64648H748.015V2H750.534C751.374 2 752.025 2.18359 752.486 2.55078C752.946 2.91406 753.177 3.45898 753.177 4.18555C753.177 4.50586 753.12 4.79492 753.007 5.05273C752.894 5.30664 752.739 5.52344 752.544 5.70312C752.349 5.88281 752.114 6.02734 751.841 6.13672C751.571 6.24609 751.277 6.3125 750.956 6.33594L753.259 9.64648ZM752.345 4.18555C752.345 3.66602 752.183 3.28711 751.859 3.04883C751.538 2.80664 751.097 2.68555 750.534 2.68555H748.818V5.68555H750.534C751.097 5.68555 751.538 5.56836 751.859 5.33398C752.183 5.0957 752.345 4.71289 752.345 4.18555Z" fill="#E0E0E0"/>
<path d="M760.939 4.58398H760.254V2.68555H758.613V8.96094H759.844V9.64648H756.568V8.96094H757.805V2.68555H756.164V4.58398H755.479V2H760.939V4.58398Z" fill="#E0E0E0"/>
<path d="M768.655 9.64648H767.671L765.128 5.90234L764.319 6.80469V9.64648H763.516V2H764.319V5.7207L767.594 2H768.655L765.655 5.33984L768.655 9.64648Z" fill="#E0E0E0"/>
<path d="M776.81 9.64648H775.949L775.228 7.46094H772.205L771.496 9.64648H770.634L773.177 2H774.267L776.81 9.64648ZM775 6.75195L773.716 2.80859L772.433 6.75195H775Z" fill="#E0E0E0"/>
<path d="M784.192 4.58398H783.506V2.68555H781.866V8.96094H783.096V9.64648H779.821V8.96094H781.057V2.68555H779.416V4.58398H778.731V2H784.192V4.58398Z" fill="#E0E0E0"/>
<path d="M791.907 9.64648H790.923L788.38 5.90234L787.571 6.80469V9.64648H786.769V2H787.571V5.7207L790.847 2H791.907L788.907 5.33984L791.907 9.64648Z" fill="#E0E0E0"/>
<path d="M800.062 9.64648H799.201L798.48 7.46094H795.457L794.748 9.64648H793.887L796.43 2H797.52L800.062 9.64648ZM798.252 6.75195L796.969 2.80859L795.686 6.75195H798.252Z" fill="#E0E0E0"/>
<path d="M807.514 9.64648H806.495L804.262 6.37109H803.073V9.64648H802.27V2H804.79C805.63 2 806.28 2.18359 806.741 2.55078C807.202 2.91406 807.432 3.45898 807.432 4.18555C807.432 4.50586 807.376 4.79492 807.262 5.05273C807.149 5.30664 806.995 5.52344 806.8 5.70312C806.604 5.88281 806.37 6.02734 806.096 6.13672C805.827 6.24609 805.532 6.3125 805.212 6.33594L807.514 9.64648ZM806.6 4.18555C806.6 3.66602 806.438 3.28711 806.114 3.04883C805.794 2.80664 805.352 2.68555 804.79 2.68555H803.073V5.68555H804.79C805.352 5.68555 805.794 5.56836 806.114 5.33398C806.438 5.0957 806.6 4.71289 806.6 4.18555Z" fill="#E0E0E0"/>
<path d="M815.195 4.58398H814.509V2.68555H812.869V8.96094H814.099V9.64648H810.824V8.96094H812.06V2.68555H810.419V4.58398H809.734V2H815.195V4.58398Z" fill="#E0E0E0"/>
<path d="M822.911 9.64648H821.926L819.383 5.90234L818.575 6.80469V9.64648H817.772V2H818.575V5.7207L821.85 2H822.911L819.911 5.33984L822.911 9.64648Z" fill="#E0E0E0"/>
<path d="M831.066 9.64648H830.204L829.484 7.46094H826.46L825.751 9.64648H824.89L827.433 2H828.523L831.066 9.64648ZM829.255 6.75195L827.972 2.80859L826.689 6.75195H829.255Z" fill="#E0E0E0"/>
<path d="M838.447 4.58398H837.762V2.68555H836.121V8.96094H837.352V9.64648H834.076V8.96094H835.312V2.68555H833.672V4.58398H832.986V2H838.447V4.58398Z" fill="#E0E0E0"/>
<path d="M846.163 9.64648H845.178L842.635 5.90234L841.827 6.80469V9.64648H841.024V2H841.827V5.7207L845.102 2H846.163L843.163 5.33984L846.163 9.64648Z" fill="#E0E0E0"/>
<path d="M854.318 9.64648H853.457L852.736 7.46094H849.712L849.003 9.64648H848.142L850.685 2H851.775L854.318 9.64648ZM852.507 6.75195L851.224 2.80859L849.941 6.75195H852.507Z" fill="#E0E0E0"/>
<path d="M861.77 9.64648H860.75L858.518 6.37109H857.328V9.64648H856.526V2H859.045C859.885 2 860.536 2.18359 860.996 2.55078C861.457 2.91406 861.688 3.45898 861.688 4.18555C861.688 4.50586 861.631 4.79492 861.518 5.05273C861.405 5.30664 861.25 5.52344 861.055 5.70312C860.86 5.88281 860.625 6.02734 860.352 6.13672C860.082 6.24609 859.787 6.3125 859.467 6.33594L861.77 9.64648ZM860.856 4.18555C860.856 3.66602 860.694 3.28711 860.37 3.04883C860.049 2.80664 859.608 2.68555 859.045 2.68555H857.328V5.68555H859.045C859.608 5.68555 860.049 5.56836 860.37 5.33398C860.694 5.0957 860.856 4.71289 860.856 4.18555Z" fill="#E0E0E0"/>
<path d="M869.45 4.58398H868.765V2.68555H867.124V8.96094H868.355V9.64648H865.079V8.96094H866.316V2.68555H864.675V4.58398H863.989V2H869.45V4.58398Z" fill="#E0E0E0"/>
<path d="M877.166 9.64648H876.182L873.639 5.90234L872.83 6.80469V9.64648H872.027V2H872.83V5.7207L876.105 2H877.166L874.166 5.33984L877.166 9.64648Z" fill="#E0E0E0"/>
<path d="M885.321 9.64648H884.46L883.739 7.46094H880.716L880.007 9.64648H879.145L881.688 2H882.778L885.321 9.64648ZM883.51 6.75195L882.227 2.80859L880.944 6.75195H883.51Z" fill="#E0E0E0"/>
<path d="M892.703 4.58398H892.017V2.68555H890.377V8.96094H891.607V9.64648H888.332V8.96094H889.568V2.68555H887.927V4.58398H887.242V2H892.703V4.58398Z" fill="#E0E0E0"/>
<path d="M900.418 9.64648H899.434L896.891 5.90234L896.082 6.80469V9.64648H895.28V2H896.082V5.7207L899.358 2H900.418L897.418 5.33984L900.418 9.64648Z" fill="#E0E0E0"/>
<path d="M908.573 9.64648H907.712L906.991 7.46094H903.968L903.259 9.64648H902.398L904.941 2H906.03L908.573 9.64648ZM906.763 6.75195L905.48 2.80859L904.196 6.75195H906.763Z" fill="#E0E0E0"/>
<path d="M916.025 9.64648H915.006L912.773 6.37109H911.584V9.64648H910.781V2H913.301C914.141 2 914.791 2.18359 915.252 2.55078C915.713 2.91406 915.943 3.45898 915.943 4.18555C915.943 4.50586 915.887 4.79492 915.773 5.05273C915.66 5.30664 915.506 5.52344 915.311 5.70312C915.115 5.88281 914.881 6.02734 914.607 6.13672C914.338 6.24609 914.043 6.3125 913.723 6.33594L916.025 9.64648ZM915.111 4.18555C915.111 3.66602 914.949 3.28711 914.625 3.04883C914.305 2.80664 913.863 2.68555 913.301 2.68555H911.584V5.68555H913.301C913.863 5.68555 914.305 5.56836 914.625 5.33398C914.949 5.0957 915.111 4.71289 915.111 4.18555Z" fill="#E0E0E0"/>
<path d="M923.706 4.58398H923.02V2.68555H921.38V8.96094H922.61V9.64648H919.335V8.96094H920.571V2.68555H918.93V4.58398H918.245V2H923.706V4.58398Z" fill="#E0E0E0"/>
<path d="M931.421 9.64648H930.437L927.894 5.90234L927.086 6.80469V9.64648H926.283V2H927.086V5.7207L930.361 2H931.421L928.421 5.33984L931.421 9.64648Z" fill="#E0E0E0"/>
<path d="M939.577 9.64648H938.715L937.995 7.46094H934.971L934.262 9.64648H933.401L935.944 2H937.034L939.577 9.64648ZM937.766 6.75195L936.483 2.80859L935.2 6.75195H937.766Z" fill="#E0E0E0"/>
<path d="M946.958 4.58398H946.273V2.68555H944.632V8.96094H945.862V9.64648H942.587V8.96094H943.823V2.68555H942.183V4.58398H941.497V2H946.958V4.58398Z" fill="#E0E0E0"/>
<path d="M954.674 9.64648H953.689L951.146 5.90234L950.338 6.80469V9.64648H949.535V2H950.338V5.7207L953.613 2H954.674L951.674 5.33984L954.674 9.64648Z" fill="#E0E0E0"/>
<path d="M962.829 9.64648H961.968L961.247 7.46094H958.223L957.514 9.64648H956.653L959.196 2H960.286L962.829 9.64648ZM961.018 6.75195L959.735 2.80859L958.452 6.75195H961.018Z" fill="#E0E0E0"/>
<path d="M970.281 9.64648H969.261L967.029 6.37109H965.839V9.64648H965.037V2H967.556C968.396 2 969.046 2.18359 969.507 2.55078C969.968 2.91406 970.199 3.45898 970.199 4.18555C970.199 4.50586 970.142 4.79492 970.029 5.05273C969.916 5.30664 969.761 5.52344 969.566 5.70312C969.371 5.88281 969.136 6.02734 968.863 6.13672C968.593 6.24609 968.298 6.3125 967.978 6.33594L970.281 9.64648ZM969.367 4.18555C969.367 3.66602 969.205 3.28711 968.88 3.04883C968.56 2.80664 968.119 2.68555 967.556 2.68555H965.839V5.68555H967.556C968.119 5.68555 968.56 5.56836 968.88 5.33398C969.205 5.0957 969.367 4.71289 969.367 4.18555Z" fill="#E0E0E0"/>
<path d="M977.961 4.58398H977.276V2.68555H975.635V8.96094H976.866V9.64648H973.59V8.96094H974.827V2.68555H973.186V4.58398H972.5V2H977.961V4.58398Z" fill="#E0E0E0"/>
<path d="M985.677 9.64648H984.693L982.15 5.90234L981.341 6.80469V9.64648H980.538V2H981.341V5.7207L984.616 2H985.677L982.677 5.33984L985.677 9.64648Z" fill="#E0E0E0"/>
<path d="M993.832 9.64648H992.971L992.25 7.46094H989.227L988.518 9.64648H987.656L990.199 2H991.289L993.832 9.64648ZM992.021 6.75195L990.738 2.80859L989.455 6.75195H992.021Z" fill="#E0E0E0"/>
<path d="M1001.21 4.58398H1000.53V2.68555H998.887V8.96094H1000.12V9.64648H996.843V8.96094H998.079V2.68555H996.438V4.58398H995.753V2H1001.21V4.58398Z" fill="#E0E0E0"/>
<path d="M1008.93 9.64648H1007.94L1005.4 5.90234L1004.59 6.80469V9.64648H1003.79V2H1004.59V5.7207L1007.87 2H1008.93L1005.93 5.33984L1008.93 9.64648Z" fill="#E0E0E0"/>
<path d="M1017.08 9.64648H1016.22L1015.5 7.46094H1012.48L1011.77 9.64648H1010.91L1013.45 2H1014.54L1017.08 9.64648ZM1015.27 6.75195L1013.99 2.80859L1012.71 6.75195H1015.27Z" fill="#E0E0E0"/>
<path d="M1024.54 9.64648H1023.52L1021.28 6.37109H1020.09V9.64648H1019.29V2H1021.81C1022.65 2 1023.3 2.18359 1023.76 2.55078C1024.22 2.91406 1024.45 3.45898 1024.45 4.18555C1024.45 4.50586 1024.4 4.79492 1024.28 5.05273C1024.17 5.30664 1024.02 5.52344 1023.82 5.70312C1023.63 5.88281 1023.39 6.02734 1023.12 6.13672C1022.85 6.24609 1022.55 6.3125 1022.23 6.33594L1024.54 9.64648ZM1023.62 4.18555C1023.62 3.66602 1023.46 3.28711 1023.14 3.04883C1022.82 2.80664 1022.37 2.68555 1021.81 2.68555H1020.09V5.68555H1021.81C1022.37 5.68555 1022.82 5.56836 1023.14 5.33398C1023.46 5.0957 1023.62 4.71289 1023.62 4.18555Z" fill="#E0E0E0"/>
<path d="M1032.22 4.58398H1031.53V2.68555H1029.89V8.96094H1031.12V9.64648H1027.85V8.96094H1029.08V2.68555H1027.44V4.58398H1026.76V2H1032.22V4.58398Z" fill="#E0E0E0"/>
<path d="M1039.93 9.64648H1038.95L1036.41 5.90234L1035.6 6.80469V9.64648H1034.79V2H1035.6V5.7207L1038.87 2H1039.93L1036.93 5.33984L1039.93 9.64648Z" fill="#E0E0E0"/>
<path d="M1048.09 9.64648H1047.23L1046.51 7.46094H1043.48L1042.77 9.64648H1041.91L1044.45 2H1045.54L1048.09 9.64648ZM1046.28 6.75195L1044.99 2.80859L1043.71 6.75195H1046.28Z" fill="#E0E0E0"/>
<path d="M1055.47 4.58398H1054.78V2.68555H1053.14V8.96094H1054.37V9.64648H1051.1V8.96094H1052.33V2.68555H1050.69V4.58398H1050.01V2H1055.47V4.58398Z" fill="#E0E0E0"/>
<path d="M1063.18 9.64648H1062.2L1059.66 5.90234L1058.85 6.80469V9.64648H1058.05V2H1058.85V5.7207L1062.12 2H1063.18L1060.18 5.33984L1063.18 9.64648Z" fill="#E0E0E0"/>
<path d="M1071.34 9.64648H1070.48L1069.76 7.46094H1066.73L1066.03 9.64648H1065.16L1067.71 2H1068.8L1071.34 9.64648ZM1069.53 6.75195L1068.25 2.80859L1066.96 6.75195H1069.53Z" fill="#E0E0E0"/>
<path d="M1078.79 9.64648H1077.77L1075.54 6.37109H1074.35V9.64648H1073.55V2H1076.07C1076.91 2 1077.56 2.18359 1078.02 2.55078C1078.48 2.91406 1078.71 3.45898 1078.71 4.18555C1078.71 4.50586 1078.65 4.79492 1078.54 5.05273C1078.43 5.30664 1078.27 5.52344 1078.08 5.70312C1077.88 5.88281 1077.65 6.02734 1077.37 6.13672C1077.1 6.24609 1076.81 6.3125 1076.49 6.33594L1078.79 9.64648ZM1077.88 4.18555C1077.88 3.66602 1077.72 3.28711 1077.39 3.04883C1077.07 2.80664 1076.63 2.68555 1076.07 2.68555H1074.35V5.68555H1076.07C1076.63 5.68555 1077.07 5.56836 1077.39 5.33398C1077.72 5.0957 1077.88 4.71289 1077.88 4.18555Z" fill="#E0E0E0"/>
<path d="M1086.47 4.58398H1085.79V2.68555H1084.15V8.96094H1085.38V9.64648H1082.1V8.96094H1083.34V2.68555H1081.7V4.58398H1081.01V2H1086.47V4.58398Z" fill="#E0E0E0"/>
<path d="M1094.19 9.64648H1093.2L1090.66 5.90234L1089.85 6.80469V9.64648H1089.05V2H1089.85V5.7207L1093.13 2H1094.19L1091.19 5.33984L1094.19 9.64648Z" fill="#E0E0E0"/>
<path d="M1102.34 9.64648H1101.48L1100.76 7.46094H1097.74L1097.03 9.64648H1096.17L1098.71 2H1099.8L1102.34 9.64648ZM1100.53 6.75195L1099.25 2.80859L1097.97 6.75195H1100.53Z" fill="#E0E0E0"/>
<path d="M1109.72 4.58398H1109.04V2.68555H1107.4V8.96094H1108.63V9.64648H1105.35V8.96094H1106.59V2.68555H1104.95V4.58398H1104.26V2H1109.72V4.58398Z" fill="#E0E0E0"/>
<path d="M1117.44 9.64648H1116.46L1113.91 5.90234L1113.1 6.80469V9.64648H1112.3V2H1113.1V5.7207L1116.38 2H1117.44L1114.44 5.33984L1117.44 9.64648Z" fill="#E0E0E0"/>
<path d="M1125.6 9.64648H1124.73L1124.01 7.46094H1120.99L1120.28 9.64648H1119.42L1121.96 2H1123.05L1125.6 9.64648ZM1123.78 6.75195L1122.5 2.80859L1121.22 6.75195H1123.78Z" fill="#E0E0E0"/>
<path d="M1133.05 9.64648H1132.03L1129.8 6.37109H1128.61V9.64648H1127.8V2H1130.32C1131.16 2 1131.81 2.18359 1132.27 2.55078C1132.73 2.91406 1132.97 3.45898 1132.97 4.18555C1132.97 4.50586 1132.91 4.79492 1132.8 5.05273C1132.68 5.30664 1132.53 5.52344 1132.33 5.70312C1132.14 5.88281 1131.9 6.02734 1131.63 6.13672C1131.36 6.24609 1131.06 6.3125 1130.74 6.33594L1133.05 9.64648ZM1132.13 4.18555C1132.13 3.66602 1131.97 3.28711 1131.65 3.04883C1131.33 2.80664 1130.89 2.68555 1130.32 2.68555H1128.61V5.68555H1130.32C1130.89 5.68555 1131.33 5.56836 1131.65 5.33398C1131.97 5.0957 1132.13 4.71289 1132.13 4.18555Z" fill="#E0E0E0"/>
<path d="M1140.73 4.58398H1140.04V2.68555H1138.4V8.96094H1139.63V9.64648H1136.36V8.96094H1137.59V2.68555H1135.95V4.58398H1135.27V2H1140.73V4.58398Z" fill="#E0E0E0"/>
<path d="M1148.44 9.64648H1147.46L1144.92 5.90234L1144.11 6.80469V9.64648H1143.3V2H1144.11V5.7207L1147.38 2H1148.44L1145.44 5.33984L1148.44 9.64648Z" fill="#E0E0E0"/>
<path d="M1156.6 9.64648H1155.74L1155.02 7.46094H1151.99L1151.28 9.64648H1150.42L1152.97 2H1154.06L1156.6 9.64648ZM1154.79 6.75195L1153.5 2.80859L1152.22 6.75195H1154.79Z" fill="#E0E0E0"/>
<path d="M1163.98 4.58398H1163.29V2.68555H1161.65V8.96094H1162.88V9.64648H1159.61V8.96094H1160.85V2.68555H1159.2V4.58398H1158.52V2H1163.98V4.58398Z" fill="#E0E0E0"/>
<path d="M1171.7 9.64648H1170.71L1168.17 5.90234L1167.36 6.80469V9.64648H1166.56V2H1167.36V5.7207L1170.64 2H1171.7L1168.7 5.33984L1171.7 9.64648Z" fill="#E0E0E0"/>
<path d="M1179.85 9.64648H1178.99L1178.27 7.46094H1175.25L1174.54 9.64648H1173.67L1176.22 2H1177.31L1179.85 9.64648ZM1178.04 6.75195L1176.76 2.80859L1175.47 6.75195H1178.04Z" fill="#E0E0E0"/>
<path d="M1187.3 9.64648H1186.28L1184.05 6.37109H1182.86V9.64648H1182.06V2H1184.58C1185.42 2 1186.07 2.18359 1186.53 2.55078C1186.99 2.91406 1187.22 3.45898 1187.22 4.18555C1187.22 4.50586 1187.16 4.79492 1187.05 5.05273C1186.94 5.30664 1186.78 5.52344 1186.59 5.70312C1186.39 5.88281 1186.16 6.02734 1185.88 6.13672C1185.62 6.24609 1185.32 6.3125 1185 6.33594L1187.3 9.64648ZM1186.39 4.18555C1186.39 3.66602 1186.23 3.28711 1185.9 3.04883C1185.58 2.80664 1185.14 2.68555 1184.58 2.68555H1182.86V5.68555H1184.58C1185.14 5.68555 1185.58 5.56836 1185.9 5.33398C1186.23 5.0957 1186.39 4.71289 1186.39 4.18555Z" fill="#E0E0E0"/>
<path d="M1194.98 4.58398H1194.3V2.68555H1192.66V8.96094H1193.89V9.64648H1190.61V8.96094H1191.85V2.68555H1190.21V4.58398H1189.52V2H1194.98V4.58398Z" fill="#E0E0E0"/>
<path d="M1202.7 9.64648H1201.71L1199.17 5.90234L1198.36 6.80469V9.64648H1197.56V2H1198.36V5.7207L1201.64 2H1202.7L1199.7 5.33984L1202.7 9.64648Z" fill="#E0E0E0"/>
<path d="M1210.85 9.64648H1209.99L1209.27 7.46094H1206.25L1205.54 9.64648H1204.68L1207.22 2H1208.31L1210.85 9.64648ZM1209.04 6.75195L1207.76 2.80859L1206.48 6.75195H1209.04Z" fill="#E0E0E0"/>
<path d="M1218.24 4.58398H1217.55V2.68555H1215.91V8.96094H1217.14V9.64648H1213.86V8.96094H1215.1V2.68555H1213.46V4.58398H1212.77V2H1218.24V4.58398Z" fill="#E0E0E0"/>
<path d="M1225.95 9.64648H1224.97L1222.42 5.90234L1221.62 6.80469V9.64648H1220.81V2H1221.62V5.7207L1224.89 2H1225.95L1222.95 5.33984L1225.95 9.64648Z" fill="#E0E0E0"/>
<path d="M1234.11 9.64648H1233.24L1232.52 7.46094H1229.5L1228.79 9.64648H1227.93L1230.47 2H1231.56L1234.11 9.64648ZM1232.3 6.75195L1231.01 2.80859L1229.73 6.75195H1232.3Z" fill="#E0E0E0"/>
<path d="M1241.56 9.64648H1240.54L1238.31 6.37109H1237.12V9.64648H1236.31V2H1238.83C1239.67 2 1240.32 2.18359 1240.78 2.55078C1241.25 2.91406 1241.48 3.45898 1241.48 4.18555C1241.48 4.50586 1241.42 4.79492 1241.31 5.05273C1241.19 5.30664 1241.04 5.52344 1240.84 5.70312C1240.65 5.88281 1240.41 6.02734 1240.14 6.13672C1239.87 6.24609 1239.58 6.3125 1239.26 6.33594L1241.56 9.64648ZM1240.64 4.18555C1240.64 3.66602 1240.48 3.28711 1240.16 3.04883C1239.84 2.80664 1239.4 2.68555 1238.83 2.68555H1237.12V5.68555H1238.83C1239.4 5.68555 1239.84 5.56836 1240.16 5.33398C1240.48 5.0957 1240.64 4.71289 1240.64 4.18555Z" fill="#E0E0E0"/>
<path d="M1249.24 4.58398H1248.55V2.68555H1246.91V8.96094H1248.14V9.64648H1244.87V8.96094H1246.1V2.68555H1244.46V4.58398H1243.78V2H1249.24V4.58398Z" fill="#E0E0E0"/>
<path d="M1256.95 9.64648H1255.97L1253.43 5.90234L1252.62 6.80469V9.64648H1251.82V2H1252.62V5.7207L1255.89 2H1256.95L1253.95 5.33984L1256.95 9.64648Z" fill="#E0E0E0"/>
<path d="M1265.11 9.64648H1264.25L1263.53 7.46094H1260.5L1259.79 9.64648H1258.93L1261.48 2H1262.57L1265.11 9.64648ZM1263.3 6.75195L1262.02 2.80859L1260.73 6.75195H1263.3Z" fill="#E0E0E0"/>
<path d="M1272.49 4.58398H1271.81V2.68555H1270.16V8.96094H1271.4V9.64648H1268.12V8.96094H1269.36V2.68555H1267.72V4.58398H1267.03V2H1272.49V4.58398Z" fill="#E0E0E0"/>
<path d="M1280.21 9.64648H1279.22L1276.68 5.90234L1275.87 6.80469V9.64648H1275.07V2H1275.87V5.7207L1279.15 2H1280.21L1277.21 5.33984L1280.21 9.64648Z" fill="#E0E0E0"/>
<path d="M1288.36 9.64648H1287.5L1286.78 7.46094H1283.76L1283.05 9.64648H1282.19L1284.73 2H1285.82L1288.36 9.64648ZM1286.55 6.75195L1285.27 2.80859L1283.98 6.75195H1286.55Z" fill="#E0E0E0"/>
<path d="M1295.81 9.64648H1294.79L1292.56 6.37109H1291.37V9.64648H1290.57V2H1293.09C1293.93 2 1294.58 2.18359 1295.04 2.55078C1295.5 2.91406 1295.73 3.45898 1295.73 4.18555C1295.73 4.50586 1295.67 4.79492 1295.56 5.05273C1295.45 5.30664 1295.29 5.52344 1295.1 5.70312C1294.9 5.88281 1294.67 6.02734 1294.4 6.13672C1294.13 6.24609 1293.83 6.3125 1293.51 6.33594L1295.81 9.64648ZM1294.9 4.18555C1294.9 3.66602 1294.74 3.28711 1294.41 3.04883C1294.09 2.80664 1293.65 2.68555 1293.09 2.68555H1291.37V5.68555H1293.09C1293.65 5.68555 1294.09 5.56836 1294.41 5.33398C1294.74 5.0957 1294.9 4.71289 1294.9 4.18555Z" fill="#E0E0E0"/>
<path d="M1303.49 4.58398H1302.81V2.68555H1301.17V8.96094H1302.4V9.64648H1299.12V8.96094H1300.36V2.68555H1298.72V4.58398H1298.03V2H1303.49V4.58398Z" fill="#E0E0E0"/>
<path d="M1311.21 9.64648H1310.23L1307.68 5.90234L1306.87 6.80469V9.64648H1306.07V2H1306.87V5.7207L1310.15 2H1311.21L1308.21 5.33984L1311.21 9.64648Z" fill="#E0E0E0"/>
<path d="M1319.36 9.64648H1318.5L1317.78 7.46094H1314.76L1314.05 9.64648H1313.19L1315.73 2H1316.82L1319.36 9.64648ZM1317.55 6.75195L1316.27 2.80859L1314.99 6.75195H1317.55Z" fill="#E0E0E0"/>
<path d="M1326.75 4.58398H1326.06V2.68555H1324.42V8.96094H1325.65V9.64648H1322.38V8.96094H1323.61V2.68555H1321.97V4.58398H1321.29V2H1326.75V4.58398Z" fill="#E0E0E0"/>
<path d="M1334.46 9.64648H1333.48L1330.93 5.90234L1330.13 6.80469V9.64648H1329.32V2H1330.13V5.7207L1333.4 2H1334.46L1331.46 5.33984L1334.46 9.64648Z" fill="#E0E0E0"/>
<path d="M1342.62 9.64648H1341.76L1341.04 7.46094H1338.01L1337.3 9.64648H1336.44L1338.98 2H1340.07L1342.62 9.64648ZM1340.81 6.75195L1339.52 2.80859L1338.24 6.75195H1340.81Z" fill="#E0E0E0"/>
<path d="M1350.07 9.64648H1349.05L1346.82 6.37109H1345.63V9.64648H1344.82V2H1347.34C1348.18 2 1348.83 2.18359 1349.3 2.55078C1349.76 2.91406 1349.99 3.45898 1349.99 4.18555C1349.99 4.50586 1349.93 4.79492 1349.82 5.05273C1349.7 5.30664 1349.55 5.52344 1349.35 5.70312C1349.16 5.88281 1348.92 6.02734 1348.65 6.13672C1348.38 6.24609 1348.09 6.3125 1347.77 6.33594L1350.07 9.64648ZM1349.16 4.18555C1349.16 3.66602 1348.99 3.28711 1348.67 3.04883C1348.35 2.80664 1347.91 2.68555 1347.34 2.68555H1345.63V5.68555H1347.34C1347.91 5.68555 1348.35 5.56836 1348.67 5.33398C1348.99 5.0957 1349.16 4.71289 1349.16 4.18555Z" fill="#E0E0E0"/>
<path d="M1357.75 4.58398H1357.06V2.68555H1355.42V8.96094H1356.65V9.64648H1353.38V8.96094H1354.61V2.68555H1352.97V4.58398H1352.29V2H1357.75V4.58398Z" fill="#E0E0E0"/>
<path d="M1365.47 9.64648H1364.48L1361.94 5.90234L1361.13 6.80469V9.64648H1360.33V2H1361.13V5.7207L1364.4 2H1365.47L1362.47 5.33984L1365.47 9.64648Z" fill="#E0E0E0"/>
<path d="M1373.62 9.64648H1372.76L1372.04 7.46094H1369.01L1368.31 9.64648H1367.44L1369.99 2H1371.08L1373.62 9.64648ZM1371.81 6.75195L1370.53 2.80859L1369.24 6.75195H1371.81Z" fill="#E0E0E0"/>
<path d="M1381 4.58398H1380.32V2.68555H1378.68V8.96094H1379.91V9.64648H1376.63V8.96094H1377.87V2.68555H1376.23V4.58398H1375.54V2H1381V4.58398Z" fill="#E0E0E0"/>
<path d="M1388.72 9.64648H1387.73L1385.19 5.90234L1384.38 6.80469V9.64648H1383.58V2H1384.38V5.7207L1387.66 2H1388.72L1385.72 5.33984L1388.72 9.64648Z" fill="#E0E0E0"/>
<path d="M1396.87 9.64648H1396.01L1395.29 7.46094H1392.27L1391.56 9.64648H1390.7L1393.24 2H1394.33L1396.87 9.64648ZM1395.06 6.75195L1393.78 2.80859L1392.5 6.75195H1395.06Z" fill="#E0E0E0"/>
<path d="M1404.32 9.64648H1403.31L1401.07 6.37109H1399.88V9.64648H1399.08V2H1401.6C1402.44 2 1403.09 2.18359 1403.55 2.55078C1404.01 2.91406 1404.24 3.45898 1404.24 4.18555C1404.24 4.50586 1404.19 4.79492 1404.07 5.05273C1403.96 5.30664 1403.81 5.52344 1403.61 5.70312C1403.41 5.88281 1403.18 6.02734 1402.91 6.13672C1402.64 6.24609 1402.34 6.3125 1402.02 6.33594L1404.32 9.64648ZM1403.41 4.18555C1403.41 3.66602 1403.25 3.28711 1402.92 3.04883C1402.6 2.80664 1402.16 2.68555 1401.6 2.68555H1399.88V5.68555H1401.6C1402.16 5.68555 1402.6 5.56836 1402.92 5.33398C1403.25 5.0957 1403.41 4.71289 1403.41 4.18555Z" fill="#E0E0E0"/>
<path d="M1412.01 4.58398H1411.32V2.68555H1409.68V8.96094H1410.91V9.64648H1407.63V8.96094H1408.87V2.68555H1407.23V4.58398H1406.54V2H1412.01V4.58398Z" fill="#E0E0E0"/>
<path d="M1419.72 9.64648H1418.74L1416.19 5.90234L1415.38 6.80469V9.64648H1414.58V2H1415.38V5.7207L1418.66 2H1419.72L1416.72 5.33984L1419.72 9.64648Z" fill="#E0E0E0"/>
<path d="M1427.88 9.64648H1427.01L1426.29 7.46094H1423.27L1422.56 9.64648H1421.7L1424.24 2H1425.33L1427.88 9.64648ZM1426.07 6.75195L1424.78 2.80859L1423.5 6.75195H1426.07Z" fill="#E0E0E0"/>
<path d="M1435.26 4.58398H1434.57V2.68555H1432.93V8.96094H1434.16V9.64648H1430.89V8.96094H1432.12V2.68555H1430.48V4.58398H1429.8V2H1435.26V4.58398Z" fill="#E0E0E0"/>
</svg>
