<svg width="1433" height="8" viewBox="0 0 1433 8" fill="none" xmlns="http://www.w3.org/2000/svg">
<path d="M6.07849 8H5.09412L2.55115 4.25586L1.74255 5.1582V8H0.939819V0.353516H1.74255V4.07422L5.01794 0.353516H6.07849L3.07849 3.69336L6.07849 8Z" fill="#E0E0E0"/>
<path d="M14.2336 8H13.3722L12.6515 5.81445H9.6281L8.91912 8H8.05779L10.6008 0.353516H11.6906L14.2336 8ZM12.423 5.10547L11.1398 1.16211L9.85662 5.10547H12.423Z" fill="#E0E0E0"/>
<path d="M21.6152 2.9375H20.9297V1.03906H19.289V7.31445H20.5195V8H17.2441V7.31445H18.4804V1.03906H16.8398V2.9375H16.1543V0.353516H21.6152V2.9375Z" fill="#E0E0E0"/>
<path d="M29.3308 8H28.3465L25.8035 4.25586L24.9949 5.1582V8H24.1922V0.353516H24.9949V4.07422L28.2703 0.353516H29.3308L26.3308 3.69336L29.3308 8Z" fill="#E0E0E0"/>
<path d="M37.4859 8H36.6246L35.9039 5.81445H32.8804L32.1715 8H31.3101L33.8531 0.353516H34.9429L37.4859 8ZM35.6754 5.10547L34.3922 1.16211L33.109 5.10547H35.6754Z" fill="#E0E0E0"/>
<path d="M44.9379 8H43.9183L41.6859 4.72461H40.4965V8H39.6937V0.353516H42.2133C43.0531 0.353516 43.7035 0.537109 44.1644 0.904297C44.6254 1.26758 44.8558 1.8125 44.8558 2.53906C44.8558 2.85938 44.7992 3.14844 44.6859 3.40625C44.5726 3.66016 44.4183 3.87695 44.223 4.05664C44.0277 4.23633 43.7933 4.38086 43.5199 4.49023C43.2504 4.59961 42.9554 4.66602 42.6351 4.68945L44.9379 8ZM44.0238 2.53906C44.0238 2.01953 43.8617 1.64062 43.5375 1.40234C43.2172 1.16016 42.7758 1.03906 42.2133 1.03906H40.4965V4.03906H42.2133C42.7758 4.03906 43.2172 3.92188 43.5375 3.6875C43.8617 3.44922 44.0238 3.06641 44.0238 2.53906Z" fill="#E0E0E0"/>
<path d="M52.6183 2.9375H51.9328V1.03906H50.2922V7.31445H51.5226V8H48.2472V7.31445H49.4836V1.03906H47.8429V2.9375H47.1574V0.353516H52.6183V2.9375Z" fill="#E0E0E0"/>
<path d="M60.334 8H59.3496L56.8066 4.25586L55.998 5.1582V8H55.1953V0.353516H55.998V4.07422L59.2734 0.353516H60.334L57.334 3.69336L60.334 8Z" fill="#E0E0E0"/>
<path d="M68.489 8H67.6277L66.907 5.81445H63.8836L63.1746 8H62.3133L64.8562 0.353516H65.9461L68.489 8ZM66.6785 5.10547L65.3953 1.16211L64.1121 5.10547H66.6785Z" fill="#E0E0E0"/>
<path d="M75.8707 2.9375H75.1851V1.03906H73.5445V7.31445H74.775V8H71.4996V7.31445H72.7359V1.03906H71.0953V2.9375H70.4097V0.353516H75.8707V2.9375Z" fill="#E0E0E0"/>
<path d="M83.5863 8H82.6019L80.059 4.25586L79.2504 5.1582V8H78.4476V0.353516H79.2504V4.07422L82.5258 0.353516H83.5863L80.5863 3.69336L83.5863 8Z" fill="#E0E0E0"/>
<path d="M91.7414 8H90.8801L90.1593 5.81445H87.1359L86.4269 8H85.5656L88.1086 0.353516H89.1984L91.7414 8ZM89.9308 5.10547L88.6476 1.16211L87.3644 5.10547H89.9308Z" fill="#E0E0E0"/>
<path d="M99.1933 8H98.1738L95.9414 4.72461H94.7519V8H93.9492V0.353516H96.4687C97.3086 0.353516 97.959 0.537109 98.4199 0.904297C98.8808 1.26758 99.1113 1.8125 99.1113 2.53906C99.1113 2.85938 99.0547 3.14844 98.9414 3.40625C98.8281 3.66016 98.6738 3.87695 98.4785 4.05664C98.2832 4.23633 98.0488 4.38086 97.7754 4.49023C97.5058 4.59961 97.2109 4.66602 96.8906 4.68945L99.1933 8ZM98.2793 2.53906C98.2793 2.01953 98.1172 1.64062 97.7929 1.40234C97.4726 1.16016 97.0312 1.03906 96.4687 1.03906H94.7519V4.03906H96.4687C97.0312 4.03906 97.4726 3.92188 97.7929 3.6875C98.1172 3.44922 98.2793 3.06641 98.2793 2.53906Z" fill="#E0E0E0"/>
<path d="M106.874 2.9375H106.188V1.03906H104.548V7.31445H105.778V8H102.503V7.31445H103.739V1.03906H102.098V2.9375H101.413V0.353516H106.874V2.9375Z" fill="#E0E0E0"/>
<path d="M114.589 8H113.605L111.062 4.25586L110.253 5.1582V8H109.451V0.353516H110.253V4.07422L113.529 0.353516H114.589L111.589 3.69336L114.589 8Z" fill="#E0E0E0"/>
<path d="M122.745 8H121.883L121.162 5.81445H118.139L117.43 8H116.569L119.112 0.353516H120.202L122.745 8ZM120.934 5.10547L119.651 1.16211L118.368 5.10547H120.934Z" fill="#E0E0E0"/>
<path d="M130.126 2.9375H129.441V1.03906H127.8V7.31445H129.03V8H125.755V7.31445H126.991V1.03906H125.351V2.9375H124.665V0.353516H130.126V2.9375Z" fill="#E0E0E0"/>
<path d="M137.842 8H136.857L134.314 4.25586L133.506 5.1582V8H132.703V0.353516H133.506V4.07422L136.781 0.353516H137.842L134.842 3.69336L137.842 8Z" fill="#E0E0E0"/>
<path d="M145.997 8H145.136L144.415 5.81445H141.391L140.682 8H139.821L142.364 0.353516H143.454L145.997 8ZM144.186 5.10547L142.903 1.16211L141.62 5.10547H144.186Z" fill="#E0E0E0"/>
<path d="M153.449 8H152.429L150.197 4.72461H149.007V8H148.205V0.353516H150.724C151.564 0.353516 152.214 0.537109 152.675 0.904297C153.136 1.26758 153.367 1.8125 153.367 2.53906C153.367 2.85938 153.31 3.14844 153.197 3.40625C153.084 3.66016 152.929 3.87695 152.734 4.05664C152.539 4.23633 152.304 4.38086 152.031 4.49023C151.761 4.59961 151.466 4.66602 151.146 4.68945L153.449 8ZM152.535 2.53906C152.535 2.01953 152.373 1.64062 152.048 1.40234C151.728 1.16016 151.287 1.03906 150.724 1.03906H149.007V4.03906H150.724C151.287 4.03906 151.728 3.92188 152.048 3.6875C152.373 3.44922 152.535 3.06641 152.535 2.53906Z" fill="#E0E0E0"/>
<path d="M161.129 2.9375H160.444V1.03906H158.803V7.31445H160.034V8H156.758V7.31445H157.995V1.03906H156.354V2.9375H155.668V0.353516H161.129V2.9375Z" fill="#E0E0E0"/>
<path d="M168.845 8H167.861L165.318 4.25586L164.509 5.1582V8H163.706V0.353516H164.509V4.07422L167.784 0.353516H168.845L165.845 3.69336L168.845 8Z" fill="#E0E0E0"/>
<path d="M177 8H176.139L175.418 5.81445H172.395L171.686 8H170.824L173.367 0.353516H174.457L177 8ZM175.189 5.10547L173.906 1.16211L172.623 5.10547H175.189Z" fill="#E0E0E0"/>
<path d="M184.382 2.9375H183.696V1.03906H182.055V7.31445H183.286V8H180.011V7.31445H181.247V1.03906H179.606V2.9375H178.921V0.353516H184.382V2.9375Z" fill="#E0E0E0"/>
<path d="M192.097 8H191.113L188.57 4.25586L187.761 5.1582V8H186.959V0.353516H187.761V4.07422L191.037 0.353516H192.097L189.097 3.69336L192.097 8Z" fill="#E0E0E0"/>
<path d="M200.252 8H199.391L198.67 5.81445H195.647L194.938 8H194.077L196.62 0.353516H197.709L200.252 8ZM198.442 5.10547L197.159 1.16211L195.875 5.10547H198.442Z" fill="#E0E0E0"/>
<path d="M207.704 8H206.685L204.452 4.72461H203.263V8H202.46V0.353516H204.98C205.82 0.353516 206.47 0.537109 206.931 0.904297C207.392 1.26758 207.622 1.8125 207.622 2.53906C207.622 2.85938 207.566 3.14844 207.452 3.40625C207.339 3.66016 207.185 3.87695 206.989 4.05664C206.794 4.23633 206.56 4.38086 206.286 4.49023C206.017 4.59961 205.722 4.66602 205.402 4.68945L207.704 8ZM206.79 2.53906C206.79 2.01953 206.628 1.64062 206.304 1.40234C205.984 1.16016 205.542 1.03906 204.98 1.03906H203.263V4.03906H204.98C205.542 4.03906 205.984 3.92188 206.304 3.6875C206.628 3.44922 206.79 3.06641 206.79 2.53906Z" fill="#E0E0E0"/>
<path d="M215.385 2.9375H214.699V1.03906H213.059V7.31445H214.289V8H211.014V7.31445H212.25V1.03906H210.609V2.9375H209.924V0.353516H215.385V2.9375Z" fill="#E0E0E0"/>
<path d="M223.1 8H222.116L219.573 4.25586L218.764 5.1582V8H217.962V0.353516H218.764V4.07422L222.04 0.353516H223.1L220.1 3.69336L223.1 8Z" fill="#E0E0E0"/>
<path d="M231.255 8H230.394L229.673 5.81445H226.65L225.941 8H225.08L227.623 0.353516H228.712L231.255 8ZM229.445 5.10547L228.162 1.16211L226.878 5.10547H229.445Z" fill="#E0E0E0"/>
<path d="M238.637 2.9375H237.952V1.03906H236.311V7.31445H237.541V8H234.266V7.31445H235.502V1.03906H233.862V2.9375H233.176V0.353516H238.637V2.9375Z" fill="#E0E0E0"/>
<path d="M246.353 8H245.368L242.825 4.25586L242.017 5.1582V8H241.214V0.353516H242.017V4.07422L245.292 0.353516H246.353L243.353 3.69336L246.353 8Z" fill="#E0E0E0"/>
<path d="M254.508 8H253.646L252.926 5.81445H249.902L249.193 8H248.332L250.875 0.353516H251.965L254.508 8ZM252.697 5.10547L251.414 1.16211L250.131 5.10547H252.697Z" fill="#E0E0E0"/>
<path d="M261.96 8H260.94L258.708 4.72461H257.518V8H256.716V0.353516H259.235C260.075 0.353516 260.725 0.537109 261.186 0.904297C261.647 1.26758 261.878 1.8125 261.878 2.53906C261.878 2.85938 261.821 3.14844 261.708 3.40625C261.595 3.66016 261.44 3.87695 261.245 4.05664C261.05 4.23633 260.815 4.38086 260.542 4.49023C260.272 4.59961 259.977 4.66602 259.657 4.68945L261.96 8ZM261.046 2.53906C261.046 2.01953 260.884 1.64062 260.559 1.40234C260.239 1.16016 259.798 1.03906 259.235 1.03906H257.518V4.03906H259.235C259.798 4.03906 260.239 3.92188 260.559 3.6875C260.884 3.44922 261.046 3.06641 261.046 2.53906Z" fill="#E0E0E0"/>
<path d="M269.64 2.9375H268.955V1.03906H267.314V7.31445H268.544V8H265.269V7.31445H266.505V1.03906H264.865V2.9375H264.179V0.353516H269.64V2.9375Z" fill="#E0E0E0"/>
<path d="M277.356 8H276.371L273.828 4.25586L273.02 5.1582V8H272.217V0.353516H273.02V4.07422L276.295 0.353516H277.356L274.356 3.69336L277.356 8Z" fill="#E0E0E0"/>
<path d="M285.511 8H284.65L283.929 5.81445H280.905L280.196 8H279.335L281.878 0.353516H282.968L285.511 8ZM283.7 5.10547L282.417 1.16211L281.134 5.10547H283.7Z" fill="#E0E0E0"/>
<path d="M292.893 2.9375H292.207V1.03906H290.566V7.31445H291.797V8H288.521V7.31445H289.758V1.03906H288.117V2.9375H287.432V0.353516H292.893V2.9375Z" fill="#E0E0E0"/>
<path d="M300.608 8H299.624L297.081 4.25586L296.272 5.1582V8H295.47V0.353516H296.272V4.07422L299.548 0.353516H300.608L297.608 3.69336L300.608 8Z" fill="#E0E0E0"/>
<path d="M308.763 8H307.902L307.181 5.81445H304.158L303.449 8H302.587L305.13 0.353516H306.22L308.763 8ZM306.953 5.10547L305.669 1.16211L304.386 5.10547H306.953Z" fill="#E0E0E0"/>
<path d="M316.215 8H315.196L312.963 4.72461H311.774V8H310.971V0.353516H313.491C314.33 0.353516 314.981 0.537109 315.442 0.904297C315.903 1.26758 316.133 1.8125 316.133 2.53906C316.133 2.85938 316.077 3.14844 315.963 3.40625C315.85 3.66016 315.696 3.87695 315.5 4.05664C315.305 4.23633 315.071 4.38086 314.797 4.49023C314.528 4.59961 314.233 4.66602 313.912 4.68945L316.215 8ZM315.301 2.53906C315.301 2.01953 315.139 1.64062 314.815 1.40234C314.495 1.16016 314.053 1.03906 313.491 1.03906H311.774V4.03906H313.491C314.053 4.03906 314.495 3.92188 314.815 3.6875C315.139 3.44922 315.301 3.06641 315.301 2.53906Z" fill="#E0E0E0"/>
<path d="M323.896 2.9375H323.21V1.03906H321.57V7.31445H322.8V8H319.525V7.31445H320.761V1.03906H319.12V2.9375H318.435V0.353516H323.896V2.9375Z" fill="#E0E0E0"/>
<path d="M331.611 8H330.627L328.084 4.25586L327.275 5.1582V8H326.473V0.353516H327.275V4.07422L330.551 0.353516H331.611L328.611 3.69336L331.611 8Z" fill="#E0E0E0"/>
<path d="M339.766 8H338.905L338.184 5.81445H335.161L334.452 8H333.591L336.134 0.353516H337.223L339.766 8ZM337.956 5.10547L336.673 1.16211L335.389 5.10547H337.956Z" fill="#E0E0E0"/>
<path d="M347.148 2.9375H346.462V1.03906H344.822V7.31445H346.052V8H342.777V7.31445H344.013V1.03906H342.373V2.9375H341.687V0.353516H347.148V2.9375Z" fill="#E0E0E0"/>
<path d="M354.864 8H353.879L351.336 4.25586L350.528 5.1582V8H349.725V0.353516H350.528V4.07422L353.803 0.353516H354.864L351.864 3.69336L354.864 8Z" fill="#E0E0E0"/>
<path d="M363.019 8H362.157L361.437 5.81445H358.413L357.704 8H356.843L359.386 0.353516H360.476L363.019 8ZM361.208 5.10547L359.925 1.16211L358.642 5.10547H361.208Z" fill="#E0E0E0"/>
<path d="M370.471 8H369.451L367.219 4.72461H366.029V8H365.227V0.353516H367.746C368.586 0.353516 369.236 0.537109 369.697 0.904297C370.158 1.26758 370.389 1.8125 370.389 2.53906C370.389 2.85938 370.332 3.14844 370.219 3.40625C370.105 3.66016 369.951 3.87695 369.756 4.05664C369.561 4.23633 369.326 4.38086 369.053 4.49023C368.783 4.59961 368.488 4.66602 368.168 4.68945L370.471 8ZM369.557 2.53906C369.557 2.01953 369.395 1.64062 369.07 1.40234C368.75 1.16016 368.309 1.03906 367.746 1.03906H366.029V4.03906H367.746C368.309 4.03906 368.75 3.92188 369.07 3.6875C369.395 3.44922 369.557 3.06641 369.557 2.53906Z" fill="#E0E0E0"/>
<path d="M378.151 2.9375H377.466V1.03906H375.825V7.31445H377.055V8H373.78V7.31445H375.016V1.03906H373.376V2.9375H372.69V0.353516H378.151V2.9375Z" fill="#E0E0E0"/>
<path d="M385.867 8H384.882L382.339 4.25586L381.531 5.1582V8H380.728V0.353516H381.531V4.07422L384.806 0.353516H385.867L382.867 3.69336L385.867 8Z" fill="#E0E0E0"/>
<path d="M394.022 8H393.161L392.44 5.81445H389.416L388.707 8H387.846L390.389 0.353516H391.479L394.022 8ZM392.211 5.10547L390.928 1.16211L389.645 5.10547H392.211Z" fill="#E0E0E0"/>
<path d="M401.404 2.9375H400.718V1.03906H399.077V7.31445H400.308V8H397.032V7.31445H398.269V1.03906H396.628V2.9375H395.943V0.353516H401.404V2.9375Z" fill="#E0E0E0"/>
<path d="M409.119 8H408.135L405.592 4.25586L404.783 5.1582V8H403.98V0.353516H404.783V4.07422L408.059 0.353516H409.119L406.119 3.69336L409.119 8Z" fill="#E0E0E0"/>
<path d="M417.274 8H416.413L415.692 5.81445H412.669L411.96 8H411.098L413.641 0.353516H414.731L417.274 8ZM415.464 5.10547L414.18 1.16211L412.897 5.10547H415.464Z" fill="#E0E0E0"/>
<path d="M424.726 8H423.707L421.474 4.72461H420.285V8H419.482V0.353516H422.002C422.841 0.353516 423.492 0.537109 423.953 0.904297C424.414 1.26758 424.644 1.8125 424.644 2.53906C424.644 2.85938 424.587 3.14844 424.474 3.40625C424.361 3.66016 424.207 3.87695 424.011 4.05664C423.816 4.23633 423.582 4.38086 423.308 4.49023C423.039 4.59961 422.744 4.66602 422.423 4.68945L424.726 8ZM423.812 2.53906C423.812 2.01953 423.65 1.64062 423.326 1.40234C423.005 1.16016 422.564 1.03906 422.002 1.03906H420.285V4.03906H422.002C422.564 4.03906 423.005 3.92188 423.326 3.6875C423.65 3.44922 423.812 3.06641 423.812 2.53906Z" fill="#E0E0E0"/>
<path d="M432.407 2.9375H431.721V1.03906H430.08V7.31445H431.311V8H428.036V7.31445H429.272V1.03906H427.631V2.9375H426.946V0.353516H432.407V2.9375Z" fill="#E0E0E0"/>
<path d="M440.122 8H439.138L436.595 4.25586L435.786 5.1582V8H434.984V0.353516H435.786V4.07422L439.062 0.353516H440.122L437.122 3.69336L440.122 8Z" fill="#E0E0E0"/>
<path d="M448.277 8H447.416L446.695 5.81445H443.672L442.963 8H442.102L444.645 0.353516H445.734L448.277 8ZM446.467 5.10547L445.184 1.16211L443.9 5.10547H446.467Z" fill="#E0E0E0"/>
<path d="M455.659 2.9375H454.973V1.03906H453.333V7.31445H454.563V8H451.288V7.31445H452.524V1.03906H450.884V2.9375H450.198V0.353516H455.659V2.9375Z" fill="#E0E0E0"/>
<path d="M463.375 8H462.39L459.847 4.25586L459.039 5.1582V8H458.236V0.353516H459.039V4.07422L462.314 0.353516H463.375L460.375 3.69336L463.375 8Z" fill="#E0E0E0"/>
<path d="M471.53 8H470.668L469.948 5.81445H466.924L466.215 8H465.354L467.897 0.353516H468.987L471.53 8ZM469.719 5.10547L468.436 1.16211L467.153 5.10547H469.719Z" fill="#E0E0E0"/>
<path d="M478.982 8H477.962L475.73 4.72461H474.54V8H473.737V0.353516H476.257C477.097 0.353516 477.747 0.537109 478.208 0.904297C478.669 1.26758 478.9 1.8125 478.9 2.53906C478.9 2.85938 478.843 3.14844 478.73 3.40625C478.616 3.66016 478.462 3.87695 478.267 4.05664C478.071 4.23633 477.837 4.38086 477.564 4.49023C477.294 4.59961 476.999 4.66602 476.679 4.68945L478.982 8ZM478.068 2.53906C478.068 2.01953 477.905 1.64062 477.581 1.40234C477.261 1.16016 476.82 1.03906 476.257 1.03906H474.54V4.03906H476.257C476.82 4.03906 477.261 3.92188 477.581 3.6875C477.905 3.44922 478.068 3.06641 478.068 2.53906Z" fill="#E0E0E0"/>
<path d="M486.662 2.9375H485.977V1.03906H484.336V7.31445H485.566V8H482.291V7.31445H483.527V1.03906H481.887V2.9375H481.201V0.353516H486.662V2.9375Z" fill="#E0E0E0"/>
<path d="M494.378 8H493.393L490.85 4.25586L490.042 5.1582V8H489.239V0.353516H490.042V4.07422L493.317 0.353516H494.378L491.378 3.69336L494.378 8Z" fill="#E0E0E0"/>
<path d="M502.533 8H501.671L500.951 5.81445H497.927L497.218 8H496.357L498.9 0.353516H499.99L502.533 8ZM500.722 5.10547L499.439 1.16211L498.156 5.10547H500.722Z" fill="#E0E0E0"/>
<path d="M509.914 2.9375H509.229V1.03906H507.588V7.31445H508.819V8H505.543V7.31445H506.78V1.03906H505.139V2.9375H504.453V0.353516H509.914V2.9375Z" fill="#E0E0E0"/>
<path d="M517.63 8H516.646L514.103 4.25586L513.294 5.1582V8H512.491V0.353516H513.294V4.07422L516.57 0.353516H517.63L514.63 3.69336L517.63 8Z" fill="#E0E0E0"/>
<path d="M525.785 8H524.924L524.203 5.81445H521.18L520.471 8H519.609L522.152 0.353516H523.242L525.785 8ZM523.975 5.10547L522.691 1.16211L521.408 5.10547H523.975Z" fill="#E0E0E0"/>
<path d="M533.237 8H532.218L529.985 4.72461H528.796V8H527.993V0.353516H530.512C531.352 0.353516 532.003 0.537109 532.464 0.904297C532.925 1.26758 533.155 1.8125 533.155 2.53906C533.155 2.85938 533.098 3.14844 532.985 3.40625C532.872 3.66016 532.718 3.87695 532.522 4.05664C532.327 4.23633 532.093 4.38086 531.819 4.49023C531.55 4.59961 531.255 4.66602 530.934 4.68945L533.237 8ZM532.323 2.53906C532.323 2.01953 532.161 1.64062 531.837 1.40234C531.516 1.16016 531.075 1.03906 530.512 1.03906H528.796V4.03906H530.512C531.075 4.03906 531.516 3.92188 531.837 3.6875C532.161 3.44922 532.323 3.06641 532.323 2.53906Z" fill="#E0E0E0"/>
<path d="M540.918 2.9375H540.232V1.03906H538.591V7.31445H539.822V8H536.546V7.31445H537.783V1.03906H536.142V2.9375H535.457V0.353516H540.918V2.9375Z" fill="#E0E0E0"/>
<path d="M548.633 8H547.649L545.106 4.25586L544.297 5.1582V8H543.495V0.353516H544.297V4.07422L547.573 0.353516H548.633L545.633 3.69336L548.633 8Z" fill="#E0E0E0"/>
<path d="M556.788 8H555.927L555.206 5.81445H552.183L551.474 8H550.612L553.155 0.353516H554.245L556.788 8ZM554.978 5.10547L553.695 1.16211L552.411 5.10547H554.978Z" fill="#E0E0E0"/>
<path d="M564.17 2.9375H563.484V1.03906H561.844V7.31445H563.074V8H559.799V7.31445H561.035V1.03906H559.395V2.9375H558.709V0.353516H564.17V2.9375Z" fill="#E0E0E0"/>
<path d="M571.885 8H570.901L568.358 4.25586L567.55 5.1582V8H566.747V0.353516H567.55V4.07422L570.825 0.353516H571.885L568.885 3.69336L571.885 8Z" fill="#E0E0E0"/>
<path d="M580.041 8H579.179L578.459 5.81445H575.435L574.726 8H573.865L576.408 0.353516H577.498L580.041 8ZM578.23 5.10547L576.947 1.16211L575.664 5.10547H578.23Z" fill="#E0E0E0"/>
<path d="M587.493 8H586.473L584.241 4.72461H583.051V8H582.248V0.353516H584.768C585.608 0.353516 586.258 0.537109 586.719 0.904297C587.18 1.26758 587.411 1.8125 587.411 2.53906C587.411 2.85938 587.354 3.14844 587.241 3.40625C587.127 3.66016 586.973 3.87695 586.778 4.05664C586.582 4.23633 586.348 4.38086 586.075 4.49023C585.805 4.59961 585.51 4.66602 585.19 4.68945L587.493 8ZM586.578 2.53906C586.578 2.01953 586.416 1.64062 586.092 1.40234C585.772 1.16016 585.33 1.03906 584.768 1.03906H583.051V4.03906H584.768C585.33 4.03906 585.772 3.92188 586.092 3.6875C586.416 3.44922 586.578 3.06641 586.578 2.53906Z" fill="#E0E0E0"/>
<path d="M595.173 2.9375H594.487V1.03906H592.847V7.31445H594.077V8H590.802V7.31445H592.038V1.03906H590.398V2.9375H589.712V0.353516H595.173V2.9375Z" fill="#E0E0E0"/>
<path d="M602.889 8H601.904L599.361 4.25586L598.553 5.1582V8H597.75V0.353516H598.553V4.07422L601.828 0.353516H602.889L599.889 3.69336L602.889 8Z" fill="#E0E0E0"/>
<path d="M611.044 8H610.182L609.462 5.81445H606.438L605.729 8H604.868L607.411 0.353516H608.501L611.044 8ZM609.233 5.10547L607.95 1.16211L606.667 5.10547H609.233Z" fill="#E0E0E0"/>
<path d="M618.425 2.9375H617.74V1.03906H616.099V7.31445H617.33V8H614.054V7.31445H615.291V1.03906H613.65V2.9375H612.964V0.353516H618.425V2.9375Z" fill="#E0E0E0"/>
<path d="M626.141 8H625.157L622.614 4.25586L621.805 5.1582V8H621.002V0.353516H621.805V4.07422L625.08 0.353516H626.141L623.141 3.69336L626.141 8Z" fill="#E0E0E0"/>
<path d="M634.296 8H633.435L632.714 5.81445H629.691L628.982 8H628.12L630.663 0.353516H631.753L634.296 8ZM632.486 5.10547L631.202 1.16211L629.919 5.10547H632.486Z" fill="#E0E0E0"/>
<path d="M641.748 8H640.729L638.496 4.72461H637.307V8H636.504V0.353516H639.023C639.863 0.353516 640.514 0.537109 640.975 0.904297C641.436 1.26758 641.666 1.8125 641.666 2.53906C641.666 2.85938 641.609 3.14844 641.496 3.40625C641.383 3.66016 641.229 3.87695 641.033 4.05664C640.838 4.23633 640.604 4.38086 640.33 4.49023C640.061 4.59961 639.766 4.66602 639.445 4.68945L641.748 8ZM640.834 2.53906C640.834 2.01953 640.672 1.64062 640.348 1.40234C640.027 1.16016 639.586 1.03906 639.023 1.03906H637.307V4.03906H639.023C639.586 4.03906 640.027 3.92188 640.348 3.6875C640.672 3.44922 640.834 3.06641 640.834 2.53906Z" fill="#E0E0E0"/>
<path d="M649.428 2.9375H648.743V1.03906H647.102V7.31445H648.333V8H645.057V7.31445H646.294V1.03906H644.653V2.9375H643.968V0.353516H649.428V2.9375Z" fill="#E0E0E0"/>
<path d="M657.144 8H656.16L653.617 4.25586L652.808 5.1582V8H652.005V0.353516H652.808V4.07422L656.084 0.353516H657.144L654.144 3.69336L657.144 8Z" fill="#E0E0E0"/>
<path d="M665.299 8H664.438L663.717 5.81445H660.694L659.985 8H659.123L661.666 0.353516H662.756L665.299 8ZM663.489 5.10547L662.205 1.16211L660.922 5.10547H663.489Z" fill="#E0E0E0"/>
<path d="M672.681 2.9375H671.995V1.03906H670.355V7.31445H671.585V8H668.31V7.31445H669.546V1.03906H667.905V2.9375H667.22V0.353516H672.681V2.9375Z" fill="#E0E0E0"/>
<path d="M680.396 8H679.412L676.869 4.25586L676.061 5.1582V8H675.258V0.353516H676.061V4.07422L679.336 0.353516H680.396L677.396 3.69336L680.396 8Z" fill="#E0E0E0"/>
<path d="M688.552 8H687.69L686.969 5.81445H683.946L683.237 8H682.376L684.919 0.353516H686.009L688.552 8ZM686.741 5.10547L685.458 1.16211L684.175 5.10547H686.741Z" fill="#E0E0E0"/>
<path d="M696.003 8H694.984L692.752 4.72461H691.562V8H690.759V0.353516H693.279C694.119 0.353516 694.769 0.537109 695.23 0.904297C695.691 1.26758 695.921 1.8125 695.921 2.53906C695.921 2.85938 695.865 3.14844 695.752 3.40625C695.638 3.66016 695.484 3.87695 695.289 4.05664C695.093 4.23633 694.859 4.38086 694.586 4.49023C694.316 4.59961 694.021 4.66602 693.701 4.68945L696.003 8ZM695.089 2.53906C695.089 2.01953 694.927 1.64062 694.603 1.40234C694.283 1.16016 693.841 1.03906 693.279 1.03906H691.562V4.03906H693.279C693.841 4.03906 694.283 3.92188 694.603 3.6875C694.927 3.44922 695.089 3.06641 695.089 2.53906Z" fill="#E0E0E0"/>
<path d="M703.684 2.9375H702.998V1.03906H701.358V7.31445H702.588V8H699.313V7.31445H700.549V1.03906H698.909V2.9375H698.223V0.353516H703.684V2.9375Z" fill="#E0E0E0"/>
<path d="M711.4 8H710.415L707.872 4.25586L707.064 5.1582V8H706.261V0.353516H707.064V4.07422L710.339 0.353516H711.4L708.4 3.69336L711.4 8Z" fill="#E0E0E0"/>
<path d="M719.555 8H718.693L717.973 5.81445H714.949L714.24 8H713.379L715.922 0.353516H717.012L719.555 8ZM717.744 5.10547L716.461 1.16211L715.178 5.10547H717.744Z" fill="#E0E0E0"/>
<path d="M726.936 2.9375H726.251V1.03906H724.61V7.31445H725.841V8H722.565V7.31445H723.802V1.03906H722.161V2.9375H721.475V0.353516H726.936V2.9375Z" fill="#E0E0E0"/>
<path d="M734.652 8H733.668L731.125 4.25586L730.316 5.1582V8H729.513V0.353516H730.316V4.07422L733.591 0.353516H734.652L731.652 3.69336L734.652 8Z" fill="#E0E0E0"/>
<path d="M742.807 8H741.946L741.225 5.81445H738.202L737.493 8H736.631L739.174 0.353516H740.264L742.807 8ZM740.996 5.10547L739.713 1.16211L738.43 5.10547H740.996Z" fill="#E0E0E0"/>
<path d="M750.259 8H749.239L747.007 4.72461H745.818V8H745.015V0.353516H747.534C748.374 0.353516 749.025 0.537109 749.486 0.904297C749.946 1.26758 750.177 1.8125 750.177 2.53906C750.177 2.85938 750.12 3.14844 750.007 3.40625C749.894 3.66016 749.739 3.87695 749.544 4.05664C749.349 4.23633 749.114 4.38086 748.841 4.49023C748.571 4.59961 748.277 4.66602 747.956 4.68945L750.259 8ZM749.345 2.53906C749.345 2.01953 749.183 1.64062 748.859 1.40234C748.538 1.16016 748.097 1.03906 747.534 1.03906H745.818V4.03906H747.534C748.097 4.03906 748.538 3.92188 748.859 3.6875C749.183 3.44922 749.345 3.06641 749.345 2.53906Z" fill="#E0E0E0"/>
<path d="M757.939 2.9375H757.254V1.03906H755.613V7.31445H756.844V8H753.568V7.31445H754.805V1.03906H753.164V2.9375H752.479V0.353516H757.939V2.9375Z" fill="#E0E0E0"/>
<path d="M765.655 8H764.671L762.128 4.25586L761.319 5.1582V8H760.516V0.353516H761.319V4.07422L764.594 0.353516H765.655L762.655 3.69336L765.655 8Z" fill="#E0E0E0"/>
<path d="M773.81 8H772.949L772.228 5.81445H769.205L768.496 8H767.634L770.177 0.353516H771.267L773.81 8ZM772 5.10547L770.716 1.16211L769.433 5.10547H772Z" fill="#E0E0E0"/>
<path d="M781.192 2.9375H780.506V1.03906H778.866V7.31445H780.096V8H776.821V7.31445H778.057V1.03906H776.416V2.9375H775.731V0.353516H781.192V2.9375Z" fill="#E0E0E0"/>
<path d="M788.907 8H787.923L785.38 4.25586L784.571 5.1582V8H783.769V0.353516H784.571V4.07422L787.847 0.353516H788.907L785.907 3.69336L788.907 8Z" fill="#E0E0E0"/>
<path d="M797.062 8H796.201L795.48 5.81445H792.457L791.748 8H790.887L793.43 0.353516H794.52L797.062 8ZM795.252 5.10547L793.969 1.16211L792.686 5.10547H795.252Z" fill="#E0E0E0"/>
<path d="M804.514 8H803.495L801.262 4.72461H800.073V8H799.27V0.353516H801.79C802.63 0.353516 803.28 0.537109 803.741 0.904297C804.202 1.26758 804.432 1.8125 804.432 2.53906C804.432 2.85938 804.376 3.14844 804.262 3.40625C804.149 3.66016 803.995 3.87695 803.8 4.05664C803.604 4.23633 803.37 4.38086 803.096 4.49023C802.827 4.59961 802.532 4.66602 802.212 4.68945L804.514 8ZM803.6 2.53906C803.6 2.01953 803.438 1.64062 803.114 1.40234C802.794 1.16016 802.352 1.03906 801.79 1.03906H800.073V4.03906H801.79C802.352 4.03906 802.794 3.92188 803.114 3.6875C803.438 3.44922 803.6 3.06641 803.6 2.53906Z" fill="#E0E0E0"/>
<path d="M812.195 2.9375H811.509V1.03906H809.869V7.31445H811.099V8H807.824V7.31445H809.06V1.03906H807.419V2.9375H806.734V0.353516H812.195V2.9375Z" fill="#E0E0E0"/>
<path d="M819.911 8H818.926L816.383 4.25586L815.575 5.1582V8H814.772V0.353516H815.575V4.07422L818.85 0.353516H819.911L816.911 3.69336L819.911 8Z" fill="#E0E0E0"/>
<path d="M828.066 8H827.204L826.484 5.81445H823.46L822.751 8H821.89L824.433 0.353516H825.523L828.066 8ZM826.255 5.10547L824.972 1.16211L823.689 5.10547H826.255Z" fill="#E0E0E0"/>
<path d="M835.447 2.9375H834.762V1.03906H833.121V7.31445H834.352V8H831.076V7.31445H832.312V1.03906H830.672V2.9375H829.986V0.353516H835.447V2.9375Z" fill="#E0E0E0"/>
<path d="M843.163 8H842.178L839.635 4.25586L838.827 5.1582V8H838.024V0.353516H838.827V4.07422L842.102 0.353516H843.163L840.163 3.69336L843.163 8Z" fill="#E0E0E0"/>
<path d="M851.318 8H850.457L849.736 5.81445H846.712L846.003 8H845.142L847.685 0.353516H848.775L851.318 8ZM849.507 5.10547L848.224 1.16211L846.941 5.10547H849.507Z" fill="#E0E0E0"/>
<path d="M858.77 8H857.75L855.518 4.72461H854.328V8H853.526V0.353516H856.045C856.885 0.353516 857.536 0.537109 857.996 0.904297C858.457 1.26758 858.688 1.8125 858.688 2.53906C858.688 2.85938 858.631 3.14844 858.518 3.40625C858.405 3.66016 858.25 3.87695 858.055 4.05664C857.86 4.23633 857.625 4.38086 857.352 4.49023C857.082 4.59961 856.787 4.66602 856.467 4.68945L858.77 8ZM857.856 2.53906C857.856 2.01953 857.694 1.64062 857.37 1.40234C857.049 1.16016 856.608 1.03906 856.045 1.03906H854.328V4.03906H856.045C856.608 4.03906 857.049 3.92188 857.37 3.6875C857.694 3.44922 857.856 3.06641 857.856 2.53906Z" fill="#E0E0E0"/>
<path d="M866.45 2.9375H865.765V1.03906H864.124V7.31445H865.355V8H862.079V7.31445H863.316V1.03906H861.675V2.9375H860.989V0.353516H866.45V2.9375Z" fill="#E0E0E0"/>
<path d="M874.166 8H873.182L870.639 4.25586L869.83 5.1582V8H869.027V0.353516H869.83V4.07422L873.105 0.353516H874.166L871.166 3.69336L874.166 8Z" fill="#E0E0E0"/>
<path d="M882.321 8H881.46L880.739 5.81445H877.716L877.007 8H876.145L878.688 0.353516H879.778L882.321 8ZM880.51 5.10547L879.227 1.16211L877.944 5.10547H880.51Z" fill="#E0E0E0"/>
<path d="M889.703 2.9375H889.017V1.03906H887.377V7.31445H888.607V8H885.332V7.31445H886.568V1.03906H884.927V2.9375H884.242V0.353516H889.703V2.9375Z" fill="#E0E0E0"/>
<path d="M897.418 8H896.434L893.891 4.25586L893.082 5.1582V8H892.28V0.353516H893.082V4.07422L896.358 0.353516H897.418L894.418 3.69336L897.418 8Z" fill="#E0E0E0"/>
<path d="M905.573 8H904.712L903.991 5.81445H900.968L900.259 8H899.398L901.941 0.353516H903.03L905.573 8ZM903.763 5.10547L902.48 1.16211L901.196 5.10547H903.763Z" fill="#E0E0E0"/>
<path d="M913.025 8H912.006L909.773 4.72461H908.584V8H907.781V0.353516H910.301C911.141 0.353516 911.791 0.537109 912.252 0.904297C912.713 1.26758 912.943 1.8125 912.943 2.53906C912.943 2.85938 912.887 3.14844 912.773 3.40625C912.66 3.66016 912.506 3.87695 912.311 4.05664C912.115 4.23633 911.881 4.38086 911.607 4.49023C911.338 4.59961 911.043 4.66602 910.723 4.68945L913.025 8ZM912.111 2.53906C912.111 2.01953 911.949 1.64062 911.625 1.40234C911.305 1.16016 910.863 1.03906 910.301 1.03906H908.584V4.03906H910.301C910.863 4.03906 911.305 3.92188 911.625 3.6875C911.949 3.44922 912.111 3.06641 912.111 2.53906Z" fill="#E0E0E0"/>
<path d="M920.706 2.9375H920.02V1.03906H918.38V7.31445H919.61V8H916.335V7.31445H917.571V1.03906H915.93V2.9375H915.245V0.353516H920.706V2.9375Z" fill="#E0E0E0"/>
<path d="M928.421 8H927.437L924.894 4.25586L924.086 5.1582V8H923.283V0.353516H924.086V4.07422L927.361 0.353516H928.421L925.421 3.69336L928.421 8Z" fill="#E0E0E0"/>
<path d="M936.577 8H935.715L934.995 5.81445H931.971L931.262 8H930.401L932.944 0.353516H934.034L936.577 8ZM934.766 5.10547L933.483 1.16211L932.2 5.10547H934.766Z" fill="#E0E0E0"/>
<path d="M943.958 2.9375H943.273V1.03906H941.632V7.31445H942.862V8H939.587V7.31445H940.823V1.03906H939.183V2.9375H938.497V0.353516H943.958V2.9375Z" fill="#E0E0E0"/>
<path d="M951.674 8H950.689L948.146 4.25586L947.338 5.1582V8H946.535V0.353516H947.338V4.07422L950.613 0.353516H951.674L948.674 3.69336L951.674 8Z" fill="#E0E0E0"/>
<path d="M959.829 8H958.968L958.247 5.81445H955.223L954.514 8H953.653L956.196 0.353516H957.286L959.829 8ZM958.018 5.10547L956.735 1.16211L955.452 5.10547H958.018Z" fill="#E0E0E0"/>
<path d="M967.281 8H966.261L964.029 4.72461H962.839V8H962.037V0.353516H964.556C965.396 0.353516 966.046 0.537109 966.507 0.904297C966.968 1.26758 967.199 1.8125 967.199 2.53906C967.199 2.85938 967.142 3.14844 967.029 3.40625C966.916 3.66016 966.761 3.87695 966.566 4.05664C966.371 4.23633 966.136 4.38086 965.863 4.49023C965.593 4.59961 965.298 4.66602 964.978 4.68945L967.281 8ZM966.367 2.53906C966.367 2.01953 966.205 1.64062 965.88 1.40234C965.56 1.16016 965.119 1.03906 964.556 1.03906H962.839V4.03906H964.556C965.119 4.03906 965.56 3.92188 965.88 3.6875C966.205 3.44922 966.367 3.06641 966.367 2.53906Z" fill="#E0E0E0"/>
<path d="M974.961 2.9375H974.276V1.03906H972.635V7.31445H973.866V8H970.59V7.31445H971.827V1.03906H970.186V2.9375H969.5V0.353516H974.961V2.9375Z" fill="#E0E0E0"/>
<path d="M982.677 8H981.693L979.15 4.25586L978.341 5.1582V8H977.538V0.353516H978.341V4.07422L981.616 0.353516H982.677L979.677 3.69336L982.677 8Z" fill="#E0E0E0"/>
<path d="M990.832 8H989.971L989.25 5.81445H986.227L985.518 8H984.656L987.199 0.353516H988.289L990.832 8ZM989.021 5.10547L987.738 1.16211L986.455 5.10547H989.021Z" fill="#E0E0E0"/>
<path d="M998.214 2.9375H997.528V1.03906H995.887V7.31445H997.118V8H993.843V7.31445H995.079V1.03906H993.438V2.9375H992.753V0.353516H998.214V2.9375Z" fill="#E0E0E0"/>
<path d="M1005.93 8H1004.94L1002.4 4.25586L1001.59 5.1582V8H1000.79V0.353516H1001.59V4.07422L1004.87 0.353516H1005.93L1002.93 3.69336L1005.93 8Z" fill="#E0E0E0"/>
<path d="M1014.08 8H1013.22L1012.5 5.81445H1009.48L1008.77 8H1007.91L1010.45 0.353516H1011.54L1014.08 8ZM1012.27 5.10547L1010.99 1.16211L1009.71 5.10547H1012.27Z" fill="#E0E0E0"/>
<path d="M1021.54 8H1020.52L1018.28 4.72461H1017.09V8H1016.29V0.353516H1018.81C1019.65 0.353516 1020.3 0.537109 1020.76 0.904297C1021.22 1.26758 1021.45 1.8125 1021.45 2.53906C1021.45 2.85938 1021.4 3.14844 1021.28 3.40625C1021.17 3.66016 1021.02 3.87695 1020.82 4.05664C1020.63 4.23633 1020.39 4.38086 1020.12 4.49023C1019.85 4.59961 1019.55 4.66602 1019.23 4.68945L1021.54 8ZM1020.62 2.53906C1020.62 2.01953 1020.46 1.64062 1020.14 1.40234C1019.82 1.16016 1019.37 1.03906 1018.81 1.03906H1017.09V4.03906H1018.81C1019.37 4.03906 1019.82 3.92188 1020.14 3.6875C1020.46 3.44922 1020.62 3.06641 1020.62 2.53906Z" fill="#E0E0E0"/>
<path d="M1029.22 2.9375H1028.53V1.03906H1026.89V7.31445H1028.12V8H1024.85V7.31445H1026.08V1.03906H1024.44V2.9375H1023.76V0.353516H1029.22V2.9375Z" fill="#E0E0E0"/>
<path d="M1036.93 8H1035.95L1033.41 4.25586L1032.6 5.1582V8H1031.79V0.353516H1032.6V4.07422L1035.87 0.353516H1036.93L1033.93 3.69336L1036.93 8Z" fill="#E0E0E0"/>
<path d="M1045.09 8H1044.23L1043.51 5.81445H1040.48L1039.77 8H1038.91L1041.45 0.353516H1042.54L1045.09 8ZM1043.28 5.10547L1041.99 1.16211L1040.71 5.10547H1043.28Z" fill="#E0E0E0"/>
<path d="M1052.47 2.9375H1051.78V1.03906H1050.14V7.31445H1051.37V8H1048.1V7.31445H1049.33V1.03906H1047.69V2.9375H1047.01V0.353516H1052.47V2.9375Z" fill="#E0E0E0"/>
<path d="M1060.18 8H1059.2L1056.66 4.25586L1055.85 5.1582V8H1055.05V0.353516H1055.85V4.07422L1059.12 0.353516H1060.18L1057.18 3.69336L1060.18 8Z" fill="#E0E0E0"/>
<path d="M1068.34 8H1067.48L1066.76 5.81445H1063.73L1063.03 8H1062.16L1064.71 0.353516H1065.8L1068.34 8ZM1066.53 5.10547L1065.25 1.16211L1063.96 5.10547H1066.53Z" fill="#E0E0E0"/>
<path d="M1075.79 8H1074.77L1072.54 4.72461H1071.35V8H1070.55V0.353516H1073.07C1073.91 0.353516 1074.56 0.537109 1075.02 0.904297C1075.48 1.26758 1075.71 1.8125 1075.71 2.53906C1075.71 2.85938 1075.65 3.14844 1075.54 3.40625C1075.43 3.66016 1075.27 3.87695 1075.08 4.05664C1074.88 4.23633 1074.65 4.38086 1074.37 4.49023C1074.1 4.59961 1073.81 4.66602 1073.49 4.68945L1075.79 8ZM1074.88 2.53906C1074.88 2.01953 1074.72 1.64062 1074.39 1.40234C1074.07 1.16016 1073.63 1.03906 1073.07 1.03906H1071.35V4.03906H1073.07C1073.63 4.03906 1074.07 3.92188 1074.39 3.6875C1074.72 3.44922 1074.88 3.06641 1074.88 2.53906Z" fill="#E0E0E0"/>
<path d="M1083.47 2.9375H1082.79V1.03906H1081.15V7.31445H1082.38V8H1079.1V7.31445H1080.34V1.03906H1078.7V2.9375H1078.01V0.353516H1083.47V2.9375Z" fill="#E0E0E0"/>
<path d="M1091.19 8H1090.2L1087.66 4.25586L1086.85 5.1582V8H1086.05V0.353516H1086.85V4.07422L1090.13 0.353516H1091.19L1088.19 3.69336L1091.19 8Z" fill="#E0E0E0"/>
<path d="M1099.34 8H1098.48L1097.76 5.81445H1094.74L1094.03 8H1093.17L1095.71 0.353516H1096.8L1099.34 8ZM1097.53 5.10547L1096.25 1.16211L1094.97 5.10547H1097.53Z" fill="#E0E0E0"/>
<path d="M1106.72 2.9375H1106.04V1.03906H1104.4V7.31445H1105.63V8H1102.35V7.31445H1103.59V1.03906H1101.95V2.9375H1101.26V0.353516H1106.72V2.9375Z" fill="#E0E0E0"/>
<path d="M1114.44 8H1113.46L1110.91 4.25586L1110.1 5.1582V8H1109.3V0.353516H1110.1V4.07422L1113.38 0.353516H1114.44L1111.44 3.69336L1114.44 8Z" fill="#E0E0E0"/>
<path d="M1122.6 8H1121.73L1121.01 5.81445H1117.99L1117.28 8H1116.42L1118.96 0.353516H1120.05L1122.6 8ZM1120.78 5.10547L1119.5 1.16211L1118.22 5.10547H1120.78Z" fill="#E0E0E0"/>
<path d="M1130.05 8H1129.03L1126.8 4.72461H1125.61V8H1124.8V0.353516H1127.32C1128.16 0.353516 1128.81 0.537109 1129.27 0.904297C1129.73 1.26758 1129.97 1.8125 1129.97 2.53906C1129.97 2.85938 1129.91 3.14844 1129.8 3.40625C1129.68 3.66016 1129.53 3.87695 1129.33 4.05664C1129.14 4.23633 1128.9 4.38086 1128.63 4.49023C1128.36 4.59961 1128.06 4.66602 1127.74 4.68945L1130.05 8ZM1129.13 2.53906C1129.13 2.01953 1128.97 1.64062 1128.65 1.40234C1128.33 1.16016 1127.89 1.03906 1127.32 1.03906H1125.61V4.03906H1127.32C1127.89 4.03906 1128.33 3.92188 1128.65 3.6875C1128.97 3.44922 1129.13 3.06641 1129.13 2.53906Z" fill="#E0E0E0"/>
<path d="M1137.73 2.9375H1137.04V1.03906H1135.4V7.31445H1136.63V8H1133.36V7.31445H1134.59V1.03906H1132.95V2.9375H1132.27V0.353516H1137.73V2.9375Z" fill="#E0E0E0"/>
<path d="M1145.44 8H1144.46L1141.92 4.25586L1141.11 5.1582V8H1140.3V0.353516H1141.11V4.07422L1144.38 0.353516H1145.44L1142.44 3.69336L1145.44 8Z" fill="#E0E0E0"/>
<path d="M1153.6 8H1152.74L1152.02 5.81445H1148.99L1148.28 8H1147.42L1149.97 0.353516H1151.06L1153.6 8ZM1151.79 5.10547L1150.5 1.16211L1149.22 5.10547H1151.79Z" fill="#E0E0E0"/>
<path d="M1160.98 2.9375H1160.29V1.03906H1158.65V7.31445H1159.88V8H1156.61V7.31445H1157.85V1.03906H1156.2V2.9375H1155.52V0.353516H1160.98V2.9375Z" fill="#E0E0E0"/>
<path d="M1168.7 8H1167.71L1165.17 4.25586L1164.36 5.1582V8H1163.56V0.353516H1164.36V4.07422L1167.64 0.353516H1168.7L1165.7 3.69336L1168.7 8Z" fill="#E0E0E0"/>
<path d="M1176.85 8H1175.99L1175.27 5.81445H1172.25L1171.54 8H1170.67L1173.22 0.353516H1174.31L1176.85 8ZM1175.04 5.10547L1173.76 1.16211L1172.47 5.10547H1175.04Z" fill="#E0E0E0"/>
<path d="M1184.3 8H1183.28L1181.05 4.72461H1179.86V8H1179.06V0.353516H1181.58C1182.42 0.353516 1183.07 0.537109 1183.53 0.904297C1183.99 1.26758 1184.22 1.8125 1184.22 2.53906C1184.22 2.85938 1184.16 3.14844 1184.05 3.40625C1183.94 3.66016 1183.78 3.87695 1183.59 4.05664C1183.39 4.23633 1183.16 4.38086 1182.88 4.49023C1182.62 4.59961 1182.32 4.66602 1182 4.68945L1184.3 8ZM1183.39 2.53906C1183.39 2.01953 1183.23 1.64062 1182.9 1.40234C1182.58 1.16016 1182.14 1.03906 1181.58 1.03906H1179.86V4.03906H1181.58C1182.14 4.03906 1182.58 3.92188 1182.9 3.6875C1183.23 3.44922 1183.39 3.06641 1183.39 2.53906Z" fill="#E0E0E0"/>
<path d="M1191.98 2.9375H1191.3V1.03906H1189.66V7.31445H1190.89V8H1187.61V7.31445H1188.85V1.03906H1187.21V2.9375H1186.52V0.353516H1191.98V2.9375Z" fill="#E0E0E0"/>
<path d="M1199.7 8H1198.71L1196.17 4.25586L1195.36 5.1582V8H1194.56V0.353516H1195.36V4.07422L1198.64 0.353516H1199.7L1196.7 3.69336L1199.7 8Z" fill="#E0E0E0"/>
<path d="M1207.85 8H1206.99L1206.27 5.81445H1203.25L1202.54 8H1201.68L1204.22 0.353516H1205.31L1207.85 8ZM1206.04 5.10547L1204.76 1.16211L1203.48 5.10547H1206.04Z" fill="#E0E0E0"/>
<path d="M1215.24 2.9375H1214.55V1.03906H1212.91V7.31445H1214.14V8H1210.86V7.31445H1212.1V1.03906H1210.46V2.9375H1209.77V0.353516H1215.24V2.9375Z" fill="#E0E0E0"/>
<path d="M1222.95 8H1221.97L1219.42 4.25586L1218.62 5.1582V8H1217.81V0.353516H1218.62V4.07422L1221.89 0.353516H1222.95L1219.95 3.69336L1222.95 8Z" fill="#E0E0E0"/>
<path d="M1231.11 8H1230.24L1229.52 5.81445H1226.5L1225.79 8H1224.93L1227.47 0.353516H1228.56L1231.11 8ZM1229.3 5.10547L1228.01 1.16211L1226.73 5.10547H1229.3Z" fill="#E0E0E0"/>
<path d="M1238.56 8H1237.54L1235.31 4.72461H1234.12V8H1233.31V0.353516H1235.83C1236.67 0.353516 1237.32 0.537109 1237.78 0.904297C1238.25 1.26758 1238.48 1.8125 1238.48 2.53906C1238.48 2.85938 1238.42 3.14844 1238.31 3.40625C1238.19 3.66016 1238.04 3.87695 1237.84 4.05664C1237.65 4.23633 1237.41 4.38086 1237.14 4.49023C1236.87 4.59961 1236.58 4.66602 1236.26 4.68945L1238.56 8ZM1237.64 2.53906C1237.64 2.01953 1237.48 1.64062 1237.16 1.40234C1236.84 1.16016 1236.4 1.03906 1235.83 1.03906H1234.12V4.03906H1235.83C1236.4 4.03906 1236.84 3.92188 1237.16 3.6875C1237.48 3.44922 1237.64 3.06641 1237.64 2.53906Z" fill="#E0E0E0"/>
<path d="M1246.24 2.9375H1245.55V1.03906H1243.91V7.31445H1245.14V8H1241.87V7.31445H1243.1V1.03906H1241.46V2.9375H1240.78V0.353516H1246.24V2.9375Z" fill="#E0E0E0"/>
<path d="M1253.95 8H1252.97L1250.43 4.25586L1249.62 5.1582V8H1248.82V0.353516H1249.62V4.07422L1252.89 0.353516H1253.95L1250.95 3.69336L1253.95 8Z" fill="#E0E0E0"/>
<path d="M1262.11 8H1261.25L1260.53 5.81445H1257.5L1256.79 8H1255.93L1258.48 0.353516H1259.57L1262.11 8ZM1260.3 5.10547L1259.02 1.16211L1257.73 5.10547H1260.3Z" fill="#E0E0E0"/>
<path d="M1269.49 2.9375H1268.81V1.03906H1267.16V7.31445H1268.4V8H1265.12V7.31445H1266.36V1.03906H1264.72V2.9375H1264.03V0.353516H1269.49V2.9375Z" fill="#E0E0E0"/>
<path d="M1277.21 8H1276.22L1273.68 4.25586L1272.87 5.1582V8H1272.07V0.353516H1272.87V4.07422L1276.15 0.353516H1277.21L1274.21 3.69336L1277.21 8Z" fill="#E0E0E0"/>
<path d="M1285.36 8H1284.5L1283.78 5.81445H1280.76L1280.05 8H1279.19L1281.73 0.353516H1282.82L1285.36 8ZM1283.55 5.10547L1282.27 1.16211L1280.98 5.10547H1283.55Z" fill="#E0E0E0"/>
<path d="M1292.81 8H1291.79L1289.56 4.72461H1288.37V8H1287.57V0.353516H1290.09C1290.93 0.353516 1291.58 0.537109 1292.04 0.904297C1292.5 1.26758 1292.73 1.8125 1292.73 2.53906C1292.73 2.85938 1292.67 3.14844 1292.56 3.40625C1292.45 3.66016 1292.29 3.87695 1292.1 4.05664C1291.9 4.23633 1291.67 4.38086 1291.4 4.49023C1291.13 4.59961 1290.83 4.66602 1290.51 4.68945L1292.81 8ZM1291.9 2.53906C1291.9 2.01953 1291.74 1.64062 1291.41 1.40234C1291.09 1.16016 1290.65 1.03906 1290.09 1.03906H1288.37V4.03906H1290.09C1290.65 4.03906 1291.09 3.92188 1291.41 3.6875C1291.74 3.44922 1291.9 3.06641 1291.9 2.53906Z" fill="#E0E0E0"/>
<path d="M1300.49 2.9375H1299.81V1.03906H1298.17V7.31445H1299.4V8H1296.12V7.31445H1297.36V1.03906H1295.72V2.9375H1295.03V0.353516H1300.49V2.9375Z" fill="#E0E0E0"/>
<path d="M1308.21 8H1307.23L1304.68 4.25586L1303.87 5.1582V8H1303.07V0.353516H1303.87V4.07422L1307.15 0.353516H1308.21L1305.21 3.69336L1308.21 8Z" fill="#E0E0E0"/>
<path d="M1316.36 8H1315.5L1314.78 5.81445H1311.76L1311.05 8H1310.19L1312.73 0.353516H1313.82L1316.36 8ZM1314.55 5.10547L1313.27 1.16211L1311.99 5.10547H1314.55Z" fill="#E0E0E0"/>
<path d="M1323.75 2.9375H1323.06V1.03906H1321.42V7.31445H1322.65V8H1319.38V7.31445H1320.61V1.03906H1318.97V2.9375H1318.29V0.353516H1323.75V2.9375Z" fill="#E0E0E0"/>
<path d="M1331.46 8H1330.48L1327.93 4.25586L1327.13 5.1582V8H1326.32V0.353516H1327.13V4.07422L1330.4 0.353516H1331.46L1328.46 3.69336L1331.46 8Z" fill="#E0E0E0"/>
<path d="M1339.62 8H1338.76L1338.04 5.81445H1335.01L1334.3 8H1333.44L1335.98 0.353516H1337.07L1339.62 8ZM1337.81 5.10547L1336.52 1.16211L1335.24 5.10547H1337.81Z" fill="#E0E0E0"/>
<path d="M1347.07 8H1346.05L1343.82 4.72461H1342.63V8H1341.82V0.353516H1344.34C1345.18 0.353516 1345.83 0.537109 1346.3 0.904297C1346.76 1.26758 1346.99 1.8125 1346.99 2.53906C1346.99 2.85938 1346.93 3.14844 1346.82 3.40625C1346.7 3.66016 1346.55 3.87695 1346.35 4.05664C1346.16 4.23633 1345.92 4.38086 1345.65 4.49023C1345.38 4.59961 1345.09 4.66602 1344.77 4.68945L1347.07 8ZM1346.16 2.53906C1346.16 2.01953 1345.99 1.64062 1345.67 1.40234C1345.35 1.16016 1344.91 1.03906 1344.34 1.03906H1342.63V4.03906H1344.34C1344.91 4.03906 1345.35 3.92188 1345.67 3.6875C1345.99 3.44922 1346.16 3.06641 1346.16 2.53906Z" fill="#E0E0E0"/>
<path d="M1354.75 2.9375H1354.06V1.03906H1352.42V7.31445H1353.65V8H1350.38V7.31445H1351.61V1.03906H1349.97V2.9375H1349.29V0.353516H1354.75V2.9375Z" fill="#E0E0E0"/>
<path d="M1362.47 8H1361.48L1358.94 4.25586L1358.13 5.1582V8H1357.33V0.353516H1358.13V4.07422L1361.4 0.353516H1362.47L1359.47 3.69336L1362.47 8Z" fill="#E0E0E0"/>
<path d="M1370.62 8H1369.76L1369.04 5.81445H1366.01L1365.31 8H1364.44L1366.99 0.353516H1368.08L1370.62 8ZM1368.81 5.10547L1367.53 1.16211L1366.24 5.10547H1368.81Z" fill="#E0E0E0"/>
<path d="M1378 2.9375H1377.32V1.03906H1375.68V7.31445H1376.91V8H1373.63V7.31445H1374.87V1.03906H1373.23V2.9375H1372.54V0.353516H1378V2.9375Z" fill="#E0E0E0"/>
<path d="M1385.72 8H1384.73L1382.19 4.25586L1381.38 5.1582V8H1380.58V0.353516H1381.38V4.07422L1384.66 0.353516H1385.72L1382.72 3.69336L1385.72 8Z" fill="#E0E0E0"/>
<path d="M1393.87 8H1393.01L1392.29 5.81445H1389.27L1388.56 8H1387.7L1390.24 0.353516H1391.33L1393.87 8ZM1392.06 5.10547L1390.78 1.16211L1389.5 5.10547H1392.06Z" fill="#E0E0E0"/>
<path d="M1401.32 8H1400.31L1398.07 4.72461H1396.88V8H1396.08V0.353516H1398.6C1399.44 0.353516 1400.09 0.537109 1400.55 0.904297C1401.01 1.26758 1401.24 1.8125 1401.24 2.53906C1401.24 2.85938 1401.19 3.14844 1401.07 3.40625C1400.96 3.66016 1400.81 3.87695 1400.61 4.05664C1400.41 4.23633 1400.18 4.38086 1399.91 4.49023C1399.64 4.59961 1399.34 4.66602 1399.02 4.68945L1401.32 8ZM1400.41 2.53906C1400.41 2.01953 1400.25 1.64062 1399.92 1.40234C1399.6 1.16016 1399.16 1.03906 1398.6 1.03906H1396.88V4.03906H1398.6C1399.16 4.03906 1399.6 3.92188 1399.92 3.6875C1400.25 3.44922 1400.41 3.06641 1400.41 2.53906Z" fill="#E0E0E0"/>
<path d="M1409.01 2.9375H1408.32V1.03906H1406.68V7.31445H1407.91V8H1404.63V7.31445H1405.87V1.03906H1404.23V2.9375H1403.54V0.353516H1409.01V2.9375Z" fill="#E0E0E0"/>
<path d="M1416.72 8H1415.74L1413.19 4.25586L1412.38 5.1582V8H1411.58V0.353516H1412.38V4.07422L1415.66 0.353516H1416.72L1413.72 3.69336L1416.72 8Z" fill="#E0E0E0"/>
<path d="M1424.88 8H1424.01L1423.29 5.81445H1420.27L1419.56 8H1418.7L1421.24 0.353516H1422.33L1424.88 8ZM1423.07 5.10547L1421.78 1.16211L1420.5 5.10547H1423.07Z" fill="#E0E0E0"/>
<path d="M1432.26 2.9375H1431.57V1.03906H1429.93V7.31445H1431.16V8H1427.89V7.31445H1429.12V1.03906H1427.48V2.9375H1426.8V0.353516H1432.26V2.9375Z" fill="#E0E0E0"/>
</svg>
