<svg width="146" height="27" viewBox="0 0 146 27" fill="none" xmlns="http://www.w3.org/2000/svg">
<rect width="146" height="27" fill="#616161"/>
<path d="M16.8961 21H14.0602L10.0523 13.875L9.04453 15.0703V21H6.61875V5.70703H9.04453V11.707L13.8023 5.70703H16.9195L11.5875 12.0469L16.8961 21ZM35.4398 21L34.3383 17.3555H29.2758L28.1977 21H25.6547L30.4242 5.70703H33.2133L37.9828 21H35.4398ZM29.9203 15.2109H33.6938L31.8188 8.90625L29.9203 15.2109ZM57.5461 11.2852H55.3781V7.89844H53.3156V18.8203H55.7414V21H48.4758V18.8203H50.8898V7.89844H48.8039V11.2852H46.6477V5.70703H57.5461V11.2852ZM77.8008 21H74.9648L70.957 13.875L69.9492 15.0703V21H67.5234V5.70703H69.9492V11.707L74.707 5.70703H77.8242L72.4922 12.0469L77.8008 21ZM98.9109 21H97.1883L95.7469 16.6289H89.7L88.282 21H86.5594L91.6453 5.70703H93.825L98.9109 21ZM95.2898 15.2109L92.7234 7.32422L90.157 15.2109H95.2898ZM118.615 21H116.576L112.111 14.4492H109.732V21H108.127V5.70703H113.166C114.845 5.70703 116.146 6.07422 117.068 6.80859C117.99 7.53516 118.451 8.625 118.451 10.0781C118.451 10.7188 118.338 11.2969 118.111 11.8125C117.884 12.3203 117.576 12.7539 117.185 13.1133C116.795 13.4727 116.326 13.7617 115.779 13.9805C115.24 14.1992 114.65 14.332 114.009 14.3789L118.615 21ZM116.787 10.0781C116.787 9.03906 116.463 8.28125 115.814 7.80469C115.173 7.32031 114.291 7.07812 113.166 7.07812H109.732V13.0781H113.166C114.291 13.0781 115.173 12.8438 115.814 12.375C116.463 11.8984 116.787 11.1328 116.787 10.0781ZM138.776 10.875H137.405V7.07812H134.123V19.6289H136.584V21H130.034V19.6289H132.506V7.07812H129.225V10.875H127.854V5.70703H138.776V10.875Z" fill="#F9F9F9"/>
</svg>
